<svg height="492pt" viewBox="0 -5 492 492" width="492pt" xmlns="http://www.w3.org/2000/svg" fill="#535c4a"><path d="m458.238281 307.996094c.003907-31.28125-25.355469-56.640625-56.636719-56.640625s-56.640624 25.355469-56.640624 56.640625c0 31.28125 25.355468 56.640625 56.640624 56.640625 31.265626-.035157 56.605469-25.371094 56.636719-56.640625zm-101.277343 0c0-24.652344 19.984374-44.640625 44.640624-44.640625 24.652344 0 44.640626 19.984375 44.640626 44.640625 0 24.652344-19.988282 44.640625-44.640626 44.640625-24.640624-.027344-44.613281-19.996094-44.640624-44.640625zm0 0"/><path d="m401.601562 386.398438c-49.90625.054687-90.347656 40.496093-90.402343 90.398437 0 3.3125 2.6875 6 6 6h168.800781c3.3125 0 6-2.6875 6-6-.054688-49.902344-40.496094-90.34375-90.398438-90.398437zm-78.171874 84.398437c3.121093-40.863281 37.1875-72.425781 78.171874-72.425781 40.980469 0 75.046876 31.5625 78.171876 72.425781zm0 0"/><path d="m90.398438 113.28125c31.28125 0 56.640624-25.359375 56.640624-56.640625s-25.359374-56.640625-56.640624-56.640625-56.636719 25.359375-56.636719 56.640625c.03125 31.265625 25.371093 56.605469 56.636719 56.640625zm0-101.28125c24.65625 0 44.640624 19.988281 44.640624 44.640625 0 24.65625-19.984374 44.640625-44.640624 44.640625-24.652344 0-44.640626-19.988281-44.636719-44.640625.023437-24.644531 19.996093-44.617187 44.636719-44.644531zm0 0"/><path d="m6 231.4375h168.800781c3.3125 0 6-2.6875 6-6 0-49.925781-40.472656-90.398438-90.402343-90.398438-49.925782 0-90.398438 40.472657-90.398438 90.398438 0 3.3125 2.6875 6 6 6zm84.398438-84.398438c40.957031.046876 74.992187 31.570313 78.171874 72.398438h-156.34375c3.183594-40.828125 37.21875-72.351562 78.171876-72.398438zm0 0"/><path d="m315.929688 395.703125c-.40625-2.546875-2.316407-4.597656-4.832032-5.179687-2.234375-.507813-4.507812-.832032-6.796875-.964844-15.277343-1.425782-28.988281-4.214844-28.988281-22.425782v-64.929687c-.019531-15.425781-12.519531-27.925781-27.945312-27.941406h-219.421876c-15.425781.015625-27.929687 12.515625-27.945312 27.941406v135.652344c.0195312 15.425781 12.519531 27.925781 27.945312 27.941406h219.425782c15.425781-.015625 27.925781-12.515625 27.941406-27.941406v-8.929688c-.03125-.738281.449219-1.40625 1.164062-1.605469 28.3125-5 37.125-23.566406 38.820313-27.90625.597656-1.140624.820313-2.4375.632813-3.710937zm-41.539063 19.800781c-6.464844 1.191406-11.136719 6.851563-11.078125 13.425782v8.929687c-.011719 8.796875-7.140625 15.925781-15.941406 15.9375h-219.425782c-8.800781-.007813-15.933593-7.140625-15.945312-15.941406v-135.652344c.011719-8.800781 7.140625-15.933594 15.945312-15.941406h219.425782c8.800781.007812 15.933594 7.140625 15.941406 15.941406v64.929687c0 28.511719 24.183594 32.757813 37.160156 34.109376-3.972656 5.078124-11.738281 11.726562-26.082031 14.261718zm0 0"/><path d="m464.054688 7.671875h-219.425782c-15.425781.019531-27.925781 12.519531-27.941406 27.945313v64.929687c0 18.207031-13.710938 21-28.988281 22.425781-2.289063.132813-4.5625.453125-6.800781.964844-2.515626.578125-4.429688 2.628906-4.835938 5.179688-.183594 1.273437.039062 2.570312.636719 3.707031 1.691406 4.34375 10.5 22.902343 38.820312 27.90625.714844.203125 1.195313.867187 1.160157 1.609375v8.929687c.019531 15.425781 12.519531 27.925781 27.945312 27.941407h219.429688c15.425781-.015626 27.925781-12.515626 27.945312-27.941407v-135.652343c-.019531-15.425782-12.519531-27.925782-27.945312-27.945313zm15.945312 163.597656c-.011719 8.800781-7.144531 15.933594-15.945312 15.941407h-219.425782c-8.800781-.007813-15.933594-7.140626-15.941406-15.941407v-8.929687c.058594-6.570313-4.613281-12.234375-11.074219-13.425782-14.359375-2.535156-22.125-9.191406-26.089843-14.257812 12.976562-1.347656 37.164062-5.597656 37.164062-34.109375v-64.929687c.007812-8.800782 7.140625-15.933594 15.941406-15.945313h219.425782c8.804687.011719 15.933593 7.144531 15.945312 15.945313zm0 0"/><path d="m271.167969 91.074219h92.46875c3.3125 0 6-2.6875 6-6s-2.6875-6-6-6h-92.46875c-3.3125 0-6 2.6875-6 6s2.6875 6 6 6zm0 0"/><path d="m435.746094 79.074219h-49.265625c-3.3125 0-6 2.6875-6 6s2.6875 6 6 6h49.265625c3.316406 0 6-2.6875 6-6s-2.683594-6-6-6zm0 0"/><path d="m271.167969 127.8125h26.652343c3.3125 0 6-2.6875 6-6s-2.6875-6-6-6h-26.652343c-3.3125 0-6 2.6875-6 6s2.6875 6 6 6zm0 0"/><path d="m435.746094 115.8125h-114.734375c-3.3125 0-6 2.6875-6 6s2.6875 6 6 6h114.734375c3.316406 0 6-2.6875 6-6s-2.683594-6-6-6zm0 0"/><path d="m352.859375 152.550781h-81.691406c-3.3125 0-6 2.6875-6 6s2.6875 6 6 6h81.691406c3.3125 0 6-2.6875 6-6s-2.6875-6-6-6zm0 0"/><path d="m435.746094 152.550781h-58.886719c-3.3125 0-6 2.6875-6 6s2.6875 6 6 6h58.886719c3.316406 0 6-2.6875 6-6s-2.683594-6-6-6zm0 0"/><path d="m271.167969 54.335938h57.09375c3.3125 0 6-2.6875 6-6 0-3.316407-2.6875-6-6-6h-57.09375c-3.3125 0-6 2.683593-6 6 0 3.3125 2.6875 6 6 6zm0 0"/><path d="m435.746094 42.335938h-84.183594c-3.3125 0-6 2.683593-6 6 0 3.3125 2.6875 6 6 6h84.183594c3.316406 0 6-2.6875 6-6 0-3.316407-2.683594-6-6-6zm0 0"/><path d="m102.140625 362.398438h-61.886719c-3.316406 0-6 2.683593-6 6 0 3.3125 2.683594 6 6 6h61.886719c3.3125 0 6-2.6875 6-6 0-3.316407-2.6875-6-6-6zm0 0"/><path d="m109.140625 325.660156h-68.886719c-3.316406 0-6 2.6875-6 6 0 3.316406 2.683594 6 6 6h68.886719c3.3125 0 6-2.683594 6-6 0-3.3125-2.6875-6-6-6zm0 0"/><path d="m102.140625 402.398438h-21.886719c-3.316406 0-6 2.683593-6 6 0 3.3125 2.683594 6 6 6h21.886719c3.3125 0 6-2.6875 6-6 0-3.316407-2.6875-6-6-6zm0 0"/><path d="m56.140625 402.398438h-15.886719c-3.316406 0-6 2.683593-6 6 0 3.3125 2.683594 6 6 6h15.886719c3.3125 0 6-2.6875 6-6 0-3.316407-2.6875-6-6-6zm0 0"/><path d="m228.898438 310.898438c-1.453126-1.136719-3.34375-1.542969-5.136719-1.101563l-67.769531 16.71875c-2.679688.660156-4.5625 3.0625-4.5625 5.824219v68.597656c-3.179688-1.429688-6.628907-2.164062-10.117188-2.15625-12.191406 0-22.113281 8.699219-22.113281 19.402344 0 10.699218 9.921875 19.398437 22.113281 19.398437 12.195312 0 22.117188-8.699219 22.117188-19.398437v-54.640625l55.769531-13.757813v22.234375c-3.179688-1.429687-6.628907-2.167969-10.113281-2.15625-12.195313 0-22.113282 8.699219-22.113282 19.398438s9.917969 19.398437 22.113282 19.398437c12.191406 0 22.113281-8.699218 22.113281-19.398437v-73.640625c0-1.84375-.847657-3.585938-2.300781-4.722656zm-87.582032 114.6875c-5.480468 0-10.113281-3.390626-10.113281-7.402344 0-4.007813 4.632813-7.398438 10.113281-7.398438 5.480469 0 10.113282 3.390625 10.113282 7.398438 0 4.011718-4.628907 7.402344-10.113282 7.402344zm67.769532-28.917969c-5.480469 0-10.113282-3.390625-10.113282-7.398438 0-4.011719 4.632813-7.402343 10.113282-7.402343 5.484374 0 10.117187 3.390624 10.117187 7.402343 0 4.007813-4.632813 7.398438-10.117187 7.398438zm10.113281-59.242188-55.769531 13.757813v-14.144532l55.769531-13.757812zm0 0"/></svg>