<?xml version="1.0" encoding="UTF-8"?>
<svg id="Layer_1" xmlns="http://www.w3.org/2000/svg" version="1.1" viewBox="0 0 424.9 79.2">
  <!-- Generator: Adobe Illustrator 29.8.0, SVG Export Plug-In . SVG Version: 2.1.1 Build 160)  -->
  <path d="M27.5,48.5c0-1.2.9-2.3,2.1-2.3s2,.9,2,2.1-.8,2.2-1.6,2.7h0c.2.3.9.4,1.3.4,5.2,0,4.9-4.6,4.9-8.6v-16.2c0-.9-.3-1.5-1.1-1.9s-2.1-.5-2.8-.6v-.2h10.6v.2c-.6,0-1.9.2-2.6.4-.9.3-1.2,1-1.2,1.9v17.3c0,3.3-2,8-7.4,8s-4.2-2.1-4.2-3.1h0Z"/>
  <path d="M47.4,50.2c.8-.5,1.7-1.6,2.2-3.1,2.4-6.5,5.6-15.8,8.4-23.7h.3c3.5,10.2,7.1,21.1,8.4,24.8.3.8.6,1.4,1.4,2,.6.4,1.4.6,2.1.7v.2h-10.2v-.2c1.2,0,3.7-.5,3.7-1.5s0-.7-.2-1l-2.5-7.6h-8.9c-.8,2.3-1.5,4.4-1.8,5.7-.2.9-.4,1.8-.4,2.3,0,1.4,2.6,2,4.2,2.1v.2h-9.1v-.2c.6,0,1.6-.3,2.3-.7h.1ZM61.1,40.5l-4.1-12.6-4.5,12.6h8.6Z"/>
  <path d="M89.8,44.7c-.4-2.9-1-7.4-5.1-7.4h-3.2v11.4c0,.9.3,1.6,1.1,1.9.5.2,1.9.3,2.5.4v.2h-10.1v-.2c.7,0,1.9-.2,2.4-.4.8-.3,1.1-1,1.1-1.9v-22.2c0-.9-.2-1.6-1.1-1.9-.6-.2-1.7-.4-2.3-.4v-.2h11.4c3,0,7.1,1.8,7.1,6.1s-4.1,6.4-7.4,7h0c2.9.3,5.4,1.5,6.1,4.3.6,2.2.7,4.3,1.2,6.2.4,1.6,1,2.3,1.9,2.3s2-.9,2-3.9v-.8h.2v.8c0,3.7-.9,5.6-3.7,5.6s-3.7-2.2-4.3-6.8h.2ZM90.2,30.6c0-4.7-2.3-6.4-5-6.4h-3.6v12.8h2.7c3.1,0,5.9-1.9,5.9-6.4Z"/>
  <path d="M105.9,50.6c.9-.3,1.1-1,1.1-1.9v-22.2c0-.9-.3-1.6-1.1-1.9-.8-.4-1.7-.5-2.4-.5v-.2h10.5c4.8,0,12.4,2.9,12.4,13.8s-6.4,13.4-13,13.4h-9.9v-.2c.7,0,2-.2,2.5-.4h0ZM123,37.7c0-8-3.7-13.5-10-13.5h-3v23.6c.3,2.3,1,3.1,3.8,3.1,6.5,0,9.2-5.5,9.2-13.1h0Z"/>
  <path d="M136.1,50.6c.8-.4,1.1-1,1.1-1.8v-22.2c0-.9-.2-1.5-1.1-1.9-.6-.2-1.8-.5-2.5-.6v-.2h10.1v.2c-.6,0-1.8.2-2.5.4-.9.3-1.1,1-1.1,1.8v22.2c0,.9.3,1.5,1.1,1.9.4.2,1.8.4,2.5.5v.2h-10.1v-.2c.6,0,2-.2,2.5-.4h0Z"/>
  <path d="M154.7,27.5v16.8c0,3.3.5,4.8,1.3,5.5.6.6,2.9,1.1,3.7,1.2v.2h-9.6v-.2c.7,0,2.6-.6,3.1-1,.8-.6,1.2-2,1.2-5.5v-15.7c0-1.4-.4-2.6-1.1-3.3-.8-.7-2.6-1.3-3.7-1.5h0c0-.1,6.2-.1,6.2-.1l15.5,22v-15.4c0-3.1-.4-4.8-1.2-5.4-.6-.5-2.7-1-3.7-1.1v-.2h9.5v.2c-.7,0-2.6.6-3.1.9-1,.6-1.2,2.5-1.2,5.3v21.1h-.2l-16.7-23.9h0Z"/>
  <path d="M196.1,50.4c.8-.4,1.1-.9,1.1-1.8v-22.1c0-.9-.3-1.6-1.1-1.9-.7-.3-1.6-.5-2.2-.6v-.2h10.9c3.1,0,6.8,1.3,6.8,5.5s-2.8,5.9-6.8,7.1h0c2.9.2,8,1.9,8,7.4s-4.4,7.1-8.4,7.1h-10.8v-.2c.6,0,2-.3,2.5-.5v.2ZM208.1,29.8c0-4.3-2.4-5.7-4.6-5.7h-3.3v12.4h2.7c4,0,5.2-3.3,5.2-6.7h0ZM209.3,43c0-3-1.7-6.2-5.6-6.2h-3.6v11.2c.3,2.2,1.2,2.8,3.5,2.8,4.8,0,5.6-4.7,5.6-7.8h.1Z"/>
  <path d="M223.7,47.9c-2.2-2.5-3.5-5.8-3.5-10.1s1.3-8.1,3.3-10.6c2.1-2.5,5-3.9,8.1-3.9s5.8,1.1,8.3,4c1.9,2.3,3.1,6.2,3.1,9.9s-.9,7.7-3.4,10.5c-2.1,2.3-4.7,3.8-8.2,3.8s-5.7-1.4-7.8-3.7h0ZM239.7,37.4c0-8.2-2.9-13.8-8-13.8s-8.1,5.2-8.1,14.2,2.5,13.6,8,13.6,8.1-6,8.1-13.9h0Z"/>
  <path d="M294.8,50.2c-.8-.6-1.2-1.2-1.4-2-1.3-3.7-4.9-14.6-8.4-24.8h-.3c-2.8,7.8-6,17.1-8.4,23.7-.5,1.5-1.4,2.6-2.2,3.1-.7.4-1.6.6-2.3.7h-7c-.6,0-2.3-.4-2.8-.6-.8-.4-1.1-1-1.1-1.9v-24.3h2.1c.9,0,2.2,0,3.1.2,1.5.2,3.3,4.9,3.7,6.7h.2v-7.1h-21.2v7.1h.2c.4-1.8,2.3-6.4,3.8-6.7.8-.1,2.4-.2,3.1-.2h2.1v24.4c0,.9-.3,1.6-1.1,1.9-.5.2-2.1.4-2.8.4v.2h26.8v-.2c-1.5,0-4.2-.6-4.2-2.1s.2-1.4.4-2.3c.3-1.3,1-3.4,1.8-5.7h8.9l2.5,7.6c.1.3.2.7.2,1,0,1-2.5,1.4-3.7,1.5v.2h10.2v-.2c-.7,0-1.5-.2-2.1-.7h-.1ZM279,40.5l4.5-12.6,4.1,12.6h-8.6Z"/>
  <path d="M338.5,26.3v22.2c0,.9.3,1.5,1.1,1.9.4.2,1.8.4,2.5.5v.2h-10.1v-.2c.6,0,2-.2,2.5-.4.8-.4,1.1-1,1.1-1.8v-22.2c0-.9-.2-1.5-1.1-1.9-.6-.2-1.8-.5-2.5-.6h-5.4c-.7,0-2.6.6-3.1.9-1,.6-1.2,2.5-1.2,5.3v21.1h-.2l-16.7-23.9v16.8c0,3.3.5,4.8,1.3,5.5.6.6,2.9,1.1,3.7,1.2v.2h-9.6v-.2c.7,0,2.6-.6,3.1-1,.8-.6,1.2-2,1.2-5.5v-15.7c0-1.4-.4-2.6-1.1-3.3-.8-.7-2.6-1.3-3.7-1.5h0c0-.1,6.2-.1,6.2-.1l15.5,22v-15.4c0-3.1-.4-4.8-1.2-5.4-.6-.5-2.7-1-3.7-1.1v-.2h25v.2c-.6,0-1.8.2-2.5.4-.9.3-1.1,1-1.1,1.8v.2Z"/>
  <path d="M349.2,37.8c0-8.7,5.1-14.4,11.6-14.4s4.3,1,5.8,2.5l1.1-2.5h.2l.2,9.7h-.2c-1.7-5.6-3.8-9.3-8.1-9.3s-7.2,4.1-7.2,13.8,3.6,13,8.3,13,6.4-3.2,7.8-6.6l.3.2c-1.2,3.5-3.7,7.4-8.9,7.4s-10.9-5.1-10.9-13.8h0Z"/>
  <path d="M373.9,50.2c.8-.5,1.7-1.6,2.2-3.1,2.4-6.5,5.6-15.8,8.4-23.7h.3c3.5,10.2,7.1,21.1,8.4,24.8.3.8.6,1.4,1.4,2,.6.4,1.4.6,2.1.7v.2h-10.2v-.2c1.2,0,3.7-.5,3.7-1.5s0-.7-.2-1l-2.5-7.6h-8.9c-.8,2.3-1.5,4.4-1.8,5.7-.2.9-.4,1.8-.4,2.3,0,1.4,2.6,2,4.2,2.1v.2h-9.1v-.2c.6,0,1.6-.3,2.3-.7h.1ZM387.6,40.5l-4.1-12.6-4.5,12.6h8.6Z"/>
</svg>