<svg id="Bahan_copy" height="512" viewBox="0 0 64 64" width="512" xmlns="http://www.w3.org/2000/svg" data-name="Bahan copy"><g fill="#535c4a"><path d="m53.88428 45.06152a24.08915 24.08915 0 0 1 -2.51028 1.20606v-5.05958c-.25879-8.33323-12.3605-8.33-12.62549.00013v6.70687q-1.08537-.1454-2.13916-.38458v-6.79019a6.27249 6.27249 0 0 0 -1.8462-4.46582c-3.63869-3.80891-10.43711-1.28434-10.744 3.94518-6.92729-7.17254-8.53815-19.54453-3.36461-28.38859a1.00561 1.00561 0 0 0 -1.36062-1.36027 26.47036 26.47036 0 0 0 -13.57859 23.09861c.281 27.194 36.08922 36.45455 49.52985 12.85221a1.00556 1.00556 0 0 0 -1.3609-1.36003zm-13.13574-3.85352a4.33111 4.33111 0 0 1 7.35946-3.03991 4.25 4.25 0 0 1 1.266 3.03991v5.7887a24.47923 24.47923 0 0 1 -8.62549 1.10986zm-10.45215-4.78027a4.3242 4.3242 0 0 1 4.313 4.31254v6.25064a24.41987 24.41987 0 0 1 -8.6167-4.85614v-1.39454a4.313 4.313 0 0 1 4.3037-4.3125zm1.84961 21.57227a24.43114 24.43114 0 0 1 -14.76758-43.89355c-5.85834 14.48513 2.964 31.39864 17.84142 35.14458a26.507 26.507 0 0 0 15.5705-.61738c.27381-.09624.548-.19151.81855-.29674a24.46907 24.46907 0 0 1 -19.46289 9.66309z"/><path d="m25.20947 27.55078c.21434 6.7277 9.96929 6.72613 10.18262-.00011-.21409-6.72895-9.96956-6.72738-10.18262.00011zm8.18262 0a3.09151 3.09151 0 0 1 -6.18262-.00009 3.09151 3.09151 0 0 1 6.18262.00009z"/><path d="m39.96973 27.55078c.21434 6.7277 9.96928 6.72613 10.18262-.00011-.21407-6.72895-9.96957-6.72738-10.18262.00011zm5.09127-3.09178a3.0915 3.0915 0 0 1 -.0001 6.18262 3.0915 3.0915 0 0 1 .0001-6.18262z"/><path d="m26.45947 20.22168a1.54323 1.54323 0 0 0 2.17481 0c2.82422-2.832 2.86523-2.88768 2.90088-2.9365a3.275 3.275 0 0 0 -3.9878-4.97559 3.3406 3.3406 0 0 0 -3.73.6416 3.26484 3.26484 0 0 0 -.27978 4.30567c.05666.07714.09767.13279 2.92189 2.96482zm-1.22558-5.8584a1.28129 1.28129 0 0 1 1.689-.10057 1.00091 1.00091 0 0 0 1.24414.00292 1.2803 1.2803 0 0 1 1.83589 1.7354c-.12837.13862-1.46089 1.47944-2.456 2.47846-.99512-.998-2.32374-2.335-2.417-2.43164a1.27309 1.27309 0 0 1 .10397-1.68457z"/><path d="m57.32275 15.08691a3.27842 3.27842 0 0 0 -3.72509-.63964 3.28438 3.28438 0 0 0 -4.00966 4.94733c.05655.07708.09757.13274 2.92227 2.96575a1.54337 1.54337 0 0 0 2.17432-.001c2.82422-2.832 2.86523-2.88768 2.90088-2.93651a3.28424 3.28424 0 0 0 -.26272-4.33593zm-1.26953 3.05176c-.12842.13867-1.46093 1.48047-2.45605 2.47852-.99512-.998-2.32373-2.334-2.41651-2.43164a1.277 1.277 0 0 1 1.79253-1.78511 1.00088 1.00088 0 0 0 1.2441.00288 1.28031 1.28031 0 0 1 1.83593 1.73535z"/><path d="m38.89355 12.23242a1.54337 1.54337 0 0 0 2.17432-.001c2.82422-2.832 2.86524-2.88768 2.90088-2.93651a3.27488 3.27488 0 0 0 -3.98775-4.97557 3.3362 3.3362 0 0 0 -3.73.6416 3.26586 3.26586 0 0 0 -.27979 4.30566c.05662.07715.09764.13281 2.92234 2.96582zm-1.22555-5.86035a1.28161 1.28161 0 0 1 1.68848-.0996 1.00088 1.00088 0 0 0 1.24414.00292 1.28029 1.28029 0 0 1 1.83585 1.73541c-.12836.13861-1.46088 1.48041-2.456 2.47846-.99512-.998-2.32373-2.334-2.41651-2.43164a1.2733 1.2733 0 0 1 .10404-1.68555z"/></g></svg>