<?xml version="1.0" standalone="no"?>
<!DOCTYPE svg PUBLIC "-//W3C//DTD SVG 1.1//EN" "http://www.w3.org/Graphics/SVG/1.1/DTD/svg11.dtd" >
<svg xmlns="http://www.w3.org/2000/svg" xmlns:xlink="http://www.w3.org/1999/xlink" version="1.1">
<metadata>
Created by FontForge 20230101 at Mon Jun  6 21:26:10 2016
 By Unknown
2015 published by Monotype GmbH
</metadata>
<defs>
<font id="DINArabic-Bold" horiz-adv-x="543" >
  <font-face 
    font-family="DINArabic-Bold"
    font-weight="400"
    font-stretch="normal"
    units-per-em="1000"
    panose-1="2 11 8 4 2 2 1 1 1 4"
    ascent="785"
    descent="-215"
    x-height="521"
    cap-height="712"
    bbox="-201 -559 1841 1193"
    underline-thickness="87"
    underline-position="-133"
    unicode-range="U+000D-FEFF"
  />
<missing-glyph horiz-adv-x="573" 
d="M500 712v-712h-427v712h427zM414 625h-255v-538h255v538z" />
    <glyph glyph-name="allahar" unicode="&#x627;&#xfedf;&#xfee0;&#xfeea;" horiz-adv-x="1407" arabic-form="isolated" 
d="M872 125h6q54 0 73 26q17 23 17 100v461h125v-468q0 -115 -33 -166q-47 -78 -156 -78h-58q-112 0 -150 73q-40 -73 -124 -73h-45q-128 0 -170 90q-43 -54 -136 -54q-84 0 -134 51t-50 137q0 128 99 179q54 28 160 28h41v32h125v-231q0 -58 23 -82.5t67 -24.5h3
q50 0 72 24t22 78v321h125v-321q0 -51 20 -76.5t78 -25.5zM1218 0v712h125v-712h-125zM771 740l51 10v-76q0 -39 -18.5 -59t-48.5 -20q-29 0 -46 16q-18 -31 -59 -31q-27 0 -44 17.5t-17 49.5v63l50 9v-65q0 -24 21 -24q22 0 22 24v72l50 8v-65q0 -24 19 -24q20 0 20 24v71z
M337 260v48h-44q-67 0 -94 -15q-36 -20 -36 -66q0 -36 22 -54.5t60 -18.5q47 0 72 26q20 22 20 80zM733 778l-58 -10v151l58 10v-151z" />
    <glyph glyph-name="lam_alefMaddaar" unicode="&#xfedf;&#xfe82;" arabic-form="isolated" 
d="M406 337l32 -36q36 -42 53.5 -75t17.5 -73q0 -73 -48.5 -113t-131.5 -40h-289v98l194 213l-165 189l95 79l147 -180q43 58 43 136v177h120v-178q0 -66 -15.5 -109t-52.5 -88zM212 118h100q35 0 51.5 10t16.5 34q0 30 -39 74l-13 15zM199 696l33 -42q-33 -57 -89 -57
q-33 0 -61 24q-20 18 -35 18q-22 0 -42 -28l-32 47q36 52 85 52q32 0 57 -23q21 -19 41 -19q25 0 43 28z" />
    <glyph glyph-name="lam_alefMaddaar.fina" unicode="&#xfee0;&#xfe82;" horiz-adv-x="624" arabic-form="final" 
d="M621 125h23v-125h-56q-113 0 -154 75q-41 -75 -140 -75h-258v125h161l-108 408l124 25l108 -429q67 18 67 96v487h125v-486q0 -101 108 -101zM239 696l33 -42q-33 -57 -89 -57q-33 0 -61 24q-20 18 -35 18q-22 0 -42 -28l-32 47q36 52 85 52q32 0 57 -23q21 -19 41 -19
q25 0 43 28z" />
    <glyph glyph-name="lam_alefHamzaabovear" unicode="&#xfedf;&#xfe84;" arabic-form="isolated" 
d="M406 337l32 -36q36 -42 53.5 -75t17.5 -73q0 -73 -48.5 -113t-131.5 -40h-289v98l194 213l-165 189l95 79l147 -180q43 58 43 136v177h120v-178q0 -66 -15.5 -109t-52.5 -88zM212 118h100q35 0 51.5 10t16.5 34q0 30 -39 74l-13 15zM171 664l50 8v-54l-233 -41v54l72 13
q-38 30 -38 77q0 42 25.5 65.5t67.5 23.5q38 0 64 -20l-24 -48q-17 12 -34 12q-19 0 -30 -11.5t-11 -31.5q0 -28 23.5 -41.5t67.5 -5.5z" />
    <glyph glyph-name="lam_alefHamzaabovear.fina" unicode="&#xfee0;&#xfe84;" horiz-adv-x="624" arabic-form="final" 
d="M621 125h23v-125h-56q-113 0 -154 75q-41 -75 -140 -75h-258v125h161l-108 408l124 25l108 -429q67 18 67 96v487h125v-486q0 -101 108 -101zM211 664l50 8v-54l-233 -41v54l72 13q-38 30 -38 77q0 42 25.5 65.5t67.5 23.5q38 0 64 -20l-24 -48q-17 12 -34 12
q-19 0 -30 -11.5t-11 -31.5q0 -28 23.5 -41.5t67.5 -5.5z" />
    <glyph glyph-name="lam_alefHamzabelowar" unicode="&#xfedf;&#xfe88;" arabic-form="isolated" 
d="M418 352l42 -58q49 -68 49 -138q0 -75 -48.5 -115.5t-130.5 -40.5h-290v98l207 228l-197 249l99 78l174 -235q31 49 31 117v177h121v-190q0 -95 -57 -170zM212 118h97q38 0 55 10t17 34q0 27 -31 75l-15 22zM229 -212l50 8v-54l-233 -41v54l72 13q-38 30 -38 77
q0 42 25.5 65.5t67.5 23.5q38 0 64 -20l-24 -48q-17 12 -34 12q-19 0 -30 -11.5t-11 -31.5q0 -28 23.5 -41.5t67.5 -5.5z" />
    <glyph glyph-name="lam_alefHamzabelowar.fina" unicode="&#xfee0;&#xfe88;" horiz-adv-x="624" arabic-form="final" 
d="M621 125h23v-125h-56q-113 0 -154 75q-41 -75 -140 -75h-258v125h162l-120 494l126 24l118 -513q66 18 66 95v487h125v-486q0 -101 108 -101zM258 -206l50 8v-54l-233 -41v54l72 13q-38 30 -38 77q0 42 25.5 65.5t67.5 23.5q38 0 64 -20l-24 -48q-17 12 -34 12
q-19 0 -30 -11.5t-11 -31.5q0 -28 23.5 -41.5t67.5 -5.5z" />
    <glyph glyph-name="lam_alefar" unicode="&#xfedf;&#xfe8e;" arabic-form="isolated" 
d="M418 352l42 -58q49 -68 49 -138q0 -75 -48.5 -115.5t-130.5 -40.5h-290v98l207 228l-197 249l99 78l174 -235q31 49 31 117v177h121v-190q0 -95 -57 -170zM212 118h97q38 0 55 10t17 34q0 27 -31 75l-15 22z" />
    <glyph glyph-name="lam_alefar.fina" unicode="&#xfee0;&#xfe8e;" horiz-adv-x="624" arabic-form="final" 
d="M621 125h23v-125h-56q-113 0 -154 75q-41 -75 -140 -75h-258v125h162l-120 494l126 24l118 -513q66 18 66 95v487h125v-486q0 -101 108 -101z" />
    <glyph glyph-name="lam_alefWaslaar.fina" unicode="&#xfee0;&#xfb51;" horiz-adv-x="624" 
d="M621 125h23v-125h-56q-113 0 -154 75q-41 -75 -140 -75h-258v125h161l-108 408l124 25l108 -429q67 18 67 96v487h125v-486q0 -101 108 -101zM184 779q34 0 55 -20t21 -55q0 -43 -27 -66.5t-87 -34.5l-112 -21v53l35 6q1 63 31.5 100.5t83.5 37.5zM121 650l41 8
q43 8 43 38q0 29 -28 29q-24 0 -39 -20.5t-17 -54.5z" />
    <glyph glyph-name="lam_alefWaslaar" unicode="&#xfedf;&#xfb51;" 
d="M406 337l32 -36q36 -42 53.5 -75t17.5 -73q0 -73 -48.5 -113t-131.5 -40h-289v98l194 213l-165 189l95 79l147 -180q43 58 43 136v177h120v-178q0 -66 -15.5 -109t-52.5 -88zM212 118h100q35 0 51.5 10t16.5 34q0 30 -39 74l-13 15zM144 779q34 0 55 -20t21 -55
q0 -43 -27 -66.5t-87 -34.5l-112 -21v53l35 6q1 63 31.5 100.5t83.5 37.5zM81 650l41 8q43 8 43 38q0 29 -28 29q-24 0 -39 -20.5t-17 -54.5z" />
    <glyph glyph-name="hamzaar" unicode="&#x621;" horiz-adv-x="443" arabic-form="isolated" 
d="M290 139l119 12v-125l-375 -36v125l94 9q-66 40 -66 121q0 69 48.5 112t131.5 43q85 0 153 -60l-55 -91q-39 31 -85 31q-38 0 -57.5 -18t-19.5 -50q0 -38 29.5 -58t82.5 -15z" />
    <glyph glyph-name="alefMaddaar" unicode="&#x622;" horiz-adv-x="253" arabic-form="isolated" 
d="M64 0v548h125v-548h-125zM215 696l33 -42q-33 -57 -89 -57q-33 0 -61 24q-20 18 -35 18q-22 0 -42 -28l-32 47q36 52 85 52q32 0 57 -23q21 -19 41 -19q25 0 43 28z" />
    <glyph glyph-name="alefHamzaabovear" unicode="&#x623;" horiz-adv-x="253" arabic-form="isolated" 
d="M64 0v548h125v-548h-125zM187 664l50 8v-54l-233 -41v54l72 13q-38 30 -38 77q0 42 25.5 65.5t67.5 23.5q38 0 64 -20l-24 -48q-17 12 -34 12q-19 0 -30 -11.5t-11 -31.5q0 -28 23.5 -41.5t67.5 -5.5z" />
    <glyph glyph-name="wawHamzaabovear" unicode="&#x624;" horiz-adv-x="513" arabic-form="isolated" 
d="M262 441q207 0 207 -277q0 -192 -91.5 -287t-289.5 -113l-19 120q116 16 174.5 48.5t79.5 99.5q-35 -22 -87 -22q-87 0 -139.5 53.5t-52.5 153.5q0 105 58 164.5t160 59.5zM257 117q40 0 63 24.5t23 71.5t-23.5 74.5t-63.5 27.5t-63.5 -27t-23.5 -73q0 -45 22.5 -71.5
t65.5 -26.5zM329 571l50 8v-54l-233 -41v54l72 13q-38 30 -38 77q0 42 25.5 65.5t67.5 23.5q38 0 64 -20l-24 -48q-17 12 -34 12q-19 0 -30 -11.5t-11 -31.5q0 -28 23.5 -41.5t67.5 -5.5z" />
    <glyph glyph-name="alefHamzabelowar" unicode="&#x625;" horiz-adv-x="253" arabic-form="isolated" 
d="M64 0v712h125v-712h-125zM194 -202l50 8v-54l-233 -41v54l72 13q-38 30 -38 77q0 42 25.5 65.5t67.5 23.5q38 0 64 -20l-24 -48q-17 12 -34 12q-19 0 -30 -11.5t-11 -31.5q0 -28 23.5 -41.5t67.5 -5.5z" />
    <glyph glyph-name="yehHamzaabovear" unicode="&#x626;" horiz-adv-x="866" arabic-form="isolated" 
d="M788 490l-56 -92q-38 39 -99 39h-40q-83 0 -83 -92v-67h111q97 0 152.5 -51t55.5 -156q0 -103 -57 -156t-156 -53h-340q-68 0 -116.5 19.5t-74 54.5t-36.5 74t-11 86v81h122v-65q0 -63 31.5 -97t108.5 -34h315q89 0 89 88q0 90 -89 90h-222v194q0 93 55 148t147 55h30
q107 0 163 -66zM267 319l50 8v-54l-233 -41v54l72 13q-38 30 -38 77q0 42 25.5 65.5t67.5 23.5q38 0 64 -20l-24 -48q-17 12 -34 12q-19 0 -30 -11.5t-11 -31.5q0 -28 23.5 -41.5t67.5 -5.5z" />
    <glyph glyph-name="alefar" unicode="&#x627;" horiz-adv-x="253" arabic-form="isolated" 
d="M64 0v712h125v-712h-125z" />
    <glyph glyph-name="behar" unicode="&#x628;" horiz-adv-x="833" arabic-form="isolated" 
d="M785 365v-143q0 -100 -58 -161t-172 -61h-232q-275 0 -275 256v109h122v-101q0 -67 33.5 -103t116.5 -36h230q110 0 110 103v137h125zM358 -61h127v-126h-127v126z" />
    <glyph glyph-name="tehMarbutaar" unicode="&#x629;" horiz-adv-x="515" arabic-form="isolated" 
d="M399 390q75 -57 75 -173q0 -103 -60.5 -163t-157.5 -60q-96 0 -152.5 53t-56.5 143q0 71 37 121h-40v120h193q108 0 162 -41zM259 113q43 0 66 27t23 70q0 44 -23.5 70.5t-65.5 26.5t-65.5 -27t-23.5 -70t24 -70t65 -27zM105 635h127v-126h-127v126zM279 635h127v-126
h-127v126z" />
    <glyph glyph-name="tehar" unicode="&#x62a;" horiz-adv-x="833" arabic-form="isolated" 
d="M785 365v-143q0 -100 -58 -161t-172 -61h-232q-275 0 -275 256v109h122v-101q0 -67 33.5 -103t116.5 -36h230q110 0 110 103v137h125zM271 577h127v-126h-127v126zM445 577h127v-126h-127v126z" />
    <glyph glyph-name="thehar" unicode="&#x62b;" horiz-adv-x="833" arabic-form="isolated" 
d="M785 365v-143q0 -100 -58 -161t-172 -61h-232q-275 0 -275 256v109h122v-101q0 -67 33.5 -103t116.5 -36h230q110 0 110 103v137h125zM274 577h127v-126h-127v126zM442 577h127v-126h-127v126zM358 739h127v-126h-127v126z" />
    <glyph glyph-name="jeemar" unicode="&#x62c;" horiz-adv-x="562" arabic-form="isolated" 
d="M490 -109l61 -95q-98 -88 -232 -88q-127 0 -206 64.5t-79 192.5t82.5 204.5t225.5 80.5q-11 5 -22 15l-28 23q-42 33 -81 33q-54 0 -92 -40l-59 85q66 75 157 75q79 0 142 -58l65 -59q47 -44 95 -44h14v-147h-170q-98 0 -150.5 -40.5t-52.5 -116.5q0 -69 44 -107t120 -38
q93 0 166 60zM266 41h127v-126h-127v126z" />
    <glyph glyph-name="hahar" unicode="&#x62d;" horiz-adv-x="562" arabic-form="isolated" 
d="M490 -109l61 -95q-98 -88 -232 -88q-127 0 -206 64.5t-79 192.5t82.5 204.5t225.5 80.5q-11 5 -22 15l-28 23q-42 33 -81 33q-54 0 -92 -40l-59 85q66 75 157 75q79 0 142 -58l65 -59q47 -44 95 -44h14v-147h-170q-98 0 -150.5 -40.5t-52.5 -116.5q0 -69 44 -107t120 -38
q93 0 166 60z" />
    <glyph glyph-name="khahar" unicode="&#x62e;" horiz-adv-x="562" arabic-form="isolated" 
d="M490 -109l61 -95q-98 -88 -232 -88q-127 0 -206 64.5t-79 192.5t82.5 204.5t225.5 80.5q-11 5 -22 15l-28 23q-42 33 -81 33q-54 0 -92 -40l-59 85q66 75 157 75q79 0 142 -58l65 -59q47 -44 95 -44h14v-147h-170q-98 0 -150.5 -40.5t-52.5 -116.5q0 -69 44 -107t120 -38
q93 0 166 60zM154 642h127v-126h-127v126z" />
    <glyph glyph-name="dalar" unicode="&#x62f;" horiz-adv-x="550" arabic-form="isolated" 
d="M344 0h-149q-59 0 -99 16.5t-76 55.5l83 96q34 -43 99 -43h121q61 0 61 46q0 26 -17 63l-84 180l117 52l85 -186q30 -65 30 -120q0 -80 -50.5 -120t-120.5 -40z" />
    <glyph glyph-name="thalar" unicode="&#x630;" horiz-adv-x="550" arabic-form="isolated" 
d="M344 0h-149q-59 0 -99 16.5t-76 55.5l83 96q34 -43 99 -43h121q61 0 61 46q0 26 -17 63l-84 180l117 52l85 -186q30 -65 30 -120q0 -80 -50.5 -120t-120.5 -40zM266 648h127v-126h-127v126z" />
    <glyph glyph-name="rehar" unicode="&#x631;" horiz-adv-x="351" arabic-form="isolated" 
d="M300 365v-293q0 -132 -56 -203t-174 -105l-41 119q82 21 114 61t32 135v286h125z" />
    <glyph glyph-name="zainar" unicode="&#x632;" horiz-adv-x="351" arabic-form="isolated" 
d="M300 365v-293q0 -132 -56 -203t-174 -105l-41 119q82 21 114 61t32 135v286h125zM175 578h127v-126h-127v126z" />
    <glyph glyph-name="seenar" unicode="&#x633;" horiz-adv-x="1142" arabic-form="isolated" 
d="M972 365h122v-172q0 -102 -52 -151t-129 -49q-92 0 -129 63q-32 -63 -107 -63q-48 0 -78 28q-19 -99 -87.5 -157.5t-186.5 -58.5q-142 0 -211.5 81t-69.5 211v129h125v-117q0 -82 40.5 -130.5t117.5 -48.5t115.5 48t38.5 131v179h125v-99q0 -71 62 -71q58 0 58 71v139
h125v-138q0 -72 61 -72q60 0 60 72v175z" />
    <glyph glyph-name="sheenar" unicode="&#x634;" horiz-adv-x="1142" arabic-form="isolated" 
d="M972 365h122v-172q0 -102 -52 -151t-129 -49q-92 0 -129 63q-32 -63 -107 -63q-48 0 -78 28q-19 -99 -87.5 -157.5t-186.5 -58.5q-142 0 -211.5 81t-69.5 211v129h125v-117q0 -82 40.5 -130.5t117.5 -48.5t115.5 48t38.5 131v179h125v-99q0 -71 62 -71q58 0 58 71v139
h125v-138q0 -72 61 -72q60 0 60 72v175zM642 532h127v-126h-127v126zM810 532h127v-126h-127v126zM726 694h127v-126h-127v126z" />
    <glyph glyph-name="sadar" unicode="&#x635;" horiz-adv-x="1221" arabic-form="isolated" 
d="M968 441q100 0 159.5 -57t59.5 -158q0 -106 -64.5 -166t-174.5 -60h-154v-64h-116v65q-47 5 -76 38q-15 -106 -84 -170t-193 -64q-142 0 -211.5 81t-69.5 211v129h125v-117q0 -82 40.5 -130.5t117.5 -48.5t115.5 48t38.5 131v179h125v-77q0 -46 15 -65.5t54 -20.5
q4 79 30 141t67 99.5t91 56.5t105 19zM799 125h149q56 0 85 25t29 71q0 44 -27 70t-76 26q-69 0 -113 -49t-47 -143z" />
    <glyph glyph-name="dadar" unicode="&#x636;" horiz-adv-x="1221" arabic-form="isolated" 
d="M968 441q100 0 159.5 -57t59.5 -158q0 -106 -64.5 -166t-174.5 -60h-154v-64h-116v65q-47 5 -76 38q-15 -106 -84 -170t-193 -64q-142 0 -211.5 81t-69.5 211v129h125v-117q0 -82 40.5 -130.5t117.5 -48.5t115.5 48t38.5 131v179h125v-77q0 -46 15 -65.5t54 -20.5
q4 79 30 141t67 99.5t91 56.5t105 19zM799 125h149q56 0 85 25t29 71q0 44 -27 70t-76 26q-69 0 -113 -49t-47 -143zM903 636h127v-126h-127v126z" />
    <glyph glyph-name="tahar" unicode="&#x637;" horiz-adv-x="698" arabic-form="isolated" 
d="M452 441q94 0 149.5 -56.5t55.5 -155.5q0 -106 -67 -167.5t-181 -61.5h-375v125h97v587h125v-378q30 52 81 79.5t115 27.5zM245 125h170q56 0 86.5 25t30.5 71q0 45 -28.5 69.5t-75.5 24.5q-67 0 -119 -46.5t-64 -143.5z" />
    <glyph glyph-name="zahar" unicode="&#x638;" horiz-adv-x="698" arabic-form="isolated" 
d="M452 441q94 0 149.5 -56.5t55.5 -155.5q0 -106 -67 -167.5t-181 -61.5h-375v125h97v587h125v-378q30 52 81 79.5t115 27.5zM245 125h170q56 0 86.5 25t30.5 71q0 45 -28.5 69.5t-75.5 24.5q-67 0 -119 -46.5t-64 -143.5zM398 636h127v-126h-127v126z" />
    <glyph glyph-name="ainar" unicode="&#x639;" horiz-adv-x="524" arabic-form="isolated" 
d="M464 -111l59 -97q-90 -85 -234 -85q-120 0 -192.5 61.5t-72.5 180.5q0 168 137 228q-67 60 -67 156q0 89 53.5 140.5t142.5 51.5q86 0 149 -52l-50 -97q-37 27 -82 27q-41 0 -66 -23.5t-25 -66.5q0 -38 24 -65q32 -35 111 -35h112v-119h-143q-167 0 -167 -136
q0 -128 145 -128q95 0 166 59z" />
    <glyph glyph-name="ghainar" unicode="&#x63a;" horiz-adv-x="524" arabic-form="isolated" 
d="M464 -111l59 -97q-90 -85 -234 -85q-120 0 -192.5 61.5t-72.5 180.5q0 168 137 228q-67 60 -67 156q0 89 53.5 140.5t142.5 51.5q86 0 149 -52l-50 -97q-37 27 -82 27q-41 0 -66 -23.5t-25 -66.5q0 -38 24 -65q32 -35 111 -35h112v-119h-143q-167 0 -167 -136
q0 -128 145 -128q95 0 166 59zM226 720h127v-126h-127v126z" />
    <glyph glyph-name="fehar" unicode="&#x641;" horiz-adv-x="961" arabic-form="isolated" 
d="M697 587q103 0 158.5 -62t55.5 -180v-75q0 -127 -66.5 -198.5t-181.5 -71.5h-341q-146 0 -208 69.5t-62 181.5v114h119v-106q0 -134 159 -134h330q60 0 88.5 23t33.5 67q-41 -44 -116 -44q-85 0 -134.5 52t-49.5 146q0 100 57.5 159t157.5 59zM697 275q42 0 66 24.5
t24 71.5t-24.5 72.5t-65.5 25.5q-42 0 -66.5 -26t-24.5 -72q0 -44 23.5 -70t67.5 -26zM634 781h127v-126h-127v126z" />
    <glyph glyph-name="qafar" unicode="&#x642;" horiz-adv-x="854" arabic-form="isolated" 
d="M591 441q209 0 209 -242v-133q0 -129 -66.5 -194.5t-188.5 -65.5h-237q-141 0 -205.5 69.5t-64.5 181.5v97h119v-88q0 -135 159 -135h246q60 0 85 27.5t26 85.5q-37 -40 -112 -40q-87 0 -136 54.5t-49 152.5q0 106 57 168t158 62zM587 118q41 0 64 24.5t23 73.5
q0 48 -23 74t-64 26t-64 -26.5t-23 -73.5q0 -46 22 -72t65 -26zM441 643h127v-126h-127v126zM615 643h127v-126h-127v126z" />
    <glyph glyph-name="kafar" unicode="&#x643;" horiz-adv-x="833" arabic-form="isolated" 
d="M785 712v-490q0 -100 -58 -161t-172 -61h-232q-275 0 -275 256v109h122v-101q0 -67 33.5 -103t116.5 -36h230q110 0 110 103v484h125zM469 365v18q0 32 -35 32h-96v49l60 107h71l-53 -94h29q42 0 66.5 -25.5t24.5 -70.5v-79h-222v63h155z" />
    <glyph glyph-name="lamar" unicode="&#x644;" horiz-adv-x="635" arabic-form="isolated" 
d="M308 -71q78 0 108 40.5t30 126.5v539h123v-545q0 -286 -264 -286q-138 0 -200.5 74t-62.5 203v65h124v-57q0 -160 142 -160z" />
    <glyph glyph-name="meemar" unicode="&#x645;" horiz-adv-x="675" arabic-form="isolated" 
d="M430 362q91 0 147 -56t56 -157q0 -91 -53 -153t-159 -62q-80 0 -131 41t-65 115q-60 0 -60 -72v-254h-125v255q0 95 45.5 146t135.5 51h7q17 72 69 109t133 37zM425 52q86 0 86 94t-85 94q-43 0 -64 -26t-21 -68q0 -94 84 -94z" />
    <glyph glyph-name="noonar" unicode="&#x646;" horiz-adv-x="650" arabic-form="isolated" 
d="M327 -70q77 0 115.5 48t38.5 131v256h125v-266q0 -130 -70 -212t-211 -82q-142 0 -211.5 81t-69.5 211v268h125v-256q0 -82 40.5 -130.5t117.5 -48.5zM262 570h127v-126h-127v126z" />
    <glyph glyph-name="hehar" unicode="&#x647;" horiz-adv-x="515" arabic-form="isolated" 
d="M399 390q75 -57 75 -173q0 -103 -60.5 -163t-157.5 -60q-96 0 -152.5 53t-56.5 143q0 71 37 121h-40v120h193q108 0 162 -41zM259 113q43 0 66 27t23 70q0 44 -23.5 70.5t-65.5 26.5t-65.5 -27t-23.5 -70t24 -70t65 -27z" />
    <glyph glyph-name="wawar" unicode="&#x648;" horiz-adv-x="513" arabic-form="isolated" 
d="M262 441q207 0 207 -277q0 -192 -91.5 -287t-289.5 -113l-19 120q116 16 174.5 48.5t79.5 99.5q-35 -22 -87 -22q-87 0 -139.5 53.5t-52.5 153.5q0 105 58 164.5t160 59.5zM257 117q40 0 63 24.5t23 71.5t-23.5 74.5t-63.5 27.5t-63.5 -27t-23.5 -73q0 -45 22.5 -71.5
t65.5 -26.5z" />
    <glyph glyph-name="alefMaksuraar" unicode="&#x649;" horiz-adv-x="866" arabic-form="isolated" 
d="M788 490l-56 -92q-38 39 -99 39h-40q-83 0 -83 -92v-67h111q97 0 152.5 -51t55.5 -156q0 -103 -57 -156t-156 -53h-340q-68 0 -116.5 19.5t-74 54.5t-36.5 74t-11 86v81h122v-65q0 -63 31.5 -97t108.5 -34h315q89 0 89 88q0 90 -89 90h-222v194q0 93 55 148t147 55h30
q107 0 163 -66z" />
    <glyph glyph-name="yehar" unicode="&#x64a;" horiz-adv-x="866" arabic-form="isolated" 
d="M788 490l-56 -92q-38 39 -99 39h-40q-83 0 -83 -92v-67h111q97 0 152.5 -51t55.5 -156q0 -103 -57 -156t-156 -53h-340q-68 0 -116.5 19.5t-74 54.5t-36.5 74t-11 86v81h122v-65q0 -63 31.5 -97t108.5 -34h315q89 0 89 88q0 90 -89 90h-222v194q0 93 55 148t147 55h30
q107 0 163 -66zM310 -193h127v-126h-127v126zM484 -193h127v-126h-127v126z" />
    <glyph glyph-name="dotlessbehar.init" unicode="&#x66e;" horiz-adv-x="288" 
d="M-20 0v125h31q50 0 72 22.5t22 73.5v144h125v-153q0 -103 -54 -157.5t-153 -54.5h-43z" />
    <glyph glyph-name="dotlessbehar.medi" unicode="&#x66e;" horiz-adv-x="332" 
d="M326 125h26v-125h-67q-96 0 -135 71q-39 -71 -124 -71h-46v125h25q53 0 75.5 23t22.5 77v140h125v-139q0 -50 20 -75.5t78 -25.5z" />
    <glyph glyph-name="dotlessbehar.fina" unicode="&#x66e;" horiz-adv-x="890" 
d="M884 125h26v-125h-64q-101 0 -140 72q-42 -72 -158 -72h-225q-275 0 -275 256v109h122v-101q0 -65 34 -102t116 -37h239q56 0 78.5 25t22.5 76v139h125v-138q0 -51 21 -76.5t78 -25.5z" />
    <glyph glyph-name="dotlessqafar.fina" unicode="&#x66f;" horiz-adv-x="873" 
d="M893 125v-125h-101q-34 -195 -241 -195h-243q-141 0 -205.5 69.5t-64.5 182.5v97h119v-88q0 -136 159 -136h243q88 0 109 71h-54q-143 0 -198 75q-40 54 -40 138q0 103 57 165t157 62q88 0 141 -44q68 -56 68 -212v-60h94zM521 156q26 -32 96 -32h57v56q0 92 -30 120
q-21 20 -56 20q-40 0 -63.5 -26.5t-23.5 -72.5q0 -40 20 -65z" />
    <glyph glyph-name="alefWaslaar" unicode="&#x671;" horiz-adv-x="253" arabic-form="isolated" 
d="M64 0v548h125v-548h-125zM160 779q34 0 55 -20t21 -55q0 -43 -27 -66.5t-87 -34.5l-112 -21v53l35 6q1 63 31.5 100.5t83.5 37.5zM97 650l41 8q43 8 43 38q0 29 -28 29q-24 0 -39 -20.5t-17 -54.5z" />
    <glyph glyph-name="alefWavyhamzaabovear.fina" unicode="&#x672;" horiz-adv-x="288" 
d="M308 0h-46q-118 0 -168 85q-30 51 -30 159v304h125v-297q0 -66 18 -92q23 -34 81 -34h20v-125zM196 665l39 7v-54l-121 -22q-30 -5 -48 -5q-62 0 -101 45l33 41q27 -34 70 -34q13 0 19 1q-40 30 -40 78q0 42 26 66t68 24q36 0 63 -21l-24 -47q-16 11 -33 11
q-41 0 -41 -42q0 -23 15.5 -37t46.5 -14q13 0 28 3z" />
    <glyph glyph-name="alefWavyhamzabelowar.fina" unicode="&#x673;" horiz-adv-x="288" 
d="M308 0h-46q-118 0 -166 83q-32 56 -32 161v468h125v-461q0 -66 18 -92q23 -34 81 -34h20v-125zM240 -202l39 7v-54l-121 -22q-30 -5 -48 -5q-62 0 -101 45l33 41q27 -34 70 -34q13 0 19 1q-40 30 -40 78q0 42 26 66t68 24q36 0 63 -21l-24 -47q-16 11 -33 11
q-41 0 -41 -42q0 -23 15.5 -37t46.5 -14q13 0 28 3z" />
    <glyph glyph-name="highhamzaAlefar.fina" unicode="&#x675;" horiz-adv-x="288" 
d="M308 0h-46q-118 0 -168 85q-30 51 -30 159v304h125v-297q0 -66 18 -92q23 -34 81 -34h20v-125zM186 664l50 8v-54l-233 -41v54l72 13q-38 30 -38 77q0 42 25.5 65.5t67.5 23.5q38 0 64 -20l-24 -48q-17 12 -34 12q-19 0 -30 -11.5t-11 -31.5q0 -28 23.5 -41.5t67.5 -5.5z
" />
    <glyph glyph-name="highhamzaWawar.fina" unicode="&#x676;" horiz-adv-x="536" 
d="M556 125v-125h-103q-52 -213 -372 -236l-19 121q113 12 173 38t85 77h-41q-141 0 -198 76q-40 52 -40 138q0 103 57 165t158 62q88 0 140 -44q68 -58 68 -212v-60h92zM186 158q28 -33 95 -33h58v54q0 90 -30 117q-21 20 -56 20q-40 0 -63.5 -25t-23.5 -70q0 -40 20 -63z
M441 594l50 8v-54l-233 -41v54l72 13q-38 30 -38 77q0 42 25.5 65.5t67.5 23.5q38 0 64 -20l-24 -48q-17 12 -34 12q-19 0 -30 -11.5t-11 -31.5q0 -28 23.5 -41.5t67.5 -5.5z" />
    <glyph glyph-name="uHamzaabovear" unicode="&#x677;" horiz-adv-x="513" arabic-form="isolated" 
d="M262 441q207 0 207 -277q0 -192 -91.5 -287t-289.5 -113l-19 120q116 16 174.5 48.5t79.5 99.5q-35 -22 -87 -22q-87 0 -139.5 53.5t-52.5 153.5q0 105 58 164.5t160 59.5zM257 117q40 0 63 24.5t23 71.5t-23.5 74.5t-63.5 27.5t-63.5 -27t-23.5 -73q0 -45 22.5 -71.5
t65.5 -26.5zM450 586l50 8v-54l-233 -41v54l72 13q-38 30 -38 77q0 42 25.5 65.5t67.5 23.5q38 0 64 -20l-24 -48q-17 12 -34 12q-19 0 -30 -11.5t-11 -31.5q0 -28 23.5 -41.5t67.5 -5.5zM168 716q40 0 63.5 -23.5t23.5 -62.5q0 -80 -99 -99l-122 -24v54l78 15
q-32 19 -32 60q0 38 24.5 59t63.5 21zM166 587q18 0 28 10.5t10 28.5t-10.5 29t-27.5 11t-27 -10.5t-10 -29.5q0 -17 10 -28t27 -11z" />
    <glyph glyph-name="highhamzaYehar.init" unicode="&#x678;" horiz-adv-x="288" 
d="M304 513l50 8v-54l-233 -41v54l72 13q-38 30 -38 77q0 42 25.5 65.5t67.5 23.5q38 0 64 -20l-24 -48q-17 12 -34 12q-19 0 -30 -11.5t-11 -31.5q0 -28 23.5 -41.5t67.5 -5.5zM-20 0v125h31q50 0 72 22.5t22 73.5v144h125v-153q0 -103 -54 -157.5t-153 -54.5h-43z" />
    <glyph glyph-name="highhamzaYehar.medi" unicode="&#x678;" horiz-adv-x="332" 
d="M302 513l50 8v-54l-233 -41v54l72 13q-38 30 -38 77q0 42 25.5 65.5t67.5 23.5q38 0 64 -20l-24 -48q-17 12 -34 12q-19 0 -30 -11.5t-11 -31.5q0 -28 23.5 -41.5t67.5 -5.5zM326 125h26v-125h-67q-96 0 -135 71q-39 -71 -124 -71h-46v125h25q53 0 75.5 23t22.5 77v140
h125v-139q0 -50 20 -75.5t78 -25.5z" />
    <glyph glyph-name="highhamzaYehar.fina" unicode="&#x678;" horiz-adv-x="723" 
d="M727 125h16v-125h-40q-17 0 -34 7q-3 -63 -50.5 -104t-135.5 -41h-210q-66 0 -114 19.5t-73.5 54.5t-36.5 74t-11 86v81h122v-60q0 -63 32 -96.5t106 -33.5h174q77 0 77 69q0 39 -29 84l-56 86h140l38 -54q34 -47 85 -47zM665 393l50 8v-54l-233 -41v54l72 13
q-38 30 -38 77q0 42 25.5 65.5t67.5 23.5q38 0 64 -20l-24 -48q-17 12 -34 12q-19 0 -30 -11.5t-11 -31.5q0 -28 23.5 -41.5t67.5 -5.5z" />
    <glyph glyph-name="ttehar" unicode="&#x679;" horiz-adv-x="833" arabic-form="isolated" 
d="M785 365v-143q0 -100 -58 -161t-172 -61h-232q-275 0 -275 256v109h122v-101q0 -67 33.5 -103t116.5 -36h230q110 0 110 103v137h125zM469 626q29 0 50 -19t21 -56q0 -43 -27 -66.5t-89 -34.5l-117 -21v52l35 6l5 171l54 11l-3 -75q29 32 71 32zM396 497l42 8q46 8 46 38
t-26 30q-57 0 -62 -76z" />
    <glyph glyph-name="ttehehar" unicode="&#x67a;" horiz-adv-x="833" arabic-form="isolated" 
d="M785 365v-143q0 -100 -58 -161t-172 -61h-232q-275 0 -275 256v109h122v-101q0 -67 33.5 -103t116.5 -36h230q110 0 110 103v137h125zM358 730h127v-126h-127v126zM358 578h127v-126h-127v126z" />
    <glyph glyph-name="beehar" unicode="&#x67b;" horiz-adv-x="833" arabic-form="isolated" 
d="M785 365v-143q0 -100 -58 -161t-172 -61h-232q-275 0 -275 256v109h122v-101q0 -67 33.5 -103t116.5 -36h230q110 0 110 103v137h125zM358 -215h127v-126h-127v126zM358 -61h127v-126h-127v126z" />
    <glyph glyph-name="tehRingar.init" unicode="&#x67c;" horiz-adv-x="288" 
d="M174 53q57 -24 57 -95q0 -46 -28.5 -74.5t-74.5 -28.5t-75 28.5t-29 74.5q0 21 7 42h-51v125h31q50 0 72 22.5t22 73.5v144h125v-153q0 -105 -56 -159zM128 -83q19 0 30.5 11.5t11.5 29.5q0 19 -11.5 30.5t-30.5 11.5t-30.5 -11.5t-11.5 -30.5q0 -18 11.5 -29.5
t30.5 -11.5zM18 577h127v-126h-127v126zM192 577h127v-126h-127v126z" />
    <glyph glyph-name="tehRingar.medi" unicode="&#x67c;" horiz-adv-x="332" 
d="M326 125h26v-125h-67q-96 0 -135 71q-9 -16 -17 -24q45 -29 45 -89q0 -46 -28.5 -74.5t-74.5 -28.5t-75 28.5t-29 74.5q0 27 9 46v121h25q53 0 75.5 23t22.5 77v140h125v-139q0 -50 20 -75.5t78 -25.5zM75 -83q19 0 30.5 11.5t11.5 29.5q0 19 -11.5 30.5t-30.5 11.5
t-30.5 -11.5t-11.5 -30.5q0 -18 11.5 -29.5t30.5 -11.5zM16 577h127v-126h-127v126zM190 577h127v-126h-127v126z" />
    <glyph glyph-name="tehRingar.fina" unicode="&#x67c;" horiz-adv-x="890" 
d="M884 125h26v-125h-64q-101 0 -140 72q-42 -72 -158 -72h-31q7 -17 7 -42q0 -46 -28.5 -74.5t-74.5 -28.5t-75 28.5t-29 74.5q0 21 7 42h-1q-275 0 -275 256v109h122v-101q0 -65 34 -102t116 -37h239q56 0 78.5 25t22.5 76v139h125v-138q0 -51 21 -76.5t78 -25.5zM463 -42
q0 19 -11.5 30.5t-30.5 11.5t-30.5 -11.5t-11.5 -30.5q0 -18 11.5 -29.5t30.5 -11.5t30.5 11.5t11.5 29.5zM271 577h127v-126h-127v126zM445 577h127v-126h-127v126z" />
    <glyph glyph-name="tehThreedotsdownar.init" unicode="&#x67d;" horiz-adv-x="288" 
d="M-20 0v125h31q50 0 72 22.5t22 73.5v144h125v-153q0 -103 -54 -157.5t-153 -54.5h-43zM314 617h-127v126h127v-126zM146 617h-127v126h127v-126zM231 452h-127v126h127v-126z" />
    <glyph glyph-name="tehThreedotsdownar.medi" unicode="&#x67d;" horiz-adv-x="332" 
d="M326 125h26v-125h-67q-96 0 -135 71q-39 -71 -124 -71h-46v125h25q53 0 75.5 23t22.5 77v140h125v-139q0 -50 20 -75.5t78 -25.5zM312 617h-127v126h127v-126zM144 617h-127v126h127v-126zM229 452h-127v126h127v-126z" />
    <glyph glyph-name="tehThreedotsdownar.fina" unicode="&#x67d;" horiz-adv-x="890" 
d="M884 125h26v-125h-64q-101 0 -140 72q-42 -72 -158 -72h-225q-275 0 -275 256v109h122v-101q0 -65 34 -102t116 -37h239q56 0 78.5 25t22.5 76v139h125v-138q0 -51 21 -76.5t78 -25.5zM567 617h-127v126h127v-126zM399 617h-127v126h127v-126zM484 452h-127v126h127v-126
z" />
    <glyph glyph-name="pehar" unicode="&#x67e;" horiz-adv-x="833" arabic-form="isolated" 
d="M785 365v-143q0 -100 -58 -161t-172 -61h-232q-275 0 -275 256v109h122v-101q0 -67 33.5 -103t116.5 -36h230q110 0 110 103v137h125zM567 -187h-127v126h127v-126zM399 -187h-127v126h127v-126zM484 -346h-127v126h127v-126z" />
    <glyph glyph-name="tehehar" unicode="&#x67f;" horiz-adv-x="833" arabic-form="isolated" 
d="M785 365v-143q0 -100 -58 -161t-172 -61h-232q-275 0 -275 256v109h122v-101q0 -67 33.5 -103t116.5 -36h230q110 0 110 103v137h125zM274 578h127v-126h-127v126zM442 578h127v-126h-127v126zM275 739h127v-126h-127v126zM442 739h127v-126h-127v126z" />
    <glyph glyph-name="behehar" unicode="&#x680;" horiz-adv-x="833" arabic-form="isolated" 
d="M785 365v-143q0 -100 -58 -161t-172 -61h-232q-275 0 -275 256v109h122v-101q0 -67 33.5 -103t116.5 -36h230q110 0 110 103v137h125zM274 -222h127v-126h-127v126zM442 -222h127v-126h-127v126zM275 -61h127v-126h-127v126zM442 -61h127v-126h-127v126z" />
    <glyph glyph-name="hahHamzaabovear.init" unicode="&#x681;" horiz-adv-x="556" 
d="M503 279h23v-130h-24q-59 0 -98 -30l-72 -56q-41 -32 -86.5 -47.5t-115.5 -15.5h-150v125h163q73 0 119 39l34 28q24 19 41 26q-23 10 -41 28l-35 34q-38 36 -83 36q-44 0 -88 -40l-59 89q62 76 160 76q84 0 146 -59l70 -66q41 -37 96 -37zM255 577l50 8v-54l-233 -41v54
l72 13q-38 30 -38 77q0 42 25.5 65.5t67.5 23.5q38 0 64 -20l-24 -48q-17 12 -34 12q-19 0 -30 -11.5t-11 -31.5q0 -28 23.5 -41.5t67.5 -5.5z" />
    <glyph glyph-name="hahHamzaabovear.medi" unicode="&#x681;" horiz-adv-x="595" 
d="M509 125h106v-125h-114q-108 0 -124 91l-25 -22q-75 -69 -189 -69h-183v125h184q70 0 115 34l27 20q32 24 64 30q-34 9 -65 38l-36 34q-37 34 -82 34q-46 0 -89 -40l-58 90q62 76 161 76q83 0 145 -56l68 -62q41 -37 98 -37h17v-114h-23q-19 0 -31 -3v-11q0 -33 34 -33z
M262 577l50 8v-54l-233 -41v54l72 13q-38 30 -38 77q0 42 25.5 65.5t67.5 23.5q38 0 64 -20l-24 -48q-17 12 -34 12q-19 0 -30 -11.5t-11 -31.5q0 -28 23.5 -41.5t67.5 -5.5z" />
    <glyph glyph-name="hahHamzaabovear.fina" unicode="&#x681;" horiz-adv-x="613" 
d="M544 125h89v-125h-66q-76 0 -112.5 36.5t-38.5 113.5h-53q-203 0 -203 -160q0 -76 44.5 -117.5t121.5 -41.5q91 0 164 60l61 -95q-98 -88 -238 -88q-126 0 -202.5 69.5t-76.5 202.5q0 126 74.5 202t206.5 87l-23 19q-40 33 -82 33q-52 0 -91 -39l-59 85q66 74 158 74
q77 0 141 -58l65 -59q47 -44 95 -44h26v-112h-30v-12q0 -31 29 -31zM284 571l50 8v-54l-233 -41v54l72 13q-38 30 -38 77q0 42 25.5 65.5t67.5 23.5q38 0 64 -20l-24 -48q-17 12 -34 12q-19 0 -30 -11.5t-11 -31.5q0 -28 23.5 -41.5t67.5 -5.5z" />
    <glyph glyph-name="hahTwodotsverticalabovear.init" unicode="&#x682;" horiz-adv-x="556" 
d="M503 279h23v-130h-24q-59 0 -98 -30l-72 -56q-41 -32 -86.5 -47.5t-115.5 -15.5h-150v125h163q73 0 119 39l34 28q24 19 41 26q-23 10 -41 28l-35 34q-38 36 -83 36q-44 0 -88 -40l-59 89q62 76 160 76q84 0 146 -59l70 -66q41 -37 96 -37zM125 794h127v-126h-127v126z
M125 642h127v-126h-127v126z" />
    <glyph glyph-name="hahTwodotsverticalabovear.medi" unicode="&#x682;" horiz-adv-x="595" 
d="M509 125h106v-125h-114q-108 0 -124 91l-25 -22q-75 -69 -189 -69h-183v125h184q70 0 115 34l27 20q32 24 64 30q-34 9 -65 38l-36 34q-37 34 -82 34q-46 0 -89 -40l-58 90q62 76 161 76q83 0 145 -56l68 -62q41 -37 98 -37h17v-114h-23q-19 0 -31 -3v-11q0 -33 34 -33z
M132 794h127v-126h-127v126zM132 642h127v-126h-127v126z" />
    <glyph glyph-name="hahTwodotsverticalabovear.fina" unicode="&#x682;" horiz-adv-x="613" 
d="M544 125h89v-125h-66q-76 0 -112.5 36.5t-38.5 113.5h-53q-203 0 -203 -160q0 -76 44.5 -117.5t121.5 -41.5q91 0 164 60l61 -95q-98 -88 -238 -88q-126 0 -202.5 69.5t-76.5 202.5q0 126 74.5 202t206.5 87l-23 19q-40 33 -82 33q-52 0 -91 -39l-59 85q66 74 158 74
q77 0 141 -58l65 -59q47 -44 95 -44h26v-112h-30v-12q0 -31 29 -31zM154 788h127v-126h-127v126zM154 636h127v-126h-127v126z" />
    <glyph glyph-name="nyehar" unicode="&#x683;" horiz-adv-x="562" arabic-form="isolated" 
d="M490 -109l61 -95q-98 -88 -232 -88q-127 0 -206 64.5t-79 192.5t82.5 204.5t225.5 80.5q-11 5 -22 15l-28 23q-42 33 -81 33q-54 0 -92 -40l-59 85q66 75 157 75q79 0 142 -58l65 -59q47 -44 95 -44h14v-147h-170q-98 0 -150.5 -40.5t-52.5 -116.5q0 -69 44 -107t120 -38
q93 0 166 60zM228 31h91v-93h-91v93zM358 31h90v-93h-90v93z" />
    <glyph glyph-name="dyehar" unicode="&#x684;" horiz-adv-x="562" arabic-form="isolated" 
d="M490 -109l61 -95q-98 -88 -232 -88q-127 0 -206 64.5t-79 192.5t82.5 204.5t225.5 80.5q-11 5 -22 15l-28 23q-42 33 -81 33q-54 0 -92 -40l-59 85q66 75 157 75q79 0 142 -58l65 -59q47 -44 95 -44h14v-147h-170q-98 0 -150.5 -40.5t-52.5 -116.5q0 -69 44 -107t120 -38
q93 0 166 60zM288 84h85v-88h-85v88zM288 -35h85v-89h-85v89z" />
    <glyph glyph-name="hahThreedotsabovear.init" unicode="&#x685;" horiz-adv-x="556" 
d="M503 279h23v-130h-24q-59 0 -98 -30l-72 -56q-41 -32 -86.5 -47.5t-115.5 -15.5h-150v125h163q73 0 119 39l34 28q24 19 41 26q-23 10 -41 28l-35 34q-38 36 -83 36q-44 0 -88 -40l-59 89q62 76 160 76q84 0 146 -59l70 -66q41 -37 96 -37zM41 641h127v-126h-127v126z
M209 641h127v-126h-127v126zM125 803h127v-126h-127v126z" />
    <glyph glyph-name="hahThreedotsabovear.medi" unicode="&#x685;" horiz-adv-x="595" 
d="M509 125h106v-125h-114q-108 0 -124 91l-25 -22q-75 -69 -189 -69h-183v125h184q70 0 115 34l27 20q32 24 64 30q-34 9 -65 38l-36 34q-37 34 -82 34q-46 0 -89 -40l-58 90q62 76 161 76q83 0 145 -56l68 -62q41 -37 98 -37h17v-114h-23q-19 0 -31 -3v-11q0 -33 34 -33z
M48 641h127v-126h-127v126zM216 641h127v-126h-127v126zM132 803h127v-126h-127v126z" />
    <glyph glyph-name="hahThreedotsabovear.fina" unicode="&#x685;" horiz-adv-x="613" 
d="M544 125h89v-125h-66q-76 0 -112.5 36.5t-38.5 113.5h-53q-203 0 -203 -160q0 -76 44.5 -117.5t121.5 -41.5q91 0 164 60l61 -95q-98 -88 -238 -88q-126 0 -202.5 69.5t-76.5 202.5q0 126 74.5 202t206.5 87l-23 19q-40 33 -82 33q-52 0 -91 -39l-59 85q66 74 158 74
q77 0 141 -58l65 -59q47 -44 95 -44h26v-112h-30v-12q0 -31 29 -31zM70 635h127v-126h-127v126zM238 635h127v-126h-127v126zM154 797h127v-126h-127v126z" />
    <glyph glyph-name="tchehar" unicode="&#x686;" horiz-adv-x="562" arabic-form="isolated" 
d="M490 -109l61 -95q-98 -88 -232 -88q-127 0 -206 64.5t-79 192.5t82.5 204.5t225.5 80.5q-11 5 -22 15l-28 23q-42 33 -81 33q-54 0 -92 -40l-59 85q66 75 157 75q79 0 142 -58l65 -59q47 -44 95 -44h14v-147h-170q-98 0 -150.5 -40.5t-52.5 -116.5q0 -69 44 -107t120 -38
q93 0 166 60zM322 -8h-83v85h83v-85zM440 -8h-81v85h81v-85zM382 -127h-83v85h83v-85z" />
    <glyph glyph-name="tchehehar" unicode="&#x687;" horiz-adv-x="562" arabic-form="isolated" 
d="M490 -109l61 -95q-98 -88 -232 -88q-127 0 -206 64.5t-79 192.5t82.5 204.5t225.5 80.5q-11 5 -22 15l-28 23q-42 33 -81 33q-54 0 -92 -40l-59 85q66 75 157 75q79 0 142 -58l65 -59q47 -44 95 -44h14v-147h-170q-98 0 -150.5 -40.5t-52.5 -116.5q0 -69 44 -107t120 -38
q93 0 166 60zM235 81h78v-81h-78v81zM348 81h78v-81h-78v81zM234 -35h78v-80h-78v80zM348 -35h78v-80h-78v80z" />
    <glyph glyph-name="ddalar" unicode="&#x688;" horiz-adv-x="550" arabic-form="isolated" 
d="M344 0h-149q-59 0 -99 16.5t-76 55.5l83 96q34 -43 99 -43h121q61 0 61 46q0 26 -17 63l-84 180l117 52l85 -186q30 -65 30 -120q0 -80 -50.5 -120t-120.5 -40zM377 696q29 0 50 -19t21 -56q0 -43 -27 -66.5t-89 -34.5l-117 -21v52l35 6l5 171l54 11l-3 -75q29 32 71 32z
M304 567l42 8q46 8 46 38t-26 30q-57 0 -62 -76z" />
    <glyph glyph-name="dalRingar.fina" unicode="&#x689;" horiz-adv-x="616" 
d="M622 125h13v-125h-40q-87 0 -129 59q-27 -49 -102 -58q8 -21 8 -43q0 -46 -28.5 -74.5t-74.5 -28.5t-75 28.5t-29 74.5q0 20 7 43q-91 4 -152 71l83 96q33 -43 99 -43h121q61 0 61 47q0 26 -19 67l-82 175l117 52l125 -277q16 -37 37 -50.5t60 -13.5zM269 -83
q19 0 30.5 11.5t11.5 29.5q0 19 -11.5 30.5t-30.5 11.5t-30.5 -11.5t-11.5 -30.5q0 -18 11.5 -29.5t30.5 -11.5z" />
    <glyph glyph-name="dalDotbelowar.fina" unicode="&#x68a;" horiz-adv-x="616" 
d="M622 125h13v-125h-40q-87 0 -129 59q-34 -59 -123 -59h-148q-59 0 -99 16.5t-76 55.5l83 96q33 -43 99 -43h121q61 0 61 47q0 26 -19 67l-82 175l117 52l125 -277q16 -37 37 -50.5t60 -13.5zM206 -61h127v-126h-127v126z" />
    <glyph glyph-name="dalDotbelowTahar.fina" unicode="&#x68b;" horiz-adv-x="616" 
d="M622 125h13v-125h-40q-87 0 -129 59q-34 -59 -123 -59h-148q-59 0 -99 16.5t-76 55.5l83 96q33 -43 99 -43h121q61 0 61 47q0 26 -19 67l-82 175l117 52l125 -277q16 -37 37 -50.5t60 -13.5zM377 696q29 0 50 -19t21 -56q0 -43 -27 -66.5t-89 -34.5l-117 -21v52l35 6
l5 171l54 11l-3 -75q29 32 71 32zM304 567l42 8q46 8 46 38t-26 30q-57 0 -62 -76zM206 -61h127v-126h-127v126z" />
    <glyph glyph-name="dahalar" unicode="&#x68c;" horiz-adv-x="550" arabic-form="isolated" 
d="M344 0h-149q-59 0 -99 16.5t-76 55.5l83 96q34 -43 99 -43h121q61 0 61 46q0 26 -17 63l-84 180l117 52l85 -186q30 -65 30 -120q0 -80 -50.5 -120t-120.5 -40zM179 647h127v-126h-127v126zM353 647h127v-126h-127v126z" />
    <glyph glyph-name="ddahalar" unicode="&#x68d;" horiz-adv-x="550" arabic-form="isolated" 
d="M344 0h-149q-59 0 -99 16.5t-76 55.5l83 96q34 -43 99 -43h121q61 0 61 46q0 26 -17 63l-84 180l117 52l85 -186q30 -65 30 -120q0 -80 -50.5 -120t-120.5 -40zM119 -61h127v-126h-127v126zM293 -61h127v-126h-127v126z" />
    <glyph glyph-name="dular" unicode="&#x68e;" horiz-adv-x="550" arabic-form="isolated" 
d="M344 0h-149q-59 0 -99 16.5t-76 55.5l83 96q34 -43 99 -43h121q61 0 61 46q0 26 -17 63l-84 180l117 52l85 -186q30 -65 30 -120q0 -80 -50.5 -120t-120.5 -40zM182 647h127v-126h-127v126zM350 647h127v-126h-127v126zM266 809h127v-126h-127v126z" />
    <glyph glyph-name="dalThreedotsdownar.fina" unicode="&#x68f;" horiz-adv-x="616" 
d="M622 125h13v-125h-40q-87 0 -129 59q-34 -59 -123 -59h-148q-59 0 -99 16.5t-76 55.5l83 96q33 -43 99 -43h121q61 0 61 47q0 26 -19 67l-82 175l117 52l125 -277q16 -37 37 -50.5t60 -13.5zM475 687h-127v126h127v-126zM307 687h-127v126h127v-126zM392 522h-127v126
h127v-126z" />
    <glyph glyph-name="dalFourdotsar.fina" unicode="&#x690;" horiz-adv-x="616" 
d="M622 125h13v-125h-40q-87 0 -129 59q-34 -59 -123 -59h-148q-59 0 -99 16.5t-76 55.5l83 96q33 -43 99 -43h121q61 0 61 47q0 26 -19 67l-82 175l117 52l125 -277q16 -37 37 -50.5t60 -13.5zM182 648h127v-126h-127v126zM350 648h127v-126h-127v126zM183 809h127v-126
h-127v126zM350 809h127v-126h-127v126z" />
    <glyph glyph-name="rrehar" unicode="&#x691;" horiz-adv-x="351" arabic-form="isolated" 
d="M300 365v-293q0 -132 -56 -203t-174 -105l-41 119q82 21 114 61t32 135v286h125zM286 626q29 0 50 -19t21 -56q0 -43 -27 -66.5t-89 -34.5l-117 -21v52l35 6l5 171l54 11l-3 -75q29 32 71 32zM213 497l42 8q46 8 46 38t-26 30q-57 0 -62 -76z" />
    <glyph glyph-name="rehvar.fina" unicode="&#x692;" horiz-adv-x="397" 
d="M395 125h22v-125h-40q-47 0 -79 27q-9 -109 -64.5 -170.5t-163.5 -92.5l-41 119q82 21 114 61t32 135v286h125v-145q0 -95 95 -95zM241 503l51 118h64l-81 -176h-73l-82 176h67z" />
    <glyph glyph-name="rehRingar.fina" unicode="&#x693;" horiz-adv-x="397" 
d="M395 125h22v-125h-40q-47 0 -79 27q-4 -55 -21 -97q42 -4 67 -32t25 -72q0 -46 -28.5 -74.5t-74.5 -28.5q-40 0 -67 21.5t-35 57.5q-43 -24 -94 -38l-41 119q82 21 114 61t32 135v286h125v-147q0 -93 95 -93zM307 -174q0 19 -11.5 30.5t-30.5 11.5t-30.5 -11.5
t-11.5 -30.5q0 -18 11.5 -29.5t30.5 -11.5t30.5 11.5t11.5 29.5z" />
    <glyph glyph-name="rehDotbelowar.fina" unicode="&#x694;" horiz-adv-x="397" 
d="M395 125h22v-125h-40q-47 0 -79 27q-9 -109 -64.5 -170.5t-163.5 -92.5l-41 119q82 21 114 61t32 135v286h125v-145q0 -95 95 -95zM117 -271h127v-126h-127v126z" />
    <glyph glyph-name="rehVbelowar.fina" unicode="&#x695;" horiz-adv-x="397" 
d="M395 125h22v-125h-40q-47 0 -79 27q-9 -109 -64.5 -170.5t-163.5 -92.5l-41 119q82 21 114 61t32 135v286h125v-145q0 -95 95 -95zM183 -382l51 118h64l-81 -176h-73l-82 176h67z" />
    <glyph glyph-name="rehDotbelowdotabovear.fina" unicode="&#x696;" horiz-adv-x="397" 
d="M395 125h22v-125h-40q-47 0 -79 27q-9 -109 -64.5 -170.5t-163.5 -92.5l-41 119q82 21 114 61t32 135v286h125v-145q0 -95 95 -95zM175 578h127v-126h-127v126zM117 -271h127v-126h-127v126z" />
    <glyph glyph-name="rehTwodotsar.fina" unicode="&#x697;" horiz-adv-x="397" 
d="M395 125h22v-125h-40q-47 0 -79 27q-9 -109 -64.5 -170.5t-163.5 -92.5l-41 119q82 21 114 61t32 135v286h125v-145q0 -95 95 -95zM88 577h127v-126h-127v126zM262 577h127v-126h-127v126z" />
    <glyph glyph-name="jehar" unicode="&#x698;" horiz-adv-x="351" arabic-form="isolated" 
d="M300 365v-293q0 -132 -56 -203t-174 -105l-41 119q82 21 114 61t32 135v286h125zM91 577h127v-126h-127v126zM259 577h127v-126h-127v126zM175 739h127v-126h-127v126z" />
    <glyph glyph-name="rehFourdotsar.fina" unicode="&#x699;" horiz-adv-x="397" 
d="M395 125h22v-125h-40q-47 0 -79 27q-9 -109 -64.5 -170.5t-163.5 -92.5l-41 119q82 21 114 61t32 135v286h125v-145q0 -95 95 -95zM91 578h127v-126h-127v126zM259 578h127v-126h-127v126zM92 739h127v-126h-127v126zM259 739h127v-126h-127v126z" />
    <glyph glyph-name="seenDotbelowDotabovear.init" unicode="&#x69a;" horiz-adv-x="758" 
d="M587 365h123v-177q0 -102 -51.5 -148t-128.5 -46q-102 0 -141 69q-35 -69 -126 -69q-93 0 -126 70q-34 -64 -117 -64h-40v125h25q49 0 70.5 23.5t21.5 74.5v65h125v-99q0 -71 61 -71q59 0 59 71v139h125v-138q0 -72 61 -72q59 0 59 72v175zM328 -61h127v-126h-127v126z
M343 533h127v-126h-127v126z" />
    <glyph glyph-name="seenDotbelowDotabovear.medi" unicode="&#x69a;" horiz-adv-x="811" 
d="M811 125h20v-125h-38q-110 0 -148 69q-36 -75 -129 -75q-90 0 -125 69q-35 -69 -126 -69q-89 0 -124 69q-39 -63 -120 -63h-41v125h26q47 0 69 23t22 72v68h125v-98q0 -72 61 -72q59 0 59 72v138h125v-138q0 -72 61 -72q59 0 59 72v175h125v-135q0 -56 22 -80.5t77 -24.5
zM328 -61h127v-126h-127v126zM343 533h127v-126h-127v126z" />
    <glyph glyph-name="seenDotbelowDotabovear.fina" unicode="&#x69a;" horiz-adv-x="1195" 
d="M1195 125h20v-125h-44q-105 0 -142 69q-37 -75 -129 -75q-82 0 -118 61q-29 -62 -105 -62q-51 0 -78 27q-20 -98 -88.5 -156.5t-185.5 -58.5q-142 0 -211.5 81t-69.5 211v129h125v-117q0 -82 40.5 -130.5t117.5 -48.5t115.5 48t38.5 131v179h125v-109q0 -26 15.5 -43.5
t45.5 -17.5q59 0 59 71v139h125v-138q0 -72 61 -72q59 0 59 72v175h125v-132q0 -58 21.5 -83t77.5 -25zM734 -61h127v-126h-127v126zM726 533h127v-126h-127v126z" />
    <glyph glyph-name="seenThreedotsbelowar.init" unicode="&#x69b;" horiz-adv-x="758" 
d="M587 365h123v-177q0 -102 -51.5 -148t-128.5 -46q-102 0 -141 69q-35 -69 -126 -69q-93 0 -126 70q-34 -64 -117 -64h-40v125h25q49 0 70.5 23.5t21.5 74.5v65h125v-99q0 -71 61 -71q59 0 59 71v139h125v-138q0 -72 61 -72q59 0 59 72v175zM537 -187h-127v126h127v-126z
M369 -187h-127v126h127v-126zM454 -346h-127v126h127v-126z" />
    <glyph glyph-name="seenThreedotsbelowar.medi" unicode="&#x69b;" horiz-adv-x="811" 
d="M811 125h20v-125h-38q-110 0 -148 69q-36 -75 -129 -75q-90 0 -125 69q-35 -69 -126 -69q-89 0 -124 69q-39 -63 -120 -63h-41v125h26q47 0 69 23t22 72v68h125v-98q0 -72 61 -72q59 0 59 72v138h125v-138q0 -72 61 -72q59 0 59 72v175h125v-135q0 -56 22 -80.5t77 -24.5
zM537 -187h-127v126h127v-126zM369 -187h-127v126h127v-126zM454 -346h-127v126h127v-126z" />
    <glyph glyph-name="seenThreedotsbelowar.fina" unicode="&#x69b;" horiz-adv-x="1195" 
d="M1195 125h20v-125h-44q-105 0 -142 69q-37 -75 -129 -75q-82 0 -118 61q-29 -62 -105 -62q-51 0 -78 27q-20 -98 -88.5 -156.5t-185.5 -58.5q-142 0 -211.5 81t-69.5 211v129h125v-117q0 -82 40.5 -130.5t117.5 -48.5t115.5 48t38.5 131v179h125v-109q0 -26 15.5 -43.5
t45.5 -17.5q59 0 59 71v139h125v-138q0 -72 61 -72q59 0 59 72v175h125v-132q0 -58 21.5 -83t77.5 -25zM943 -187h-127v126h127v-126zM775 -187h-127v126h127v-126zM860 -346h-127v126h127v-126z" />
    <glyph glyph-name="seenThreedotsbelowThreedotsar.init" unicode="&#x69c;" horiz-adv-x="758" 
d="M587 365h123v-177q0 -102 -51.5 -148t-128.5 -46q-102 0 -141 69q-35 -69 -126 -69q-93 0 -126 70q-34 -64 -117 -64h-40v125h25q49 0 70.5 23.5t21.5 74.5v65h125v-99q0 -71 61 -71q59 0 59 71v139h125v-138q0 -72 61 -72q59 0 59 72v175zM259 532h127v-126h-127v126z
M427 532h127v-126h-127v126zM343 694h127v-126h-127v126zM537 -187h-127v126h127v-126zM369 -187h-127v126h127v-126zM454 -346h-127v126h127v-126z" />
    <glyph glyph-name="seenThreedotsbelowThreedotsar.medi" unicode="&#x69c;" horiz-adv-x="811" 
d="M811 125h20v-125h-38q-110 0 -148 69q-36 -75 -129 -75q-90 0 -125 69q-35 -69 -126 -69q-89 0 -124 69q-39 -63 -120 -63h-41v125h26q47 0 69 23t22 72v68h125v-98q0 -72 61 -72q59 0 59 72v138h125v-138q0 -72 61 -72q59 0 59 72v175h125v-135q0 -56 22 -80.5t77 -24.5
zM259 532h127v-126h-127v126zM427 532h127v-126h-127v126zM343 694h127v-126h-127v126zM537 -187h-127v126h127v-126zM369 -187h-127v126h127v-126zM454 -346h-127v126h127v-126z" />
    <glyph glyph-name="seenThreedotsbelowThreedotsar.fina" unicode="&#x69c;" horiz-adv-x="1195" 
d="M1195 125h20v-125h-44q-105 0 -142 69q-37 -75 -129 -75q-82 0 -118 61q-29 -62 -105 -62q-51 0 -78 27q-20 -98 -88.5 -156.5t-185.5 -58.5q-142 0 -211.5 81t-69.5 211v129h125v-117q0 -82 40.5 -130.5t117.5 -48.5t115.5 48t38.5 131v179h125v-109q0 -26 15.5 -43.5
t45.5 -17.5q59 0 59 71v139h125v-138q0 -72 61 -72q59 0 59 72v175h125v-132q0 -58 21.5 -83t77.5 -25zM642 532h127v-126h-127v126zM810 532h127v-126h-127v126zM726 694h127v-126h-127v126zM943 -187h-127v126h127v-126zM775 -187h-127v126h127v-126zM860 -346h-127v126
h127v-126z" />
    <glyph glyph-name="sadTwodotsbelowar.init" unicode="&#x69d;" horiz-adv-x="826" 
d="M572 441q102 0 160.5 -57.5t58.5 -156.5q0 -106 -65.5 -166.5t-179.5 -60.5h-148v-64h-116v64h-4q-112 0 -146 67q-34 -67 -113 -67h-39v125h25q41 0 60.5 15.5t19.5 58.5v78h125v-76q0 -41 15 -58t54 -18q9 156 91.5 236t201.5 80zM403 125h139q124 0 124 96
q0 44 -27 70t-77 26q-68 0 -112 -49t-47 -143zM192 -126h127v-126h-127v126zM366 -126h127v-126h-127v126z" />
    <glyph glyph-name="sadTwodotsbelowar.medi" unicode="&#x69d;" horiz-adv-x="851" 
d="M835 125h36v-125h-53q-73 0 -121 39q-62 -39 -151 -39h-148v-64h-116v64h-4q-112 0 -146 67q-34 -67 -113 -67h-39v125h25q41 0 60.5 15.5t19.5 58.5v78h125v-76q0 -41 15 -58t54 -18q9 156 91.5 236t201.5 80q102 0 160.5 -57.5t58.5 -156.5q0 -50 -15 -89
q25 -13 59 -13zM403 125h139q124 0 124 96q0 44 -27 70t-77 26q-68 0 -112 -49t-47 -143zM192 -126h127v-126h-127v126zM366 -126h127v-126h-127v126z" />
    <glyph glyph-name="sadTwodotsbelowar.fina" unicode="&#x69d;" horiz-adv-x="1255" 
d="M1240 125h36v-125h-53q-76 0 -124 41q-59 -41 -151 -41h-154v-64h-116v65q-47 5 -76 38q-15 -106 -84 -170t-193 -64q-142 0 -211.5 81t-69.5 211v129h125v-117q0 -82 40.5 -130.5t117.5 -48.5t115.5 48t38.5 131v179h125v-77q0 -46 15 -65.5t54 -20.5q4 79 30 141
t67 99.5t91 56.5t105 19q100 0 159.5 -57t59.5 -158q0 -47 -13 -85q29 -16 66 -16zM799 125h149q56 0 85 25t29 71q0 44 -27 70t-76 26q-69 0 -113 -49t-47 -143zM588 -126h127v-126h-127v126zM762 -126h127v-126h-127v126z" />
    <glyph glyph-name="sadThreedotsar.init" unicode="&#x69e;" horiz-adv-x="826" 
d="M572 441q102 0 160.5 -57.5t58.5 -156.5q0 -106 -65.5 -166.5t-179.5 -60.5h-148v-64h-116v64h-4q-112 0 -146 67q-34 -67 -113 -67h-39v125h25q41 0 60.5 15.5t19.5 58.5v78h125v-76q0 -41 15 -58t54 -18q9 156 91.5 236t201.5 80zM403 125h139q124 0 124 96
q0 44 -27 70t-77 26q-68 0 -112 -49t-47 -143zM422 635h127v-126h-127v126zM590 635h127v-126h-127v126zM506 797h127v-126h-127v126z" />
    <glyph glyph-name="sadThreedotsar.medi" unicode="&#x69e;" horiz-adv-x="851" 
d="M835 125h36v-125h-53q-73 0 -121 39q-62 -39 -151 -39h-148v-64h-116v64h-4q-112 0 -146 67q-34 -67 -113 -67h-39v125h25q41 0 60.5 15.5t19.5 58.5v78h125v-76q0 -41 15 -58t54 -18q9 156 91.5 236t201.5 80q102 0 160.5 -57.5t58.5 -156.5q0 -50 -15 -89
q25 -13 59 -13zM403 125h139q124 0 124 96q0 44 -27 70t-77 26q-68 0 -112 -49t-47 -143zM422 635h127v-126h-127v126zM590 635h127v-126h-127v126zM506 797h127v-126h-127v126z" />
    <glyph glyph-name="sadThreedotsar.fina" unicode="&#x69e;" horiz-adv-x="1255" 
d="M1240 125h36v-125h-53q-76 0 -124 41q-59 -41 -151 -41h-154v-64h-116v65q-47 5 -76 38q-15 -106 -84 -170t-193 -64q-142 0 -211.5 81t-69.5 211v129h125v-117q0 -82 40.5 -130.5t117.5 -48.5t115.5 48t38.5 131v179h125v-77q0 -46 15 -65.5t54 -20.5q4 79 30 141
t67 99.5t91 56.5t105 19q100 0 159.5 -57t59.5 -158q0 -47 -13 -85q29 -16 66 -16zM799 125h149q56 0 85 25t29 71q0 44 -27 70t-76 26q-69 0 -113 -49t-47 -143zM819 635h127v-126h-127v126zM987 635h127v-126h-127v126zM903 797h127v-126h-127v126z" />
    <glyph glyph-name="tahThreedotsar.init" unicode="&#x69f;" horiz-adv-x="644" 
d="M272 635h127v-126h-127v126zM440 635h127v-126h-127v126zM356 797h127v-126h-127v126zM398 441q94 0 149.5 -56.5t55.5 -155.5q0 -106 -67 -167.5t-181 -61.5h-375v125h97v587h125v-378q30 52 81 79.5t115 27.5zM191 125h170q56 0 86.5 25t30.5 71q0 45 -28.5 69.5
t-75.5 24.5q-67 0 -119 -46.5t-64 -143.5z" />
    <glyph glyph-name="tahThreedotsar.medi" unicode="&#x69f;" horiz-adv-x="670" 
d="M655 125h36v-125h-53q-76 0 -126 42q-64 -42 -157 -42h-375v125h97v587h125v-378q30 52 81 79.5t115 27.5q94 0 149.5 -56.5t55.5 -155.5q0 -47 -14 -87q28 -17 66 -17zM191 125h170q56 0 86.5 25t30.5 71q0 45 -28.5 69.5t-75.5 24.5q-67 0 -119 -46.5t-64 -143.5z
M272 635h127v-126h-127v126zM440 635h127v-126h-127v126zM356 797h127v-126h-127v126z" />
    <glyph glyph-name="tahThreedotsar.fina" unicode="&#x69f;" horiz-adv-x="714" 
d="M699 125h36v-125h-53q-73 0 -121 39q-64 -39 -152 -39h-375v125h97v587h125v-378q30 52 81 79.5t115 27.5q94 0 149.5 -56.5t55.5 -155.5q0 -53 -16 -92q25 -12 58 -12zM245 125h170q56 0 86.5 25t30.5 71q0 45 -28.5 69.5t-75.5 24.5q-67 0 -119 -46.5t-64 -143.5z
M326 635h127v-126h-127v126zM494 635h127v-126h-127v126zM410 797h127v-126h-127v126z" />
    <glyph glyph-name="ainThreedotsar.init" unicode="&#x6a0;" horiz-adv-x="463" 
d="M313 125h115v-125h-448v125h118q-42 52 -42 126q0 85 54.5 137.5t142.5 52.5q83 0 148 -52l-50 -97q-37 27 -80 27q-42 0 -67.5 -25t-25.5 -67q0 -40 24 -67q32 -35 111 -35zM106 635h127v-126h-127v126zM274 635h127v-126h-127v126zM190 797h127v-126h-127v126z" />
    <glyph glyph-name="ainThreedotsar.medi" unicode="&#x6a0;" horiz-adv-x="586" 
d="M452 125h154v-125h-626v125h189l-65 142q-15 32 -31 43.5t-47 11.5v109h343q76 0 119 -38t43 -103q0 -40 -25 -98q-10 -20 -20 -35q-16 -23 -34 -32zM357 151q17 22 31 52q15 33 15 52q0 57 -69 57h-121l79 -187h17q28 0 48 26zM131 635h127v-126h-127v126zM299 635h127
v-126h-127v126zM215 797h127v-126h-127v126z" />
    <glyph glyph-name="ainThreedotsar.fina" unicode="&#x6a0;" horiz-adv-x="629" 
d="M649 0h-385q-118 0 -118 -84q0 -85 134 -85q100 0 177 42l53 -103q-94 -64 -239 -64q-117 0 -185 54t-68 157q0 93 55 145t142 60l-67 145q-15 32 -30.5 43.5t-47.5 11.5v109h343q76 0 119 -38t43 -103q0 -43 -25 -98q-10 -20 -20 -35q-14 -22 -34 -32h153v-125zM447 255
q0 57 -70 57h-121q2 -3 11 -24l69 -163h17q29 0 47 26q16 21 32 53q15 32 15 51zM175 635h127v-126h-127v126zM343 635h127v-126h-127v126zM259 797h127v-126h-127v126z" />
    <glyph glyph-name="dotlessfehar.init" unicode="&#x6a1;" horiz-adv-x="513" 
d="M250 587q103 0 158.5 -62t55.5 -180v-75q0 -127 -66.5 -198.5t-181.5 -71.5h-236v125h233q60 0 88.5 23t33.5 67q-41 -44 -116 -44q-85 0 -134.5 52t-49.5 146q0 100 57.5 159t157.5 59zM250 275q42 0 66 24.5t24 71.5t-24.5 72.5t-65.5 25.5q-42 0 -66.5 -26t-24.5 -72
q0 -44 23.5 -70t67.5 -26z" />
    <glyph glyph-name="dotlessfehar.medi" unicode="&#x6a1;" horiz-adv-x="535" 
d="M425 125h130v-125h-179q-84 0 -135 48q-51 -48 -129 -48h-132v125h127q-46 45 -46 127q0 84 54 136.5t153 52.5q100 0 153 -50.5t53 -131.5q0 -87 -49 -134zM269 122q40 0 64 27.5t24 72.5q0 44 -24 69.5t-64 25.5q-41 0 -64.5 -26.5t-23.5 -69.5q0 -44 23.5 -71.5
t64.5 -27.5z" />
    <glyph glyph-name="dotlessfehar.fina" unicode="&#x6a1;" horiz-adv-x="993" 
d="M882 125h131v-125h-167q-97 0 -147 46q-46 -46 -142 -46h-237q-270 0 -270 252v113h119v-106q0 -134 159 -134h237q-47 46 -47 125q0 86 54 138.5t153 52.5q101 0 154 -50.5t53 -132.5q0 -86 -50 -133zM727 122q40 0 64 28t24 72q0 45 -24 70t-64 25q-41 0 -64.5 -26
t-23.5 -70t23.5 -71.5t64.5 -27.5z" />
    <glyph glyph-name="fehDotbelowar.init" unicode="&#x6a2;" horiz-adv-x="513" 
d="M250 587q103 0 158.5 -62t55.5 -180v-75q0 -127 -66.5 -198.5t-181.5 -71.5h-236v125h233q60 0 88.5 23t33.5 67q-41 -44 -116 -44q-85 0 -134.5 52t-49.5 146q0 100 57.5 159t157.5 59zM250 275q42 0 66 24.5t24 71.5t-24.5 72.5t-65.5 25.5q-42 0 -66.5 -26t-24.5 -72
q0 -44 23.5 -70t67.5 -26zM150 -61h127v-126h-127v126z" />
    <glyph glyph-name="fehDotbelowar.medi" unicode="&#x6a2;" horiz-adv-x="535" 
d="M425 125h130v-125h-179q-84 0 -135 48q-51 -48 -129 -48h-132v125h127q-46 45 -46 127q0 84 54 136.5t153 52.5q100 0 153 -50.5t53 -131.5q0 -87 -49 -134zM269 122q40 0 64 27.5t24 72.5q0 44 -24 69.5t-64 25.5q-41 0 -64.5 -26.5t-23.5 -69.5q0 -44 23.5 -71.5
t64.5 -27.5zM183 -61h127v-126h-127v126z" />
    <glyph glyph-name="fehDotbelowar.fina" unicode="&#x6a2;" horiz-adv-x="993" 
d="M882 125h131v-125h-167q-97 0 -147 46q-46 -46 -142 -46h-237q-270 0 -270 252v113h119v-106q0 -134 159 -134h237q-47 46 -47 125q0 86 54 138.5t153 52.5q101 0 154 -50.5t53 -132.5q0 -86 -50 -133zM727 122q40 0 64 28t24 72q0 45 -24 70t-64 25q-41 0 -64.5 -26
t-23.5 -70t23.5 -71.5t64.5 -27.5zM635 -61h127v-126h-127v126z" />
    <glyph glyph-name="fehDotaboveDotbelowar.init" unicode="&#x6a3;" horiz-adv-x="513" 
d="M250 587q103 0 158.5 -62t55.5 -180v-75q0 -127 -66.5 -198.5t-181.5 -71.5h-236v125h233q60 0 88.5 23t33.5 67q-41 -44 -116 -44q-85 0 -134.5 52t-49.5 146q0 100 57.5 159t157.5 59zM250 275q42 0 66 24.5t24 71.5t-24.5 72.5t-65.5 25.5q-42 0 -66.5 -26t-24.5 -72
q0 -44 23.5 -70t67.5 -26zM187 780h127v-126h-127v126zM150 -61h127v-126h-127v126z" />
    <glyph glyph-name="fehDotaboveDotbelowar.medi" unicode="&#x6a3;" horiz-adv-x="535" 
d="M425 125h130v-125h-179q-84 0 -135 48q-51 -48 -129 -48h-132v125h127q-46 45 -46 127q0 84 54 136.5t153 52.5q100 0 153 -50.5t53 -131.5q0 -87 -49 -134zM269 122q40 0 64 27.5t24 72.5q0 44 -24 69.5t-64 25.5q-41 0 -64.5 -26.5t-23.5 -69.5q0 -44 23.5 -71.5
t64.5 -27.5zM204 636h127v-126h-127v126zM183 -61h127v-126h-127v126z" />
    <glyph glyph-name="fehDotaboveDotbelowar.fina" unicode="&#x6a3;" horiz-adv-x="993" 
d="M882 125h131v-125h-167q-97 0 -147 46q-46 -46 -142 -46h-237q-270 0 -270 252v113h119v-106q0 -134 159 -134h237q-47 46 -47 125q0 86 54 138.5t153 52.5q101 0 154 -50.5t53 -132.5q0 -86 -50 -133zM727 122q40 0 64 28t24 72q0 45 -24 70t-64 25q-41 0 -64.5 -26
t-23.5 -70t23.5 -71.5t64.5 -27.5zM659 636h127v-126h-127v126zM635 -61h127v-126h-127v126z" />
    <glyph glyph-name="vehar" unicode="&#x6a4;" horiz-adv-x="961" arabic-form="isolated" 
d="M697 587q103 0 158.5 -62t55.5 -180v-75q0 -127 -66.5 -198.5t-181.5 -71.5h-341q-146 0 -208 69.5t-62 181.5v114h119v-106q0 -134 159 -134h330q60 0 88.5 23t33.5 67q-41 -44 -116 -44q-85 0 -134.5 52t-49.5 146q0 100 57.5 159t157.5 59zM697 275q42 0 66 24.5
t24 71.5t-24.5 72.5t-65.5 25.5q-42 0 -66.5 -26t-24.5 -72q0 -44 23.5 -70t67.5 -26zM550 780h127v-126h-127v126zM718 780h127v-126h-127v126zM634 942h127v-126h-127v126z" />
    <glyph glyph-name="fehThreedotsbelowar.init" unicode="&#x6a5;" horiz-adv-x="513" 
d="M250 587q103 0 158.5 -62t55.5 -180v-75q0 -127 -66.5 -198.5t-181.5 -71.5h-236v125h233q60 0 88.5 23t33.5 67q-41 -44 -116 -44q-85 0 -134.5 52t-49.5 146q0 100 57.5 159t157.5 59zM250 275q42 0 66 24.5t24 71.5t-24.5 72.5t-65.5 25.5q-42 0 -66.5 -26t-24.5 -72
q0 -44 23.5 -70t67.5 -26zM359 -187h-127v126h127v-126zM191 -187h-127v126h127v-126zM276 -346h-127v126h127v-126z" />
    <glyph glyph-name="fehThreedotsbelowar.medi" unicode="&#x6a5;" horiz-adv-x="535" 
d="M425 125h130v-125h-179q-84 0 -135 48q-51 -48 -129 -48h-132v125h127q-46 45 -46 127q0 84 54 136.5t153 52.5q100 0 153 -50.5t53 -131.5q0 -87 -49 -134zM269 122q40 0 64 27.5t24 72.5q0 44 -24 69.5t-64 25.5q-41 0 -64.5 -26.5t-23.5 -69.5q0 -44 23.5 -71.5
t64.5 -27.5zM392 -187h-127v126h127v-126zM224 -187h-127v126h127v-126zM309 -346h-127v126h127v-126z" />
    <glyph glyph-name="fehThreedotsbelowar.fina" unicode="&#x6a5;" horiz-adv-x="993" 
d="M882 125h131v-125h-167q-97 0 -147 46q-46 -46 -142 -46h-237q-270 0 -270 252v113h119v-106q0 -134 159 -134h237q-47 46 -47 125q0 86 54 138.5t153 52.5q101 0 154 -50.5t53 -132.5q0 -86 -50 -133zM727 122q40 0 64 28t24 72q0 45 -24 70t-64 25q-41 0 -64.5 -26
t-23.5 -70t23.5 -71.5t64.5 -27.5zM844 -187h-127v126h127v-126zM676 -187h-127v126h127v-126zM761 -346h-127v126h127v-126z" />
    <glyph glyph-name="pehehar" unicode="&#x6a6;" horiz-adv-x="961" arabic-form="isolated" 
d="M697 587q103 0 158.5 -62t55.5 -180v-75q0 -127 -66.5 -198.5t-181.5 -71.5h-341q-146 0 -208 69.5t-62 181.5v114h119v-106q0 -134 159 -134h330q60 0 88.5 23t33.5 67q-41 -44 -116 -44q-85 0 -134.5 52t-49.5 146q0 100 57.5 159t157.5 59zM697 275q42 0 66 24.5
t24 71.5t-24.5 72.5t-65.5 25.5q-42 0 -66.5 -26t-24.5 -72q0 -44 23.5 -70t67.5 -26zM550 781h127v-126h-127v126zM718 781h127v-126h-127v126zM551 942h127v-126h-127v126zM718 942h127v-126h-127v126z" />
    <glyph glyph-name="qafDotabovear.init" unicode="&#x6a7;" horiz-adv-x="513" 
d="M250 587q103 0 158.5 -62t55.5 -180v-75q0 -127 -66.5 -198.5t-181.5 -71.5h-236v125h233q60 0 88.5 23t33.5 67q-41 -44 -116 -44q-85 0 -134.5 52t-49.5 146q0 100 57.5 159t157.5 59zM250 275q42 0 66 24.5t24 71.5t-24.5 72.5t-65.5 25.5q-42 0 -66.5 -26t-24.5 -72
q0 -44 23.5 -70t67.5 -26zM187 780h127v-126h-127v126z" />
    <glyph glyph-name="qafDotabovear.medi" unicode="&#x6a7;" horiz-adv-x="535" 
d="M425 125h130v-125h-179q-84 0 -135 48q-51 -48 -129 -48h-132v125h127q-46 45 -46 127q0 84 54 136.5t153 52.5q100 0 153 -50.5t53 -131.5q0 -87 -49 -134zM269 122q40 0 64 27.5t24 72.5q0 44 -24 69.5t-64 25.5q-41 0 -64.5 -26.5t-23.5 -69.5q0 -44 23.5 -71.5
t64.5 -27.5zM204 636h127v-126h-127v126z" />
    <glyph glyph-name="qafDotabovear.fina" unicode="&#x6a7;" horiz-adv-x="873" 
d="M893 125v-125h-101q-34 -195 -241 -195h-243q-141 0 -205.5 69.5t-64.5 182.5v97h119v-88q0 -136 159 -136h243q88 0 109 71h-54q-143 0 -198 75q-40 54 -40 138q0 103 57 165t157 62q88 0 141 -44q68 -56 68 -212v-60h94zM521 156q26 -32 96 -32h57v56q0 92 -30 120
q-21 20 -56 20q-40 0 -63.5 -26.5t-23.5 -72.5q0 -40 20 -65zM528 636h127v-126h-127v126z" />
    <glyph glyph-name="qafThreedotsabovear.init" unicode="&#x6a8;" horiz-adv-x="513" 
d="M250 587q103 0 158.5 -62t55.5 -180v-75q0 -127 -66.5 -198.5t-181.5 -71.5h-236v125h233q60 0 88.5 23t33.5 67q-41 -44 -116 -44q-85 0 -134.5 52t-49.5 146q0 100 57.5 159t157.5 59zM250 275q42 0 66 24.5t24 71.5t-24.5 72.5t-65.5 25.5q-42 0 -66.5 -26t-24.5 -72
q0 -44 23.5 -70t67.5 -26zM103 779h127v-126h-127v126zM271 779h127v-126h-127v126zM187 941h127v-126h-127v126z" />
    <glyph glyph-name="qafThreedotsabovear.medi" unicode="&#x6a8;" horiz-adv-x="535" 
d="M425 125h130v-125h-179q-84 0 -135 48q-51 -48 -129 -48h-132v125h127q-46 45 -46 127q0 84 54 136.5t153 52.5q100 0 153 -50.5t53 -131.5q0 -87 -49 -134zM269 122q40 0 64 27.5t24 72.5q0 44 -24 69.5t-64 25.5q-41 0 -64.5 -26.5t-23.5 -69.5q0 -44 23.5 -71.5
t64.5 -27.5zM120 635h127v-126h-127v126zM288 635h127v-126h-127v126zM204 797h127v-126h-127v126z" />
    <glyph glyph-name="qafThreedotsabovear.fina" unicode="&#x6a8;" horiz-adv-x="873" 
d="M893 125v-125h-101q-34 -195 -241 -195h-243q-141 0 -205.5 69.5t-64.5 182.5v97h119v-88q0 -136 159 -136h243q88 0 109 71h-54q-143 0 -198 75q-40 54 -40 138q0 103 57 165t157 62q88 0 141 -44q68 -56 68 -212v-60h94zM521 156q26 -32 96 -32h57v56q0 92 -30 120
q-21 20 -56 20q-40 0 -63.5 -26.5t-23.5 -72.5q0 -40 20 -65zM444 635h127v-126h-127v126zM612 635h127v-126h-127v126zM528 797h127v-126h-127v126z" />
    <glyph glyph-name="kehehar" unicode="&#x6a9;" horiz-adv-x="898" arabic-form="isolated" 
d="M888 747v-136l-270 -98l71 -172q37 -88 37 -156q0 -83 -47.5 -134t-146.5 -51h-213q-271 0 -271 252v113h119v-105q0 -135 160 -135h195q78 0 78 74q0 32 -24 90l-86 205v105z" />
    <glyph glyph-name="kafswashar.init" unicode="&#x6aa;" horiz-adv-x="1361" 
d="M1252 316q55 -53 55 -176v-140h-1327v125h1201v27q0 53 -22 73q-22 22 -82 22h-1018v69q0 142 56 216q41 53 108 78t176 25h177v-119h-182q-73 0 -112 -11t-62 -39q-27 -35 -28 -97h879q125 0 181 -53z" />
    <glyph glyph-name="kafswashar.medi" unicode="&#x6aa;" horiz-adv-x="1404" 
d="M1404 125h20v-125h-41q-95 0 -133 70q-5 -9 -11 -17q-41 -53 -149 -53h-1110v125h1120q59 0 79 17q18 18 18 44t-15 42q-19 20 -81 20h-1042v68q0 139 53 214q39 55 109 80t181 25h174v-119h-182q-74 0 -113 -10.5t-61 -39.5q-27 -35 -28 -96h918q124 0 171 -59
q25 -32 32.5 -85.5t22.5 -72.5q24 -28 68 -28z" />
    <glyph glyph-name="kafswashar.fina" unicode="&#x6aa;" horiz-adv-x="1821" 
d="M1821 125h20v-125h-41q-95 0 -133 70q-5 -9 -11 -17q-41 -53 -149 -53h-1188q-271 0 -271 252v76h119v-68q0 -135 160 -135h1190q59 0 79 17q18 18 18 44t-15 42q-19 20 -81 20h-1042v68q0 139 53 214q39 55 109 80t181 25h174v-119h-182q-74 0 -113 -10.5t-61 -39.5
q-27 -35 -28 -96h918q124 0 171 -59q25 -32 32.5 -85.5t22.5 -72.5q25 -28 68 -28z" />
    <glyph glyph-name="kafRingar.init" unicode="&#x6ab;" horiz-adv-x="460" 
d="M450 747v-136l-50 -18q28 -28 28 -75q0 -46 -28.5 -74.5t-74.5 -28.5t-75 28.5t-29 74.5v10l-41 -15l71 -172q37 -88 37 -156q0 -83 -47.5 -134t-146.5 -51h-114v125h104q78 0 78 74q0 32 -24 90l-86 205v105zM324 477q19 0 30.5 11.5t11.5 29.5q0 19 -11.5 30.5
t-30.5 11.5t-30.5 -11.5t-11.5 -30.5q0 -18 11.5 -29.5t30.5 -11.5z" />
    <glyph glyph-name="kafRingar.medi" unicode="&#x6ab;" horiz-adv-x="490" 
d="M416 125h94v-125h-132q-54 0 -86 19.5t-57 66.5q-32 -86 -132 -86h-123v125h104q78 0 78 74q0 29 -27 95l-83 200v105l398 148v-136l-50 -18q28 -28 28 -75q0 -46 -28.5 -74.5t-74.5 -28.5t-75 28.5t-29 74.5v10l-41 -15l132 -319q17 -42 39 -55.5t65 -13.5zM324 477
q19 0 30.5 11.5t11.5 29.5q0 19 -11.5 30.5t-30.5 11.5t-30.5 -11.5t-11.5 -30.5q0 -18 11.5 -29.5t30.5 -11.5z" />
    <glyph glyph-name="kafRingar.fina" unicode="&#x6ab;" horiz-adv-x="923" 
d="M850 125h94v-125h-132q-54 0 -86 19.5t-57 66.5q-32 -86 -132 -86h-218q-271 0 -271 252v113h119v-105q0 -135 160 -135h191q78 0 78 74q0 29 -27 95l-83 200v105l398 148v-136l-51 -18q28 -28 28 -75q0 -46 -28.5 -74.5t-74.5 -28.5t-75 28.5t-29 74.5v10l-40 -15
l132 -319q17 -42 39 -55.5t65 -13.5zM758 477q19 0 30.5 11.5t11.5 29.5q0 19 -11.5 30.5t-30.5 11.5t-30.5 -11.5t-11.5 -30.5q0 -18 11.5 -29.5t30.5 -11.5z" />
    <glyph glyph-name="kafDotabovear.init" unicode="&#x6ac;" horiz-adv-x="460" 
d="M180 513l71 -172q37 -88 37 -156q0 -83 -47.5 -134t-146.5 -51h-114v125h104q78 0 78 74q0 32 -24 90l-86 205v105l398 148v-136zM161 888h127v-126h-127v126z" />
    <glyph glyph-name="kafDotabovear.medi" unicode="&#x6ac;" horiz-adv-x="490" 
d="M416 125h94v-125h-132q-54 0 -86 19.5t-57 66.5q-32 -86 -132 -86h-123v125h104q78 0 78 74q0 29 -27 95l-83 200v105l398 148v-136l-270 -98l132 -319q17 -42 39 -55.5t65 -13.5zM161 888h127v-126h-127v126z" />
    <glyph glyph-name="kafDotabovear.fina" unicode="&#x6ac;" horiz-adv-x="890" 
d="M884 125h26v-125h-64q-101 0 -140 72q-42 -72 -158 -72h-225q-275 0 -275 256v109h122v-101q0 -65 34 -102t116 -37h239q56 0 78.5 25t22.5 76v486h125v-485q0 -51 21 -76.5t78 -25.5zM536 381v-79h-222v63h155v18q0 32 -35 32h-96v49l60 107h71l-53 -94h29
q42 0 66.5 -25.5t24.5 -70.5zM361 761h127v-126h-127v126z" />
    <glyph glyph-name="ngar" unicode="&#x6ad;" horiz-adv-x="833" arabic-form="isolated" 
d="M785 712v-490q0 -100 -58 -161t-172 -61h-232q-275 0 -275 256v109h122v-101q0 -67 33.5 -103t116.5 -36h230q110 0 110 103v484h125zM469 365v18q0 32 -35 32h-96v49l60 107h71l-53 -94h29q42 0 66.5 -25.5t24.5 -70.5v-79h-222v63h155zM277 760h127v-126h-127v126z
M445 760h127v-126h-127v126zM361 922h127v-126h-127v126z" />
    <glyph glyph-name="kafThreedotsbelowar.init" unicode="&#x6ae;" horiz-adv-x="460" 
d="M180 513l71 -172q37 -88 37 -156q0 -83 -47.5 -134t-146.5 -51h-114v125h104q78 0 78 74q0 32 -24 90l-86 205v105l398 148v-136zM269 -199h-127v126h127v-126zM101 -199h-127v126h127v-126zM186 -358h-127v126h127v-126z" />
    <glyph glyph-name="kafThreedotsbelowar.medi" unicode="&#x6ae;" horiz-adv-x="490" 
d="M416 125h94v-125h-132q-54 0 -86 19.5t-57 66.5q-32 -86 -132 -86h-123v125h104q78 0 78 74q0 29 -27 95l-83 200v105l398 148v-136l-270 -98l132 -319q17 -42 39 -55.5t65 -13.5zM352 -199h-127v126h127v-126zM184 -199h-127v126h127v-126zM269 -358h-127v126h127v-126z
" />
    <glyph glyph-name="kafThreedotsbelowar.fina" unicode="&#x6ae;" horiz-adv-x="890" 
d="M884 125h26v-125h-64q-101 0 -140 72q-42 -72 -158 -72h-225q-275 0 -275 256v109h122v-101q0 -65 34 -102t116 -37h239q56 0 78.5 25t22.5 76v486h125v-485q0 -51 21 -76.5t78 -25.5zM536 381v-79h-222v63h155v18q0 32 -35 32h-96v49l60 107h71l-53 -94h29
q42 0 66.5 -25.5t24.5 -70.5zM575 -187h-127v126h127v-126zM407 -187h-127v126h127v-126zM492 -346h-127v126h127v-126z" />
    <glyph glyph-name="gafar" unicode="&#x6af;" horiz-adv-x="898" arabic-form="isolated" 
d="M888 747v-136l-270 -98l71 -172q37 -88 37 -156q0 -83 -47.5 -134t-146.5 -51h-213q-271 0 -271 252v113h119v-105q0 -135 160 -135h195q78 0 78 74q0 32 -24 90l-86 205v105zM877 887v-75l-396 -147v74z" />
    <glyph glyph-name="gafRingar.init" unicode="&#x6b0;" horiz-adv-x="460" 
d="M450 747v-136l-50 -18q28 -28 28 -75q0 -46 -28.5 -74.5t-74.5 -28.5t-75 28.5t-29 74.5v10l-41 -15l71 -172q37 -88 37 -156q0 -83 -47.5 -134t-146.5 -51h-114v125h104q78 0 78 74q0 32 -24 90l-86 205v105zM324 477q19 0 30.5 11.5t11.5 29.5q0 19 -11.5 30.5
t-30.5 11.5t-30.5 -11.5t-11.5 -30.5q0 -18 11.5 -29.5t30.5 -11.5zM439 887v-75l-396 -147v74z" />
    <glyph glyph-name="gafRingar.medi" unicode="&#x6b0;" horiz-adv-x="490" 
d="M416 125h94v-125h-132q-54 0 -86 19.5t-57 66.5q-32 -86 -132 -86h-123v125h104q78 0 78 74q0 29 -27 95l-83 200v105l398 148v-136l-50 -18q28 -28 28 -75q0 -46 -28.5 -74.5t-74.5 -28.5t-75 28.5t-29 74.5v10l-41 -15l132 -319q17 -42 39 -55.5t65 -13.5zM324 477
q19 0 30.5 11.5t11.5 29.5q0 19 -11.5 30.5t-30.5 11.5t-30.5 -11.5t-11.5 -30.5q0 -18 11.5 -29.5t30.5 -11.5zM439 887v-75l-396 -147v74z" />
    <glyph glyph-name="gafRingar.fina" unicode="&#x6b0;" horiz-adv-x="923" 
d="M850 125h94v-125h-132q-54 0 -86 19.5t-57 66.5q-32 -86 -132 -86h-218q-271 0 -271 252v113h119v-105q0 -135 160 -135h191q78 0 78 74q0 29 -27 95l-83 200v105l398 148v-136l-51 -18q28 -28 28 -75q0 -46 -28.5 -74.5t-74.5 -28.5t-75 28.5t-29 74.5v10l-40 -15
l132 -319q17 -42 39 -55.5t65 -13.5zM758 477q19 0 30.5 11.5t11.5 29.5q0 19 -11.5 30.5t-30.5 11.5t-30.5 -11.5t-11.5 -30.5q0 -18 11.5 -29.5t30.5 -11.5zM873 887v-75l-396 -147v74z" />
    <glyph glyph-name="ngoehar" unicode="&#x6b1;" horiz-adv-x="898" arabic-form="isolated" 
d="M509 1018h127v-126h-127v126zM683 1018h127v-126h-127v126zM888 747v-136l-270 -98l71 -172q37 -88 37 -156q0 -83 -47.5 -134t-146.5 -51h-213q-271 0 -271 252v113h119v-105q0 -135 160 -135h195q78 0 78 74q0 32 -24 90l-86 205v105zM877 887v-75l-396 -147v74z" />
    <glyph glyph-name="gafTwodotsbelowar.init" unicode="&#x6b2;" horiz-adv-x="460" 
d="M-27 -73h127v-126h-127v126zM147 -73h127v-126h-127v126zM180 513l71 -172q37 -88 37 -156q0 -83 -47.5 -134t-146.5 -51h-114v125h104q78 0 78 74q0 32 -24 90l-86 205v105l398 148v-136zM439 887v-75l-396 -147v74z" />
    <glyph glyph-name="gafTwodotsbelowar.medi" unicode="&#x6b2;" horiz-adv-x="490" 
d="M56 -73h127v-126h-127v126zM230 -73h127v-126h-127v126zM416 125h94v-125h-132q-54 0 -86 19.5t-57 66.5q-32 -86 -132 -86h-123v125h104q78 0 78 74q0 29 -27 95l-83 200v105l398 148v-136l-270 -98l132 -319q17 -42 39 -55.5t65 -13.5zM439 887v-75l-396 -147v74z" />
    <glyph glyph-name="gafTwodotsbelowar.fina" unicode="&#x6b2;" horiz-adv-x="923" 
d="M252 -61h127v-126h-127v126zM426 -61h127v-126h-127v126zM850 125h94v-125h-132q-54 0 -86 19.5t-57 66.5q-32 -86 -132 -86h-218q-271 0 -271 252v113h119v-105q0 -135 160 -135h191q78 0 78 74q0 29 -27 95l-83 200v105l398 148v-136l-270 -98l132 -319
q17 -42 39 -55.5t65 -13.5zM873 887v-75l-396 -147v74z" />
    <glyph glyph-name="guehar" unicode="&#x6b3;" horiz-adv-x="898" arabic-form="isolated" 
d="M339 -215h127v-126h-127v126zM339 -61h127v-126h-127v126zM888 747v-136l-270 -98l71 -172q37 -88 37 -156q0 -83 -47.5 -134t-146.5 -51h-213q-271 0 -271 252v113h119v-105q0 -135 160 -135h195q78 0 78 74q0 32 -24 90l-86 205v105zM877 887v-75l-396 -147v74z" />
    <glyph glyph-name="gafThreedotsar.init" unicode="&#x6b4;" horiz-adv-x="460" 
d="M74 1018h127v-126h-127v126zM242 1018h127v-126h-127v126zM158 1180h127v-126h-127v126zM180 513l71 -172q37 -88 37 -156q0 -83 -47.5 -134t-146.5 -51h-114v125h104q78 0 78 74q0 32 -24 90l-86 205v105l398 148v-136zM439 887v-75l-396 -147v74z" />
    <glyph glyph-name="gafThreedotsar.medi" unicode="&#x6b4;" horiz-adv-x="490" 
d="M74 1018h127v-126h-127v126zM242 1018h127v-126h-127v126zM158 1180h127v-126h-127v126zM416 125h94v-125h-132q-54 0 -86 19.5t-57 66.5q-32 -86 -132 -86h-123v125h104q78 0 78 74q0 29 -27 95l-83 200v105l398 148v-136l-270 -98l132 -319q17 -42 39 -55.5t65 -13.5z
M439 887v-75l-396 -147v74z" />
    <glyph glyph-name="gafThreedotsar.fina" unicode="&#x6b4;" horiz-adv-x="923" 
d="M508 1018h127v-126h-127v126zM676 1018h127v-126h-127v126zM592 1180h127v-126h-127v126zM850 125h94v-125h-132q-54 0 -86 19.5t-57 66.5q-32 -86 -132 -86h-218q-271 0 -271 252v113h119v-105q0 -135 160 -135h191q78 0 78 74q0 29 -27 95l-83 200v105l398 148v-136
l-270 -98l132 -319q17 -42 39 -55.5t65 -13.5zM873 887v-75l-396 -147v74z" />
    <glyph glyph-name="lamVabovear.init" unicode="&#x6b5;" horiz-adv-x="282" 
d="M-20 0v125h26q54 0 73 26q17 23 17 100v297h125v-304q0 -113 -33 -166q-49 -78 -156 -78h-52zM161 654l51 118h64l-81 -176h-73l-82 176h67z" />
    <glyph glyph-name="lamVabovear.medi" unicode="&#x6b5;" horiz-adv-x="320" 
d="M320 125h20v-125h-46q-112 0 -150 73q-40 -73 -124 -73h-40v125h23q50 0 72 24t22 78v321h125v-321q0 -51 20 -76.5t78 -25.5zM163 654l51 118h64l-81 -176h-73l-82 176h67z" />
    <glyph glyph-name="lamVabovear.fina" unicode="&#x6b5;" horiz-adv-x="667" 
d="M665 125h22v-125h-40q-49 0 -81 30q-29 -226 -263 -226q-261 0 -261 277v65h124v-57q0 -160 140 -160q78 0 109 40.5t31 126.5v452h123v-318q0 -54 22.5 -79.5t73.5 -25.5zM512 654l51 118h64l-81 -176h-73l-82 176h67z" />
    <glyph glyph-name="lamDotabovear.init" unicode="&#x6b6;" horiz-adv-x="282" 
d="M-20 0v125h26q54 0 73 26q17 23 17 100v297h125v-304q0 -113 -33 -166q-49 -78 -156 -78h-52zM95 729h127v-126h-127v126z" />
    <glyph glyph-name="lamDotabovear.medi" unicode="&#x6b6;" horiz-adv-x="320" 
d="M320 125h20v-125h-46q-112 0 -150 73q-40 -73 -124 -73h-40v125h23q50 0 72 24t22 78v321h125v-321q0 -51 20 -76.5t78 -25.5zM97 729h127v-126h-127v126z" />
    <glyph glyph-name="lamDotabovear.fina" unicode="&#x6b6;" horiz-adv-x="667" 
d="M665 125h22v-125h-40q-49 0 -81 30q-29 -226 -263 -226q-261 0 -261 277v65h124v-57q0 -160 140 -160q78 0 109 40.5t31 126.5v452h123v-318q0 -54 22.5 -79.5t73.5 -25.5zM446 729h127v-126h-127v126z" />
    <glyph glyph-name="lamThreedotsabovear.init" unicode="&#x6b7;" horiz-adv-x="282" 
d="M-20 0v125h26q54 0 73 26q17 23 17 100v297h125v-304q0 -113 -33 -166q-49 -78 -156 -78h-52zM11 728h127v-126h-127v126zM179 728h127v-126h-127v126zM95 890h127v-126h-127v126z" />
    <glyph glyph-name="lamThreedotsabovear.medi" unicode="&#x6b7;" horiz-adv-x="320" 
d="M320 125h20v-125h-46q-112 0 -150 73q-40 -73 -124 -73h-40v125h23q50 0 72 24t22 78v321h125v-321q0 -51 20 -76.5t78 -25.5zM13 728h127v-126h-127v126zM181 728h127v-126h-127v126zM97 890h127v-126h-127v126z" />
    <glyph glyph-name="lamThreedotsabovear.fina" unicode="&#x6b7;" horiz-adv-x="667" 
d="M665 125h22v-125h-40q-49 0 -81 30q-29 -226 -263 -226q-261 0 -261 277v65h124v-57q0 -160 140 -160q78 0 109 40.5t31 126.5v452h123v-318q0 -54 22.5 -79.5t73.5 -25.5zM362 728h127v-126h-127v126zM530 728h127v-126h-127v126zM446 890h127v-126h-127v126z" />
    <glyph glyph-name="lamThreedotsbelowar.init" unicode="&#x6b8;" horiz-adv-x="282" 
d="M-20 0v125h26q54 0 73 26q17 23 17 100v461h125v-468q0 -112 -33 -166q-49 -78 -156 -78h-52zM269 -187h-127v126h127v-126zM101 -187h-127v126h127v-126zM186 -346h-127v126h127v-126z" />
    <glyph glyph-name="lamThreedotsbelowar.medi" unicode="&#x6b8;" horiz-adv-x="320" 
d="M320 125h20v-125h-46q-112 0 -150 73q-40 -73 -124 -73h-40v125h23q50 0 72 24t22 78v485h125v-485q0 -51 20 -76.5t78 -25.5zM288 -187h-127v126h127v-126zM120 -187h-127v126h127v-126zM205 -346h-127v126h127v-126z" />
    <glyph glyph-name="lamThreedotsbelowar.fina" unicode="&#x6b8;" horiz-adv-x="667" 
d="M665 125h22v-125h-40q-49 0 -81 29q-27 -225 -261 -225q-138 0 -200.5 74t-62.5 203v65h124v-57q0 -160 142 -160q78 0 108 40.5t30 126.5v539h123v-405q0 -54 22.5 -79.5t73.5 -25.5zM449 -382h-127v126h127v-126zM281 -382h-127v126h127v-126zM366 -541h-127v126h127
v-126z" />
    <glyph glyph-name="noonDotbelowar.init" unicode="&#x6b9;" horiz-adv-x="288" 
d="M72 -61h127v-126h-127v126zM-20 0v125h31q50 0 72 22.5t22 73.5v144h125v-153q0 -103 -54 -157.5t-153 -54.5h-43zM105 578h127v-126h-127v126z" />
    <glyph glyph-name="noonDotbelowar.medi" unicode="&#x6b9;" horiz-adv-x="332" 
d="M84 -61h127v-126h-127v126zM326 125h26v-125h-67q-96 0 -135 71q-39 -71 -124 -71h-46v125h25q53 0 75.5 23t22.5 77v140h125v-139q0 -50 20 -75.5t78 -25.5zM103 578h127v-126h-127v126z" />
    <glyph glyph-name="noonDotbelowar.fina" unicode="&#x6b9;" horiz-adv-x="704" 
d="M262 -256h127v-126h-127v126zM702 125h22v-125h-40q-50 0 -83 31q-17 -103 -86 -164.5t-190 -61.5q-142 0 -211.5 81t-69.5 211v268h125v-256q0 -82 40.5 -130.5t117.5 -48.5t115.5 48t38.5 131v256h125v-135q0 -54 22.5 -79.5t73.5 -25.5zM262 570h127v-126h-127v126z
" />
    <glyph glyph-name="noonghunnaar" unicode="&#x6ba;" horiz-adv-x="650" arabic-form="isolated" 
d="M327 -70q77 0 115.5 48t38.5 131v256h125v-266q0 -130 -70 -212t-211 -82q-142 0 -211.5 81t-69.5 211v268h125v-256q0 -82 40.5 -130.5t117.5 -48.5z" />
    <glyph glyph-name="rnoonar" unicode="&#x6bb;" horiz-adv-x="650" arabic-form="isolated" 
d="M327 -70q77 0 115.5 48t38.5 131v256h125v-266q0 -130 -70 -212t-211 -82q-142 0 -211.5 81t-69.5 211v268h125v-256q0 -82 40.5 -130.5t117.5 -48.5zM373 618q29 0 50 -19t21 -56q0 -43 -27 -66.5t-89 -34.5l-117 -21v52l35 6l5 171l54 11l-3 -75q29 32 71 32zM300 489
l42 8q46 8 46 38t-26 30q-57 0 -62 -76z" />
    <glyph glyph-name="noonRingar.init" unicode="&#x6bc;" horiz-adv-x="288" 
d="M174 53q57 -24 57 -95q0 -46 -28.5 -74.5t-74.5 -28.5t-75 28.5t-29 74.5q0 21 7 42h-51v125h31q50 0 72 22.5t22 73.5v144h125v-153q0 -105 -56 -159zM128 -83q19 0 30.5 11.5t11.5 29.5q0 19 -11.5 30.5t-30.5 11.5t-30.5 -11.5t-11.5 -30.5q0 -18 11.5 -29.5
t30.5 -11.5zM105 578h127v-126h-127v126z" />
    <glyph glyph-name="noonRingar.medi" unicode="&#x6bc;" horiz-adv-x="332" 
d="M326 125h26v-125h-67q-96 0 -135 71q-9 -16 -17 -24q45 -29 45 -89q0 -46 -28.5 -74.5t-74.5 -28.5t-75 28.5t-29 74.5q0 27 9 46v121h25q53 0 75.5 23t22.5 77v140h125v-139q0 -50 20 -75.5t78 -25.5zM75 -83q19 0 30.5 11.5t11.5 29.5q0 19 -11.5 30.5t-30.5 11.5
t-30.5 -11.5t-11.5 -30.5q0 -18 11.5 -29.5t30.5 -11.5zM103 578h127v-126h-127v126z" />
    <glyph glyph-name="noonRingar.fina" unicode="&#x6bc;" horiz-adv-x="704" 
d="M702 125h22v-125h-40q-50 0 -83 31q-13 -81 -59.5 -137.5t-125.5 -77.5q12 -22 12 -53q0 -46 -28.5 -74.5t-74.5 -28.5t-75 28.5t-29 74.5q0 31 12 53q-96 25 -142.5 100t-46.5 181v268h125v-256q0 -82 40.5 -130.5t117.5 -48.5t115.5 48t38.5 131v256h125v-135
q0 -54 22.5 -79.5t73.5 -25.5zM367 -237q0 19 -11.5 30.5t-30.5 11.5t-30.5 -11.5t-11.5 -30.5q0 -18 11.5 -29.5t30.5 -11.5t30.5 11.5t11.5 29.5zM262 570h127v-126h-127v126z" />
    <glyph glyph-name="noonThreedotsabovear.init" unicode="&#x6bd;" horiz-adv-x="288" 
d="M-20 0v125h31q50 0 72 22.5t22 73.5v144h125v-153q0 -103 -54 -157.5t-153 -54.5h-43zM21 577h127v-126h-127v126zM189 577h127v-126h-127v126zM105 739h127v-126h-127v126z" />
    <glyph glyph-name="noonThreedotsabovear.medi" unicode="&#x6bd;" horiz-adv-x="332" 
d="M326 125h26v-125h-67q-96 0 -135 71q-39 -71 -124 -71h-46v125h25q53 0 75.5 23t22.5 77v140h125v-139q0 -50 20 -75.5t78 -25.5zM19 577h127v-126h-127v126zM187 577h127v-126h-127v126zM103 739h127v-126h-127v126z" />
    <glyph glyph-name="noonThreedotsabovear.fina" unicode="&#x6bd;" horiz-adv-x="704" 
d="M702 125h22v-125h-40q-50 0 -83 31q-17 -103 -86 -164.5t-190 -61.5q-142 0 -211.5 81t-69.5 211v268h125v-256q0 -82 40.5 -130.5t117.5 -48.5t115.5 48t38.5 131v256h125v-135q0 -54 22.5 -79.5t73.5 -25.5zM178 569h127v-126h-127v126zM346 569h127v-126h-127v126z
M262 731h127v-126h-127v126z" />
    <glyph glyph-name="hehDoachashmeear" unicode="&#x6be;" horiz-adv-x="715" arabic-form="isolated" 
d="M436 576q121 0 193 -68.5t72 -190.5v-120q0 -97 -60 -147t-160 -50h-77q-93 0 -139 32q-46 -32 -133 -32h-103v125h111q-34 40 -34 98q0 71 48 116.5t134 45.5q85 0 131 -44t46 -115q0 -67 -34 -101h56q89 0 89 83v89q0 77 -40.5 118.5t-113.5 41.5q-71 0 -130 -42
l-56 92q86 69 200 69zM287 121q35 0 53.5 19.5t18.5 53.5t-19 53t-52 19q-35 0 -54 -19.5t-19 -52.5q0 -32 18.5 -52.5t53.5 -20.5z" />
    <glyph glyph-name="tchehDotabovear.init" unicode="&#x6bf;" horiz-adv-x="556" 
d="M125 642h127v-126h-127v126zM503 279h23v-130h-24q-59 0 -98 -30l-72 -56q-41 -32 -86.5 -47.5t-115.5 -15.5h-150v125h163q73 0 119 39l34 28q24 19 41 26q-23 10 -41 28l-35 34q-38 36 -83 36q-44 0 -88 -40l-59 89q62 76 160 76q84 0 146 -59l70 -66q41 -37 96 -37z
M352 -187h-127v126h127v-126zM184 -187h-127v126h127v-126zM269 -346h-127v126h127v-126z" />
    <glyph glyph-name="tchehDotabovear.medi" unicode="&#x6bf;" horiz-adv-x="595" 
d="M132 642h127v-126h-127v126zM509 125h106v-125h-114q-108 0 -124 91l-25 -22q-75 -69 -189 -69h-183v125h184q70 0 115 34l27 20q32 24 64 30q-34 9 -65 38l-36 34q-37 34 -82 34q-46 0 -89 -40l-58 90q62 76 161 76q83 0 145 -56l68 -62q41 -37 98 -37h17v-114h-23
q-19 0 -31 -3v-11q0 -33 34 -33zM370 -187h-127v126h127v-126zM202 -187h-127v126h127v-126zM287 -346h-127v126h127v-126z" />
    <glyph glyph-name="tchehDotabovear.fina" unicode="&#x6bf;" horiz-adv-x="613" 
d="M154 636h127v-126h-127v126zM544 125h89v-125h-66q-76 0 -112.5 36.5t-38.5 113.5h-53q-203 0 -203 -160q0 -76 44.5 -117.5t121.5 -41.5q91 0 164 60l61 -95q-98 -88 -238 -88q-126 0 -202.5 69.5t-76.5 202.5q0 126 74.5 202t206.5 87l-23 19q-40 33 -82 33
q-52 0 -91 -39l-59 85q66 74 158 74q77 0 141 -58l65 -59q47 -44 95 -44h26v-112h-30v-12q0 -31 29 -31zM298 -15h-77v79h77v-79zM406 -15h-77v79h77v-79zM352 -124h-77v78h77v-78z" />
    <glyph glyph-name="hehHamzaabovear" unicode="&#x6c0;" horiz-adv-x="515" arabic-form="isolated" 
d="M399 390q75 -57 75 -173q0 -103 -60.5 -163t-157.5 -60q-96 0 -152.5 53t-56.5 143q0 71 37 121h-40v120h193q108 0 162 -41zM259 113q43 0 66 27t23 70q0 44 -23.5 70.5t-65.5 26.5t-65.5 -27t-23.5 -70t24 -70t65 -27zM322 571l50 8v-54l-233 -41v54l72 13
q-38 30 -38 77q0 42 25.5 65.5t67.5 23.5q38 0 64 -20l-24 -48q-17 12 -34 12q-19 0 -30 -11.5t-11 -31.5q0 -28 23.5 -41.5t67.5 -5.5z" />
    <glyph glyph-name="hehgoalar" unicode="&#x6c1;" horiz-adv-x="515" arabic-form="isolated" 
d="M399 390q75 -57 75 -173q0 -103 -60.5 -163t-157.5 -60q-96 0 -152.5 53t-56.5 143q0 71 37 121h-40v120h193q108 0 162 -41zM259 113q43 0 66 27t23 70q0 44 -23.5 70.5t-65.5 26.5t-65.5 -27t-23.5 -70t24 -70t65 -27z" />
    <glyph glyph-name="hehgoalHamzaabovear.fina" unicode="&#x6c2;" horiz-adv-x="585" 
d="M581 125h24v-125h-57q-93 0 -146 56.5t-53 161.5v22h-74q-106 0 -106 -108v-132h-125v154q0 95 55.5 153t157.5 58h217v-141q0 -53 26 -76t81 -23zM350 505l50 8v-54l-233 -41v54l72 13q-38 30 -38 77q0 42 25.5 65.5t67.5 23.5q38 0 64 -20l-24 -48q-17 12 -34 12
q-19 0 -30 -11.5t-11 -31.5q0 -28 23.5 -41.5t67.5 -5.5z" />
    <glyph glyph-name="tehMarbutagoalar.fina" unicode="&#x6c3;" horiz-adv-x="585" 
d="M581 125h24v-125h-57q-93 0 -146 56.5t-53 161.5v22h-74q-106 0 -106 -108v-132h-125v154q0 95 55.5 153t157.5 58h217v-141q0 -53 26 -76t81 -23zM133 569h127v-126h-127v126zM307 569h127v-126h-127v126z" />
    <glyph glyph-name="wawringar.fina" unicode="&#x6c4;" horiz-adv-x="536" 
d="M464 125h92v-125h-103q-52 -213 -372 -236l-19 121q3 1 9.5 1t9.5 1q-11 17 -11 40q0 31 18.5 49.5t49.5 18.5t50 -18.5t19 -49.5q0 -10 -1 -15q86 29 114 88h-41q-141 0 -198 76q-40 52 -40 138q0 103 57 165t158 62q88 0 140 -44q68 -58 68 -212v-60zM339 125v54
q0 90 -30 117q-21 20 -56 20q-40 0 -63.5 -25t-23.5 -70q0 -40 20 -63q28 -33 95 -33h58zM138 -46q-12 0 -20 -7.5t-8 -19.5t8 -20t20 -8q13 0 20.5 8t7.5 20t-7.5 19.5t-20.5 7.5z" />
    <glyph glyph-name="kirghizoear" unicode="&#x6c5;" horiz-adv-x="528" arabic-form="isolated" 
d="M262 441q207 0 207 -277q0 -192 -91.5 -287t-289.5 -113l-19 120q104 14 161 41h-115v59h186q12 19 22 48q-35 -22 -87 -22q-87 0 -139.5 53.5t-52.5 153.5q0 105 58 164.5t160 59.5zM257 117q40 0 63 24.5t23 71.5t-23.5 74.5t-63.5 27.5t-63.5 -27t-23.5 -73
q0 -45 22.5 -71.5t65.5 -26.5z" />
    <glyph glyph-name="oear" unicode="&#x6c6;" horiz-adv-x="513" arabic-form="isolated" 
d="M262 441q207 0 207 -277q0 -192 -91.5 -287t-289.5 -113l-19 120q116 16 174.5 48.5t79.5 99.5q-35 -22 -87 -22q-87 0 -139.5 53.5t-52.5 153.5q0 105 58 164.5t160 59.5zM257 117q40 0 63 24.5t23 71.5t-23.5 74.5t-63.5 27.5t-63.5 -27t-23.5 -73q0 -45 22.5 -71.5
t65.5 -26.5zM265 561l51 118h64l-81 -176h-73l-82 176h67z" />
    <glyph glyph-name="uar" unicode="&#x6c7;" horiz-adv-x="513" arabic-form="isolated" 
d="M262 441q207 0 207 -277q0 -192 -91.5 -287t-289.5 -113l-19 120q116 16 174.5 48.5t79.5 99.5q-35 -22 -87 -22q-87 0 -139.5 53.5t-52.5 153.5q0 105 58 164.5t160 59.5zM257 117q40 0 63 24.5t23 71.5t-23.5 74.5t-63.5 27.5t-63.5 -27t-23.5 -73q0 -45 22.5 -71.5
t65.5 -26.5zM285 697q40 0 63.5 -23.5t23.5 -62.5q0 -80 -99 -99l-122 -24v54l78 15q-32 19 -32 60q0 38 24.5 59t63.5 21zM283 568q18 0 28 10.5t10 28.5t-10.5 29t-27.5 11t-27 -10.5t-10 -29.5q0 -17 10 -28t27 -11z" />
    <glyph glyph-name="yuar" unicode="&#x6c8;" horiz-adv-x="513" arabic-form="isolated" 
d="M262 441q207 0 207 -277q0 -192 -91.5 -287t-289.5 -113l-19 120q116 16 174.5 48.5t79.5 99.5q-35 -22 -87 -22q-87 0 -139.5 53.5t-52.5 153.5q0 105 58 164.5t160 59.5zM257 117q40 0 63 24.5t23 71.5t-23.5 74.5t-63.5 27.5t-63.5 -27t-23.5 -73q0 -45 22.5 -71.5
t65.5 -26.5zM290 507l-58 -10v151l58 10v-151z" />
    <glyph glyph-name="kirghizyuar" unicode="&#x6c9;" horiz-adv-x="513" arabic-form="isolated" 
d="M262 441q207 0 207 -277q0 -192 -91.5 -287t-289.5 -113l-19 120q116 16 174.5 48.5t79.5 99.5q-35 -22 -87 -22q-87 0 -139.5 53.5t-52.5 153.5q0 105 58 164.5t160 59.5zM257 117q40 0 63 24.5t23 71.5t-23.5 74.5t-63.5 27.5t-63.5 -27t-23.5 -73q0 -45 22.5 -71.5
t65.5 -26.5zM259 619l-51 -118h-64l81 176h73l82 -176h-67z" />
    <glyph glyph-name="wawTwodotsar.fina" unicode="&#x6ca;" horiz-adv-x="536" 
d="M556 125v-125h-103q-52 -213 -372 -236l-19 121q113 12 173 38t85 77h-41q-141 0 -198 76q-40 52 -40 138q0 103 57 165t158 62q88 0 140 -44q68 -58 68 -212v-60h92zM186 158q28 -33 95 -33h58v54q0 90 -30 117q-21 20 -56 20q-40 0 -63.5 -25t-23.5 -70q0 -40 20 -63z
M109 635h127v-126h-127v126zM283 635h127v-126h-127v126z" />
    <glyph glyph-name="vear" unicode="&#x6cb;" horiz-adv-x="513" arabic-form="isolated" 
d="M262 441q207 0 207 -277q0 -192 -91.5 -287t-289.5 -113l-19 120q116 16 174.5 48.5t79.5 99.5q-35 -22 -87 -22q-87 0 -139.5 53.5t-52.5 153.5q0 105 58 164.5t160 59.5zM257 117q40 0 63 24.5t23 71.5t-23.5 74.5t-63.5 27.5t-63.5 -27t-23.5 -73q0 -45 22.5 -71.5
t65.5 -26.5zM115 635h127v-126h-127v126zM283 635h127v-126h-127v126zM199 797h127v-126h-127v126z" />
    <glyph glyph-name="yehfarsi" unicode="&#x6cc;" horiz-adv-x="866" arabic-form="isolated" 
d="M788 490l-56 -92q-38 39 -99 39h-40q-83 0 -83 -92v-67h111q97 0 152.5 -51t55.5 -156q0 -103 -57 -156t-156 -53h-340q-68 0 -116.5 19.5t-74 54.5t-36.5 74t-11 86v81h122v-65q0 -63 31.5 -97t108.5 -34h315q89 0 89 88q0 90 -89 90h-222v194q0 93 55 148t147 55h30
q107 0 163 -66z" />
    <glyph glyph-name="yehTailar.fina" unicode="&#x6cd;" horiz-adv-x="783" 
d="M788 125h16v-125h-40q-17 0 -34 7q-3 -63 -50.5 -104t-135.5 -41h-210q-120 0 -175 60.5t-59 153.5h-76v101h197v-60q0 -63 32 -96.5t106 -33.5h174q77 0 77 69q0 39 -29 84l-56 86h140l38 -54q34 -47 85 -47z" />
    <glyph glyph-name="yehVabovear.init" unicode="&#x6ce;" horiz-adv-x="288" 
d="M171 503l51 118h64l-81 -176h-73l-82 176h67zM-20 0v125h31q50 0 72 22.5t22 73.5v144h125v-153q0 -103 -54 -157.5t-153 -54.5h-43zM-15 -61h127v-126h-127v126zM159 -61h127v-126h-127v126z" />
    <glyph glyph-name="yehVabovear.medi" unicode="&#x6ce;" horiz-adv-x="332" 
d="M169 503l51 118h64l-81 -176h-73l-82 176h67zM326 125h26v-125h-67q-96 0 -135 71q-39 -71 -124 -71h-46v125h25q53 0 75.5 23t22.5 77v140h125v-139q0 -50 20 -75.5t78 -25.5zM-3 -61h127v-126h-127v126zM171 -61h127v-126h-127v126z" />
    <glyph glyph-name="yehVabovear.fina" unicode="&#x6ce;" horiz-adv-x="723" 
d="M301 297l51 118h64l-81 -176h-73l-82 176h67zM727 125h16v-125h-40q-17 0 -34 7q-3 -63 -50.5 -104t-135.5 -41h-210q-66 0 -114 19.5t-73.5 54.5t-36.5 74t-11 86v81h122v-60q0 -63 32 -96.5t106 -33.5h174q77 0 77 69q0 39 -29 84l-56 86h140l38 -54q34 -47 85 -47z
" />
    <glyph glyph-name="wawDotabovear.fina" unicode="&#x6cf;" horiz-adv-x="536" 
d="M556 125v-125h-103q-52 -213 -372 -236l-19 121q113 12 173 38t85 77h-41q-141 0 -198 76q-40 52 -40 138q0 103 57 165t158 62q88 0 140 -44q68 -58 68 -212v-60h92zM186 158q28 -33 95 -33h58v54q0 90 -30 117q-21 20 -56 20q-40 0 -63.5 -25t-23.5 -70q0 -40 20 -63z
M196 636h127v-126h-127v126z" />
    <glyph glyph-name="ear" unicode="&#x6d0;" horiz-adv-x="866" arabic-form="isolated" 
d="M788 490l-56 -92q-38 39 -99 39h-40q-83 0 -83 -92v-67h111q97 0 152.5 -51t55.5 -156q0 -103 -57 -156t-156 -53h-340q-68 0 -116.5 19.5t-74 54.5t-36.5 74t-11 86v81h122v-65q0 -63 31.5 -97t108.5 -34h315q89 0 89 88q0 90 -89 90h-222v194q0 93 55 148t147 55h30
q107 0 163 -66zM397 -347h127v-126h-127v126zM397 -193h127v-126h-127v126z" />
    <glyph glyph-name="yehThreedotsbelowar.init" unicode="&#x6d1;" horiz-adv-x="288" 
d="M281 -187h-127v126h127v-126zM113 -187h-127v126h127v-126zM198 -346h-127v126h127v-126zM-20 0v125h31q50 0 72 22.5t22 73.5v144h125v-153q0 -103 -54 -157.5t-153 -54.5h-43z" />
    <glyph glyph-name="yehThreedotsbelowar.medi" unicode="&#x6d1;" horiz-adv-x="332" 
d="M293 -187h-127v126h127v-126zM125 -187h-127v126h127v-126zM210 -346h-127v126h127v-126zM326 125h26v-125h-67q-96 0 -135 71q-39 -71 -124 -71h-46v125h25q53 0 75.5 23t22.5 77v140h125v-139q0 -50 20 -75.5t78 -25.5z" />
    <glyph glyph-name="yehThreedotsbelowar.fina" unicode="&#x6d1;" horiz-adv-x="723" 
d="M727 125h16v-125h-40q-17 0 -34 7q-3 -63 -50.5 -104t-135.5 -41h-210q-66 0 -114 19.5t-73.5 54.5t-36.5 74t-11 86v81h122v-60q0 -63 32 -96.5t106 -33.5h174q77 0 77 69q0 39 -29 84l-56 86h140l38 -54q34 -47 85 -47zM506 -319h-127v126h127v-126zM338 -319h-127v126
h127v-126zM423 -478h-127v126h127v-126z" />
    <glyph glyph-name="yehbarreear" unicode="&#x6d2;" horiz-adv-x="689" arabic-form="isolated" 
d="M411 446h131l-44 -116q-20 -53 -57.5 -75.5t-108.5 -22.5h-110q-27 0 -43 -15t-16 -40q0 -24 15.5 -38t43.5 -14h433v-125h-426q-91 0 -141 48t-50 128q0 82 51.5 130t139.5 48h92q34 0 50 11t26 40z" />
    <glyph glyph-name="yehbarreeHamzaabovear" unicode="&#x6d3;" horiz-adv-x="689" arabic-form="isolated" 
d="M411 446h131l-44 -116q-20 -53 -57.5 -75.5t-108.5 -22.5h-110q-27 0 -43 -15t-16 -40q0 -24 15.5 -38t43.5 -14h433v-125h-426q-91 0 -141 48t-50 128q0 82 51.5 130t139.5 48h92q34 0 50 11t26 40zM268 490l50 8v-54l-233 -41v54l72 13q-38 30 -38 77q0 42 25.5 65.5
t67.5 23.5q38 0 64 -20l-24 -48q-17 12 -34 12q-19 0 -30 -11.5t-11 -31.5q0 -28 23.5 -41.5t67.5 -5.5z" />
    <glyph glyph-name="aear.fina" unicode="&#x6d5;" horiz-adv-x="552" 
d="M552 125h20v-125h-45q-128 0 -170 90q-43 -54 -136 -54q-84 0 -134 51t-50 137q0 128 99 179q54 28 160 28h41v32h125v-231q0 -58 23 -82.5t67 -24.5zM245 154q47 0 72 26q20 22 20 80v48h-44q-67 0 -94 -15q-36 -20 -36 -66q0 -36 22 -54.5t60 -18.5z" />
    <glyph glyph-name="dalVinvertedabovear.fina" unicode="&#x6ee;" horiz-adv-x="616" 
d="M622 125h13v-125h-40q-87 0 -129 59q-34 -59 -123 -59h-148q-59 0 -99 16.5t-76 55.5l83 96q33 -43 99 -43h121q61 0 61 47q0 26 -19 67l-82 175l117 52l125 -277q16 -37 37 -50.5t60 -13.5zM326 631l-51 -118h-64l81 176h73l82 -176h-67z" />
    <glyph glyph-name="rehVinvertedabovear.fina" unicode="&#x6ef;" horiz-adv-x="397" 
d="M395 125h22v-125h-40q-47 0 -79 27q-9 -109 -64.5 -170.5t-163.5 -92.5l-41 119q82 21 114 61t32 135v286h125v-145q0 -95 95 -95zM235 561l-51 -118h-64l81 176h73l82 -176h-67z" />
    <glyph glyph-name="sheenDotbelowar.init" unicode="&#x6fa;" horiz-adv-x="758" 
d="M587 365h123v-177q0 -102 -51.5 -148t-128.5 -46q-102 0 -141 69q-35 -69 -126 -69q-93 0 -126 70q-34 -64 -117 -64h-40v125h25q49 0 70.5 23.5t21.5 74.5v65h125v-99q0 -71 61 -71q59 0 59 71v139h125v-138q0 -72 61 -72q59 0 59 72v175zM259 532h127v-126h-127v126z
M427 532h127v-126h-127v126zM343 694h127v-126h-127v126zM328 -61h127v-126h-127v126z" />
    <glyph glyph-name="sheenDotbelowar.medi" unicode="&#x6fa;" horiz-adv-x="811" 
d="M811 125h20v-125h-38q-110 0 -148 69q-36 -75 -129 -75q-90 0 -125 69q-35 -69 -126 -69q-89 0 -124 69q-39 -63 -120 -63h-41v125h26q47 0 69 23t22 72v68h125v-98q0 -72 61 -72q59 0 59 72v138h125v-138q0 -72 61 -72q59 0 59 72v175h125v-135q0 -56 22 -80.5t77 -24.5
zM259 532h127v-126h-127v126zM427 532h127v-126h-127v126zM343 694h127v-126h-127v126zM328 -61h127v-126h-127v126z" />
    <glyph glyph-name="sheenDotbelowar.fina" unicode="&#x6fa;" horiz-adv-x="1195" 
d="M1195 125h20v-125h-44q-105 0 -142 69q-37 -75 -129 -75q-82 0 -118 61q-29 -62 -105 -62q-51 0 -78 27q-20 -98 -88.5 -156.5t-185.5 -58.5q-142 0 -211.5 81t-69.5 211v129h125v-117q0 -82 40.5 -130.5t117.5 -48.5t115.5 48t38.5 131v179h125v-109q0 -26 15.5 -43.5
t45.5 -17.5q59 0 59 71v139h125v-138q0 -72 61 -72q59 0 59 72v175h125v-132q0 -58 21.5 -83t77.5 -25zM642 532h127v-126h-127v126zM810 532h127v-126h-127v126zM726 694h127v-126h-127v126zM734 -61h127v-126h-127v126z" />
    <glyph glyph-name="dadDotbelowar.init" unicode="&#x6fb;" horiz-adv-x="826" 
d="M279 -126h127v-126h-127v126zM572 441q102 0 160.5 -57.5t58.5 -156.5q0 -106 -65.5 -166.5t-179.5 -60.5h-148v-64h-116v64h-4q-112 0 -146 67q-34 -67 -113 -67h-39v125h25q41 0 60.5 15.5t19.5 58.5v78h125v-76q0 -41 15 -58t54 -18q9 156 91.5 236t201.5 80zM403 125
h139q124 0 124 96q0 44 -27 70t-77 26q-68 0 -112 -49t-47 -143zM506 636h127v-126h-127v126z" />
    <glyph glyph-name="dadDotbelowar.medi" unicode="&#x6fb;" horiz-adv-x="851" 
d="M279 -126h127v-126h-127v126zM835 125h36v-125h-53q-73 0 -121 39q-62 -39 -151 -39h-148v-64h-116v64h-4q-112 0 -146 67q-34 -67 -113 -67h-39v125h25q41 0 60.5 15.5t19.5 58.5v78h125v-76q0 -41 15 -58t54 -18q9 156 91.5 236t201.5 80q102 0 160.5 -57.5
t58.5 -156.5q0 -50 -15 -89q25 -13 59 -13zM403 125h139q124 0 124 96q0 44 -27 70t-77 26q-68 0 -112 -49t-47 -143zM506 636h127v-126h-127v126z" />
    <glyph glyph-name="dadDotbelowar.fina" unicode="&#x6fb;" horiz-adv-x="1255" 
d="M675 -126h127v-126h-127v126zM1240 125h36v-125h-53q-76 0 -124 41q-59 -41 -151 -41h-154v-64h-116v65q-47 5 -76 38q-15 -106 -84 -170t-193 -64q-142 0 -211.5 81t-69.5 211v129h125v-117q0 -82 40.5 -130.5t117.5 -48.5t115.5 48t38.5 131v179h125v-77
q0 -46 15 -65.5t54 -20.5q4 79 30 141t67 99.5t91 56.5t105 19q100 0 159.5 -57t59.5 -158q0 -47 -13 -85q29 -16 66 -16zM799 125h149q56 0 85 25t29 71q0 44 -27 70t-76 26q-69 0 -113 -49t-47 -143zM903 636h127v-126h-127v126z" />
    <glyph glyph-name="ghainDotbelowar.init" unicode="&#x6fc;" horiz-adv-x="463" 
d="M173 -61h127v-126h-127v126zM313 125h115v-125h-448v125h118q-42 52 -42 126q0 85 54.5 137.5t142.5 52.5q83 0 148 -52l-50 -97q-37 27 -80 27q-42 0 -67.5 -25t-25.5 -67q0 -40 24 -67q32 -35 111 -35zM190 636h127v-126h-127v126z" />
    <glyph glyph-name="ghainDotbelowar.medi" unicode="&#x6fc;" horiz-adv-x="586" 
d="M239 -61h127v-126h-127v126zM452 125h154v-125h-626v125h189l-65 142q-15 32 -31 43.5t-47 11.5v109h343q76 0 119 -38t43 -103q0 -40 -25 -98q-10 -20 -20 -35q-16 -23 -34 -32zM357 151q17 22 31 52q15 33 15 52q0 57 -69 57h-121l79 -187h17q28 0 48 26zM215 636h127
v-126h-127v126z" />
    <glyph glyph-name="ghainDotbelowar.fina" unicode="&#x6fc;" horiz-adv-x="629" 
d="M212 -358h127v-126h-127v126zM649 0h-385q-118 0 -118 -84q0 -85 134 -85q100 0 177 42l53 -103q-94 -64 -239 -64q-117 0 -185 54t-68 157q0 93 55 145t142 60l-67 145q-15 32 -30.5 43.5t-47.5 11.5v109h343q76 0 119 -38t43 -103q0 -43 -25 -98q-10 -20 -20 -35
q-14 -22 -34 -32h153v-125zM447 255q0 57 -70 57h-121q2 -3 11 -24l69 -163h17q29 0 47 26q16 21 32 53q15 32 15 51zM259 636h127v-126h-127v126z" />
    <glyph glyph-name="hehVinvertedabovear.init" unicode="&#x6ff;" horiz-adv-x="696" 
d="M384 749l-51 -118h-64l81 176h73l82 -176h-67zM387 576q121 0 193 -68.5t72 -190.5v-120q0 -97 -60 -147t-160 -50h-77q-93 0 -139 32q-46 -32 -133 -32h-103v125h111q-34 40 -34 98q0 71 48 116.5t134 45.5q85 0 131 -44t46 -115q0 -67 -34 -101h56q89 0 89 83v89
q0 77 -40.5 118.5t-113.5 41.5q-71 0 -130 -42l-56 92q86 69 200 69zM238 121q35 0 53.5 19.5t18.5 53.5t-19 53t-52 19q-35 0 -54 -19.5t-19 -52.5q0 -32 18.5 -52.5t53.5 -20.5z" />
    <glyph glyph-name="hehVinvertedabovear.medi" unicode="&#x6ff;" horiz-adv-x="667" 
d="M-20 0v125h111q-34 40 -34 98q0 71 48 116.5t134 45.5q85 0 131 -44t46 -115q0 -67 -34 -101h56q89 0 89 83v89q0 77 -40.5 118.5t-113.5 41.5q-71 0 -130 -42l-56 92q86 69 200 69q121 0 193 -68.5t72 -190.5v-120q0 -36 -10 -71q6 -1 20 -1h25v-125h-41q-62 0 -103 20
q-49 -20 -111 -20h-77q-93 0 -139 32q-46 -32 -133 -32h-103zM310 194q0 34 -19 53t-52 19q-35 0 -54 -19.5t-19 -52.5q0 -32 18.5 -52.5t53.5 -20.5t53.5 19.5t18.5 53.5zM384 749l-51 -118h-64l81 176h73l82 -176h-67z" />
    <glyph glyph-name="hehVinvertedabovear.fina" unicode="&#x6ff;" horiz-adv-x="716" 
d="M29 0v125h111q-34 40 -34 98q0 71 48 116.5t134 45.5q85 0 131 -44t46 -115q0 -67 -34 -101h56q89 0 89 83v89q0 77 -40.5 118.5t-113.5 41.5q-71 0 -130 -42l-56 92q86 69 200 69q121 0 193 -68.5t72 -190.5v-120q0 -36 -10 -71q6 -1 20 -1h25v-125h-41q-62 0 -103 20
q-49 -20 -111 -20h-77q-93 0 -139 32q-46 -32 -133 -32h-103zM359 194q0 34 -19 53t-52 19q-35 0 -54 -19.5t-19 -52.5q0 -32 18.5 -52.5t53.5 -20.5t53.5 19.5t18.5 53.5zM433 749l-51 -118h-64l81 176h73l82 -176h-67z" />
    <glyph glyph-name="alefWaslaar.fina" unicode="&#x671;" horiz-adv-x="288" arabic-form="final" 
d="M308 0h-46q-118 0 -168 85q-30 51 -30 159v304h125v-297q0 -66 18 -92q23 -34 81 -34h20v-125zM159 779q34 0 55 -20t21 -55q0 -43 -27 -66.5t-87 -34.5l-112 -21v53l35 6q1 63 31.5 100.5t83.5 37.5zM96 650l41 8q43 8 43 38q0 29 -28 29q-24 0 -39 -20.5t-17 -54.5z
" />
    <glyph glyph-name="beehar.fina" unicode="&#x67b;" horiz-adv-x="890" arabic-form="final" 
d="M884 125h26v-125h-64q-101 0 -140 72q-42 -72 -158 -72h-225q-275 0 -275 256v109h122v-101q0 -65 34 -102t116 -37h239q56 0 78.5 25t22.5 76v139h125v-138q0 -51 21 -76.5t78 -25.5zM358 -215h127v-126h-127v126zM358 -61h127v-126h-127v126z" />
    <glyph glyph-name="beehar.init" unicode="&#x67b;" horiz-adv-x="288" arabic-form="initial" 
d="M-20 0v125h31q50 0 72 22.5t22 73.5v144h125v-153q0 -103 -54 -157.5t-153 -54.5h-43zM72 -215h127v-126h-127v126zM72 -61h127v-126h-127v126z" />
    <glyph glyph-name="beehar.medi" unicode="&#x67b;" horiz-adv-x="332" arabic-form="medial" 
d="M326 125h26v-125h-67q-96 0 -135 71q-39 -71 -124 -71h-46v125h25q53 0 75.5 23t22.5 77v140h125v-139q0 -50 20 -75.5t78 -25.5zM84 -215h127v-126h-127v126zM84 -61h127v-126h-127v126z" />
    <glyph glyph-name="pehar.fina" unicode="&#x67e;" horiz-adv-x="890" arabic-form="final" 
d="M884 125h26v-125h-64q-101 0 -140 72q-42 -72 -158 -72h-225q-275 0 -275 256v109h122v-101q0 -65 34 -102t116 -37h239q56 0 78.5 25t22.5 76v139h125v-138q0 -51 21 -76.5t78 -25.5zM567 -187h-127v126h127v-126zM399 -187h-127v126h127v-126zM484 -346h-127v126h127
v-126z" />
    <glyph glyph-name="pehar.init" unicode="&#x67e;" horiz-adv-x="288" arabic-form="initial" 
d="M-20 0v125h31q50 0 72 22.5t22 73.5v144h125v-153q0 -103 -54 -157.5t-153 -54.5h-43zM281 -187h-127v126h127v-126zM113 -187h-127v126h127v-126zM198 -346h-127v126h127v-126z" />
    <glyph glyph-name="pehar.medi" unicode="&#x67e;" horiz-adv-x="332" arabic-form="medial" 
d="M326 125h26v-125h-67q-96 0 -135 71q-39 -71 -124 -71h-46v125h25q53 0 75.5 23t22.5 77v140h125v-139q0 -50 20 -75.5t78 -25.5zM293 -187h-127v126h127v-126zM125 -187h-127v126h127v-126zM210 -346h-127v126h127v-126z" />
    <glyph glyph-name="behehar.fina" unicode="&#x680;" horiz-adv-x="890" arabic-form="final" 
d="M884 125h26v-125h-64q-101 0 -140 72q-42 -72 -158 -72h-225q-275 0 -275 256v109h122v-101q0 -65 34 -102t116 -37h239q56 0 78.5 25t22.5 76v139h125v-138q0 -51 21 -76.5t78 -25.5zM274 -222h127v-126h-127v126zM442 -222h127v-126h-127v126zM275 -61h127v-126h-127
v126zM442 -61h127v-126h-127v126z" />
    <glyph glyph-name="behehar.init" unicode="&#x680;" horiz-adv-x="288" arabic-form="initial" 
d="M-20 0v125h31q50 0 72 22.5t22 73.5v144h125v-153q0 -103 -54 -157.5t-153 -54.5h-43zM-12 -222h127v-126h-127v126zM156 -222h127v-126h-127v126zM-11 -61h127v-126h-127v126zM156 -61h127v-126h-127v126z" />
    <glyph glyph-name="behehar.medi" unicode="&#x680;" horiz-adv-x="332" arabic-form="medial" 
d="M326 125h26v-125h-67q-96 0 -135 71q-39 -71 -124 -71h-46v125h25q53 0 75.5 23t22.5 77v140h125v-139q0 -50 20 -75.5t78 -25.5zM0 -222h127v-126h-127v126zM168 -222h127v-126h-127v126zM1 -61h127v-126h-127v126zM168 -61h127v-126h-127v126z" />
    <glyph glyph-name="ttehehar.fina" unicode="&#x67a;" horiz-adv-x="890" arabic-form="final" 
d="M884 125h26v-125h-64q-101 0 -140 72q-42 -72 -158 -72h-225q-275 0 -275 256v109h122v-101q0 -65 34 -102t116 -37h239q56 0 78.5 25t22.5 76v139h125v-138q0 -51 21 -76.5t78 -25.5zM358 730h127v-126h-127v126zM358 578h127v-126h-127v126z" />
    <glyph glyph-name="ttehehar.init" unicode="&#x67a;" horiz-adv-x="288" arabic-form="initial" 
d="M-20 0v125h31q50 0 72 22.5t22 73.5v144h125v-153q0 -103 -54 -157.5t-153 -54.5h-43zM105 730h127v-126h-127v126zM105 578h127v-126h-127v126z" />
    <glyph glyph-name="ttehehar.medi" unicode="&#x67a;" horiz-adv-x="332" arabic-form="medial" 
d="M326 125h26v-125h-67q-96 0 -135 71q-39 -71 -124 -71h-46v125h25q53 0 75.5 23t22.5 77v140h125v-139q0 -50 20 -75.5t78 -25.5zM103 730h127v-126h-127v126zM103 578h127v-126h-127v126z" />
    <glyph glyph-name="tehehar.fina" unicode="&#x67f;" horiz-adv-x="890" arabic-form="final" 
d="M884 125h26v-125h-64q-101 0 -140 72q-42 -72 -158 -72h-225q-275 0 -275 256v109h122v-101q0 -65 34 -102t116 -37h239q56 0 78.5 25t22.5 76v139h125v-138q0 -51 21 -76.5t78 -25.5zM274 578h127v-126h-127v126zM442 578h127v-126h-127v126zM275 739h127v-126h-127v126
zM442 739h127v-126h-127v126z" />
    <glyph glyph-name="tehehar.init" unicode="&#x67f;" horiz-adv-x="288" arabic-form="initial" 
d="M-20 0v125h31q50 0 72 22.5t22 73.5v144h125v-153q0 -103 -54 -157.5t-153 -54.5h-43zM21 578h127v-126h-127v126zM189 578h127v-126h-127v126zM22 739h127v-126h-127v126zM189 739h127v-126h-127v126z" />
    <glyph glyph-name="tehehar.medi" unicode="&#x67f;" horiz-adv-x="332" arabic-form="medial" 
d="M326 125h26v-125h-67q-96 0 -135 71q-39 -71 -124 -71h-46v125h25q53 0 75.5 23t22.5 77v140h125v-139q0 -50 20 -75.5t78 -25.5zM19 578h127v-126h-127v126zM187 578h127v-126h-127v126zM20 739h127v-126h-127v126zM187 739h127v-126h-127v126z" />
    <glyph glyph-name="ttehar.fina" unicode="&#x679;" horiz-adv-x="890" arabic-form="final" 
d="M884 125h26v-125h-64q-101 0 -140 72q-42 -72 -158 -72h-225q-275 0 -275 256v109h122v-101q0 -65 34 -102t116 -37h239q56 0 78.5 25t22.5 76v139h125v-138q0 -51 21 -76.5t78 -25.5zM469 626q29 0 50 -19t21 -56q0 -43 -27 -66.5t-89 -34.5l-117 -21v52l35 6l5 171
l54 11l-3 -75q29 32 71 32zM396 497l42 8q46 8 46 38t-26 30q-57 0 -62 -76z" />
    <glyph glyph-name="ttehar.init" unicode="&#x679;" horiz-adv-x="288" arabic-form="initial" 
d="M-20 0v125h31q50 0 72 22.5t22 73.5v144h125v-153q0 -103 -54 -157.5t-153 -54.5h-43zM216 626q29 0 50 -19t21 -56q0 -43 -27 -66.5t-89 -34.5l-117 -21v52l35 6l5 171l54 11l-3 -75q29 32 71 32zM143 497l42 8q46 8 46 38t-26 30q-57 0 -62 -76z" />
    <glyph glyph-name="ttehar.medi" unicode="&#x679;" horiz-adv-x="332" arabic-form="medial" 
d="M326 125h26v-125h-67q-96 0 -135 71q-39 -71 -124 -71h-46v125h25q53 0 75.5 23t22.5 77v140h125v-139q0 -50 20 -75.5t78 -25.5zM214 626q29 0 50 -19t21 -56q0 -43 -27 -66.5t-89 -34.5l-117 -21v52l35 6l5 171l54 11l-3 -75q29 32 71 32zM141 497l42 8q46 8 46 38
t-26 30q-57 0 -62 -76z" />
    <glyph glyph-name="vehar.fina" unicode="&#x6a4;" horiz-adv-x="993" arabic-form="final" 
d="M882 125h131v-125h-167q-97 0 -147 46q-46 -46 -142 -46h-237q-270 0 -270 252v113h119v-106q0 -134 159 -134h237q-47 46 -47 125q0 86 54 138.5t153 52.5q101 0 154 -50.5t53 -132.5q0 -86 -50 -133zM727 122q40 0 64 28t24 72q0 45 -24 70t-64 25q-41 0 -64.5 -26
t-23.5 -70t23.5 -71.5t64.5 -27.5zM575 635h127v-126h-127v126zM743 635h127v-126h-127v126zM659 797h127v-126h-127v126z" />
    <glyph glyph-name="vehar.init" unicode="&#x6a4;" horiz-adv-x="513" arabic-form="initial" 
d="M250 587q103 0 158.5 -62t55.5 -180v-75q0 -127 -66.5 -198.5t-181.5 -71.5h-236v125h233q60 0 88.5 23t33.5 67q-41 -44 -116 -44q-85 0 -134.5 52t-49.5 146q0 100 57.5 159t157.5 59zM250 275q42 0 66 24.5t24 71.5t-24.5 72.5t-65.5 25.5q-42 0 -66.5 -26t-24.5 -72
q0 -44 23.5 -70t67.5 -26zM103 779h127v-126h-127v126zM271 779h127v-126h-127v126zM187 941h127v-126h-127v126z" />
    <glyph glyph-name="vehar.medi" unicode="&#x6a4;" horiz-adv-x="535" arabic-form="medial" 
d="M425 125h130v-125h-179q-84 0 -135 48q-51 -48 -129 -48h-132v125h127q-46 45 -46 127q0 84 54 136.5t153 52.5q100 0 153 -50.5t53 -131.5q0 -87 -49 -134zM269 122q40 0 64 27.5t24 72.5q0 44 -24 69.5t-64 25.5q-41 0 -64.5 -26.5t-23.5 -69.5q0 -44 23.5 -71.5
t64.5 -27.5zM120 635h127v-126h-127v126zM288 635h127v-126h-127v126zM204 797h127v-126h-127v126z" />
    <glyph glyph-name="pehehar.fina" unicode="&#x6a6;" horiz-adv-x="993" arabic-form="final" 
d="M882 125h131v-125h-167q-97 0 -147 46q-46 -46 -142 -46h-237q-270 0 -270 252v113h119v-106q0 -134 159 -134h237q-47 46 -47 125q0 86 54 138.5t153 52.5q101 0 154 -50.5t53 -132.5q0 -86 -50 -133zM727 122q40 0 64 28t24 72q0 45 -24 70t-64 25q-41 0 -64.5 -26
t-23.5 -70t23.5 -71.5t64.5 -27.5zM575 636h127v-126h-127v126zM743 636h127v-126h-127v126zM576 797h127v-126h-127v126zM743 797h127v-126h-127v126z" />
    <glyph glyph-name="pehehar.init" unicode="&#x6a6;" horiz-adv-x="513" arabic-form="initial" 
d="M250 587q103 0 158.5 -62t55.5 -180v-75q0 -127 -66.5 -198.5t-181.5 -71.5h-236v125h233q60 0 88.5 23t33.5 67q-41 -44 -116 -44q-85 0 -134.5 52t-49.5 146q0 100 57.5 159t157.5 59zM250 275q42 0 66 24.5t24 71.5t-24.5 72.5t-65.5 25.5q-42 0 -66.5 -26t-24.5 -72
q0 -44 23.5 -70t67.5 -26zM103 780h127v-126h-127v126zM271 780h127v-126h-127v126zM104 941h127v-126h-127v126zM271 941h127v-126h-127v126z" />
    <glyph glyph-name="pehehar.medi" unicode="&#x6a6;" horiz-adv-x="535" arabic-form="medial" 
d="M425 125h130v-125h-179q-84 0 -135 48q-51 -48 -129 -48h-132v125h127q-46 45 -46 127q0 84 54 136.5t153 52.5q100 0 153 -50.5t53 -131.5q0 -87 -49 -134zM269 122q40 0 64 27.5t24 72.5q0 44 -24 69.5t-64 25.5q-41 0 -64.5 -26.5t-23.5 -69.5q0 -44 23.5 -71.5
t64.5 -27.5zM120 636h127v-126h-127v126zM288 636h127v-126h-127v126zM121 797h127v-126h-127v126zM288 797h127v-126h-127v126z" />
    <glyph glyph-name="dyehar.fina" unicode="&#x684;" horiz-adv-x="613" arabic-form="final" 
d="M544 125h89v-125h-66q-76 0 -112.5 36.5t-38.5 113.5h-53q-203 0 -203 -160q0 -76 44.5 -117.5t121.5 -41.5q91 0 164 60l61 -95q-98 -88 -238 -88q-126 0 -202.5 69.5t-76.5 202.5q0 126 74.5 202t206.5 87l-23 19q-40 33 -82 33q-52 0 -91 -39l-59 85q66 74 158 74
q77 0 141 -58l65 -59q47 -44 95 -44h26v-112h-30v-12q0 -31 29 -31zM284 86h85v-88h-85v88zM284 -33h85v-89h-85v89z" />
    <glyph glyph-name="dyehar.init" unicode="&#x684;" horiz-adv-x="556" arabic-form="initial" 
d="M503 279h23v-130h-24q-59 0 -98 -30l-72 -56q-41 -32 -86.5 -47.5t-115.5 -15.5h-150v125h163q73 0 119 39l34 28q24 19 41 26q-23 10 -41 28l-35 34q-38 36 -83 36q-44 0 -88 -40l-59 89q62 76 160 76q84 0 146 -59l70 -66q41 -37 96 -37zM143 -215h127v-126h-127v126z
M143 -61h127v-126h-127v126z" />
    <glyph glyph-name="dyehar.medi" unicode="&#x684;" horiz-adv-x="595" arabic-form="medial" 
d="M509 125h106v-125h-114q-108 0 -124 91l-25 -22q-75 -69 -189 -69h-183v125h184q70 0 115 34l27 20q32 24 64 30q-34 9 -65 38l-36 34q-37 34 -82 34q-46 0 -89 -40l-58 90q62 76 161 76q83 0 145 -56l68 -62q41 -37 98 -37h17v-114h-23q-19 0 -31 -3v-11q0 -33 34 -33z
M161 -215h127v-126h-127v126zM161 -61h127v-126h-127v126z" />
    <glyph glyph-name="nyehar.fina" unicode="&#x683;" horiz-adv-x="613" arabic-form="final" 
d="M544 125h89v-125h-66q-76 0 -112.5 36.5t-38.5 113.5h-53q-203 0 -203 -160q0 -76 44.5 -117.5t121.5 -41.5q91 0 164 60l61 -95q-98 -88 -238 -88q-126 0 -202.5 69.5t-76.5 202.5q0 126 74.5 202t206.5 87l-23 19q-40 33 -82 33q-52 0 -91 -39l-59 85q66 74 158 74
q77 0 141 -58l65 -59q47 -44 95 -44h26v-112h-30v-12q0 -31 29 -31zM219 23h82v-84h-82v84zM336 23h82v-84h-82v84z" />
    <glyph glyph-name="nyehar.init" unicode="&#x683;" horiz-adv-x="556" arabic-form="initial" 
d="M503 279h23v-130h-24q-59 0 -98 -30l-72 -56q-41 -32 -86.5 -47.5t-115.5 -15.5h-150v125h163q73 0 119 39l34 28q24 19 41 26q-23 10 -41 28l-35 34q-38 36 -83 36q-44 0 -88 -40l-59 89q62 76 160 76q84 0 146 -59l70 -66q41 -37 96 -37zM56 -61h127v-126h-127v126z
M230 -61h127v-126h-127v126z" />
    <glyph glyph-name="nyehar.medi" unicode="&#x683;" horiz-adv-x="595" arabic-form="medial" 
d="M509 125h106v-125h-114q-108 0 -124 91l-25 -22q-75 -69 -189 -69h-183v125h184q70 0 115 34l27 20q32 24 64 30q-34 9 -65 38l-36 34q-37 34 -82 34q-46 0 -89 -40l-58 90q62 76 161 76q83 0 145 -56l68 -62q41 -37 98 -37h17v-114h-23q-19 0 -31 -3v-11q0 -33 34 -33z
M74 -61h127v-126h-127v126zM248 -61h127v-126h-127v126z" />
    <glyph glyph-name="tchehar.fina" unicode="&#x686;" horiz-adv-x="613" arabic-form="final" 
d="M544 125h89v-125h-66q-76 0 -112.5 36.5t-38.5 113.5h-53q-203 0 -203 -160q0 -76 44.5 -117.5t121.5 -41.5q91 0 164 60l61 -95q-98 -88 -238 -88q-126 0 -202.5 69.5t-76.5 202.5q0 126 74.5 202t206.5 87l-23 19q-40 33 -82 33q-52 0 -91 -39l-59 85q66 74 158 74
q77 0 141 -58l65 -59q47 -44 95 -44h26v-112h-30v-12q0 -31 29 -31zM298 -15h-77v79h77v-79zM406 -15h-77v79h77v-79zM352 -124h-77v78h77v-78z" />
    <glyph glyph-name="tchehar.init" unicode="&#x686;" horiz-adv-x="556" arabic-form="initial" 
d="M503 279h23v-130h-24q-59 0 -98 -30l-72 -56q-41 -32 -86.5 -47.5t-115.5 -15.5h-150v125h163q73 0 119 39l34 28q24 19 41 26q-23 10 -41 28l-35 34q-38 36 -83 36q-44 0 -88 -40l-59 89q62 76 160 76q84 0 146 -59l70 -66q41 -37 96 -37zM352 -187h-127v126h127v-126z
M184 -187h-127v126h127v-126zM269 -346h-127v126h127v-126z" />
    <glyph glyph-name="tchehar.medi" unicode="&#x686;" horiz-adv-x="595" arabic-form="medial" 
d="M509 125h106v-125h-114q-108 0 -124 91l-25 -22q-75 -69 -189 -69h-183v125h184q70 0 115 34l27 20q32 24 64 30q-34 9 -65 38l-36 34q-37 34 -82 34q-46 0 -89 -40l-58 90q62 76 161 76q83 0 145 -56l68 -62q41 -37 98 -37h17v-114h-23q-19 0 -31 -3v-11q0 -33 34 -33z
M370 -187h-127v126h127v-126zM202 -187h-127v126h127v-126zM287 -346h-127v126h127v-126z" />
    <glyph glyph-name="tchehehar.fina" unicode="&#x687;" horiz-adv-x="613" arabic-form="final" 
d="M544 125h89v-125h-66q-76 0 -112.5 36.5t-38.5 113.5h-53q-203 0 -203 -160q0 -76 44.5 -117.5t121.5 -41.5q91 0 164 60l61 -95q-98 -88 -238 -88q-126 0 -202.5 69.5t-76.5 202.5q0 126 74.5 202t206.5 87l-23 19q-40 33 -82 33q-52 0 -91 -39l-59 85q66 74 158 74
q77 0 141 -58l65 -59q47 -44 95 -44h26v-112h-30v-12q0 -31 29 -31zM224 74h75v-77h-75v77zM333 74h75v-77h-75v77zM224 -37h75v-76h-75v76zM333 -37h75v-76h-75v76z" />
    <glyph glyph-name="tchehehar.init" unicode="&#x687;" horiz-adv-x="556" arabic-form="initial" 
d="M503 279h23v-130h-24q-59 0 -98 -30l-72 -56q-41 -32 -86.5 -47.5t-115.5 -15.5h-150v125h163q73 0 119 39l34 28q24 19 41 26q-23 10 -41 28l-35 34q-38 36 -83 36q-44 0 -88 -40l-59 89q62 76 160 76q84 0 146 -59l70 -66q41 -37 96 -37zM59 -222h127v-126h-127v126z
M227 -222h127v-126h-127v126zM60 -61h127v-126h-127v126zM227 -61h127v-126h-127v126z" />
    <glyph glyph-name="tchehehar.medi" unicode="&#x687;" horiz-adv-x="595" arabic-form="medial" 
d="M509 125h106v-125h-114q-108 0 -124 91l-25 -22q-75 -69 -189 -69h-183v125h184q70 0 115 34l27 20q32 24 64 30q-34 9 -65 38l-36 34q-37 34 -82 34q-46 0 -89 -40l-58 90q62 76 161 76q83 0 145 -56l68 -62q41 -37 98 -37h17v-114h-23q-19 0 -31 -3v-11q0 -33 34 -33z
M77 -222h127v-126h-127v126zM245 -222h127v-126h-127v126zM78 -61h127v-126h-127v126zM245 -61h127v-126h-127v126z" />
    <glyph glyph-name="ddahalar.fina" unicode="&#x68d;" horiz-adv-x="616" arabic-form="final" 
d="M622 125h13v-125h-40q-87 0 -129 59q-34 -59 -123 -59h-148q-59 0 -99 16.5t-76 55.5l83 96q33 -43 99 -43h121q61 0 61 47q0 26 -19 67l-82 175l117 52l125 -277q16 -37 37 -50.5t60 -13.5zM119 -61h127v-126h-127v126zM293 -61h127v-126h-127v126z" />
    <glyph glyph-name="dahalar.fina" unicode="&#x68c;" horiz-adv-x="616" arabic-form="final" 
d="M622 125h13v-125h-40q-87 0 -129 59q-34 -59 -123 -59h-148q-59 0 -99 16.5t-76 55.5l83 96q33 -43 99 -43h121q61 0 61 47q0 26 -19 67l-82 175l117 52l125 -277q16 -37 37 -50.5t60 -13.5zM179 647h127v-126h-127v126zM353 647h127v-126h-127v126z" />
    <glyph glyph-name="dular.fina" unicode="&#x68e;" horiz-adv-x="616" arabic-form="final" 
d="M622 125h13v-125h-40q-87 0 -129 59q-34 -59 -123 -59h-148q-59 0 -99 16.5t-76 55.5l83 96q33 -43 99 -43h121q61 0 61 47q0 26 -19 67l-82 175l117 52l125 -277q16 -37 37 -50.5t60 -13.5zM182 647h127v-126h-127v126zM350 647h127v-126h-127v126zM266 809h127v-126
h-127v126z" />
    <glyph glyph-name="ddalar.fina" unicode="&#x688;" horiz-adv-x="616" arabic-form="final" 
d="M622 125h13v-125h-40q-87 0 -129 59q-34 -59 -123 -59h-148q-59 0 -99 16.5t-76 55.5l83 96q33 -43 99 -43h121q61 0 61 47q0 26 -19 67l-82 175l117 52l125 -277q16 -37 37 -50.5t60 -13.5zM377 696q29 0 50 -19t21 -56q0 -43 -27 -66.5t-89 -34.5l-117 -21v52l35 6
l5 171l54 11l-3 -75q29 32 71 32zM304 567l42 8q46 8 46 38t-26 30q-57 0 -62 -76z" />
    <glyph glyph-name="jehar.fina" unicode="&#x698;" horiz-adv-x="397" arabic-form="final" 
d="M395 125h22v-125h-40q-47 0 -79 27q-9 -109 -64.5 -170.5t-163.5 -92.5l-41 119q82 21 114 61t32 135v286h125v-145q0 -95 95 -95zM91 577h127v-126h-127v126zM259 577h127v-126h-127v126zM175 739h127v-126h-127v126z" />
    <glyph glyph-name="rrehar.fina" unicode="&#x691;" horiz-adv-x="397" arabic-form="final" 
d="M395 125h22v-125h-40q-47 0 -79 27q-9 -109 -64.5 -170.5t-163.5 -92.5l-41 119q82 21 114 61t32 135v286h125v-145q0 -95 95 -95zM286 626q29 0 50 -19t21 -56q0 -43 -27 -66.5t-89 -34.5l-117 -21v52l35 6l5 171l54 11l-3 -75q29 32 71 32zM213 497l42 8q46 8 46 38
t-26 30q-57 0 -62 -76z" />
    <glyph glyph-name="kehehar.fina" unicode="&#x6a9;" horiz-adv-x="923" arabic-form="final" 
d="M850 125h94v-125h-132q-54 0 -86 19.5t-57 66.5q-32 -86 -132 -86h-218q-271 0 -271 252v113h119v-105q0 -135 160 -135h191q78 0 78 74q0 29 -27 95l-83 200v105l398 148v-136l-270 -98l132 -319q17 -42 39 -55.5t65 -13.5z" />
    <glyph glyph-name="kehehar.init" unicode="&#x6a9;" horiz-adv-x="460" arabic-form="initial" 
d="M180 513l71 -172q37 -88 37 -156q0 -83 -47.5 -134t-146.5 -51h-114v125h104q78 0 78 74q0 32 -24 90l-86 205v105l398 148v-136z" />
    <glyph glyph-name="kehehar.medi" unicode="&#x6a9;" horiz-adv-x="490" arabic-form="medial" 
d="M416 125h94v-125h-132q-54 0 -86 19.5t-57 66.5q-32 -86 -132 -86h-123v125h104q78 0 78 74q0 29 -27 95l-83 200v105l398 148v-136l-270 -98l132 -319q17 -42 39 -55.5t65 -13.5z" />
    <glyph glyph-name="gafar.fina" unicode="&#x6af;" horiz-adv-x="923" arabic-form="final" 
d="M850 125h94v-125h-132q-54 0 -86 19.5t-57 66.5q-32 -86 -132 -86h-218q-271 0 -271 252v113h119v-105q0 -135 160 -135h191q78 0 78 74q0 29 -27 95l-83 200v105l398 148v-136l-270 -98l132 -319q17 -42 39 -55.5t65 -13.5zM873 887v-75l-396 -147v74z" />
    <glyph glyph-name="gafar.init" unicode="&#x6af;" horiz-adv-x="460" arabic-form="initial" 
d="M180 513l71 -172q37 -88 37 -156q0 -83 -47.5 -134t-146.5 -51h-114v125h104q78 0 78 74q0 32 -24 90l-86 205v105l398 148v-136zM439 887v-75l-396 -147v74z" />
    <glyph glyph-name="gafar.medi" unicode="&#x6af;" horiz-adv-x="490" arabic-form="medial" 
d="M416 125h94v-125h-132q-54 0 -86 19.5t-57 66.5q-32 -86 -132 -86h-123v125h104q78 0 78 74q0 29 -27 95l-83 200v105l398 148v-136l-270 -98l132 -319q17 -42 39 -55.5t65 -13.5zM439 887v-75l-396 -147v74z" />
    <glyph glyph-name="guehar.fina" unicode="&#x6b3;" horiz-adv-x="923" arabic-form="final" 
d="M339 -215h127v-126h-127v126zM339 -61h127v-126h-127v126zM850 125h94v-125h-132q-54 0 -86 19.5t-57 66.5q-32 -86 -132 -86h-218q-271 0 -271 252v113h119v-105q0 -135 160 -135h191q78 0 78 74q0 29 -27 95l-83 200v105l398 148v-136l-270 -98l132 -319
q17 -42 39 -55.5t65 -13.5zM873 887v-75l-396 -147v74z" />
    <glyph glyph-name="guehar.init" unicode="&#x6b3;" horiz-adv-x="460" arabic-form="initial" 
d="M60 -227h127v-126h-127v126zM60 -73h127v-126h-127v126zM180 513l71 -172q37 -88 37 -156q0 -83 -47.5 -134t-146.5 -51h-114v125h104q78 0 78 74q0 32 -24 90l-86 205v105l398 148v-136zM439 887v-75l-396 -147v74z" />
    <glyph glyph-name="guehar.medi" unicode="&#x6b3;" horiz-adv-x="490" arabic-form="medial" 
d="M143 -227h127v-126h-127v126zM143 -73h127v-126h-127v126zM416 125h94v-125h-132q-54 0 -86 19.5t-57 66.5q-32 -86 -132 -86h-123v125h104q78 0 78 74q0 29 -27 95l-83 200v105l398 148v-136l-270 -98l132 -319q17 -42 39 -55.5t65 -13.5zM439 887v-75l-396 -147v74z
" />
    <glyph glyph-name="ngoehar.fina" unicode="&#x6b1;" horiz-adv-x="923" arabic-form="final" 
d="M505 1018h127v-126h-127v126zM679 1018h127v-126h-127v126zM850 125h94v-125h-132q-54 0 -86 19.5t-57 66.5q-32 -86 -132 -86h-218q-271 0 -271 252v113h119v-105q0 -135 160 -135h191q78 0 78 74q0 29 -27 95l-83 200v105l398 148v-136l-270 -98l132 -319
q17 -42 39 -55.5t65 -13.5zM873 887v-75l-396 -147v74z" />
    <glyph glyph-name="ngoehar.init" unicode="&#x6b1;" horiz-adv-x="460" arabic-form="initial" 
d="M71 1018h127v-126h-127v126zM245 1018h127v-126h-127v126zM180 513l71 -172q37 -88 37 -156q0 -83 -47.5 -134t-146.5 -51h-114v125h104q78 0 78 74q0 32 -24 90l-86 205v105l398 148v-136zM439 887v-75l-396 -147v74z" />
    <glyph glyph-name="ngoehar.medi" unicode="&#x6b1;" horiz-adv-x="490" arabic-form="medial" 
d="M71 1018h127v-126h-127v126zM245 1018h127v-126h-127v126zM416 125h94v-125h-132q-54 0 -86 19.5t-57 66.5q-32 -86 -132 -86h-123v125h104q78 0 78 74q0 29 -27 95l-83 200v105l398 148v-136l-270 -98l132 -319q17 -42 39 -55.5t65 -13.5zM439 887v-75l-396 -147v74z
" />
    <glyph glyph-name="noonghunnaar.fina" unicode="&#x6ba;" horiz-adv-x="704" arabic-form="final" 
d="M702 125h22v-125h-40q-50 0 -83 31q-17 -103 -86 -164.5t-190 -61.5q-142 0 -211.5 81t-69.5 211v268h125v-256q0 -82 40.5 -130.5t117.5 -48.5t115.5 48t38.5 131v256h125v-135q0 -54 22.5 -79.5t73.5 -25.5z" />
    <glyph glyph-name="rnoonar.fina" unicode="&#x6bb;" horiz-adv-x="704" arabic-form="final" 
d="M702 125h22v-125h-40q-50 0 -83 31q-17 -103 -86 -164.5t-190 -61.5q-142 0 -211.5 81t-69.5 211v268h125v-256q0 -82 40.5 -130.5t117.5 -48.5t115.5 48t38.5 131v256h125v-135q0 -54 22.5 -79.5t73.5 -25.5zM373 618q29 0 50 -19t21 -56q0 -43 -27 -66.5t-89 -34.5
l-117 -21v52l35 6l5 171l54 11l-3 -75q29 32 71 32zM300 489l42 8q46 8 46 38t-26 30q-57 0 -62 -76z" />
    <glyph glyph-name="rnoonar.init" unicode="&#x6bb;" horiz-adv-x="288" arabic-form="initial" 
d="M-20 0v125h31q50 0 72 22.5t22 73.5v144h125v-153q0 -103 -54 -157.5t-153 -54.5h-43zM216 626q29 0 50 -19t21 -56q0 -43 -27 -66.5t-89 -34.5l-117 -21v52l35 6l5 171l54 11l-3 -75q29 32 71 32zM143 497l42 8q46 8 46 38t-26 30q-57 0 -62 -76z" />
    <glyph glyph-name="rnoonar.medi" unicode="&#x6bb;" horiz-adv-x="332" arabic-form="medial" 
d="M326 125h26v-125h-67q-96 0 -135 71q-39 -71 -124 -71h-46v125h25q53 0 75.5 23t22.5 77v140h125v-139q0 -50 20 -75.5t78 -25.5zM214 626q29 0 50 -19t21 -56q0 -43 -27 -66.5t-89 -34.5l-117 -21v52l35 6l5 171l54 11l-3 -75q29 32 71 32zM141 497l42 8q46 8 46 38
t-26 30q-57 0 -62 -76z" />
    <glyph glyph-name="hehHamzaabovear.fina" unicode="&#x6c0;" horiz-adv-x="552" arabic-form="final" 
d="M552 125h20v-125h-45q-128 0 -170 90q-43 -54 -136 -54q-84 0 -134 51t-50 137q0 128 99 179q54 28 160 28h41v32h125v-231q0 -58 23 -82.5t67 -24.5zM245 154q47 0 72 26q20 22 20 80v48h-44q-67 0 -94 -15q-36 -20 -36 -66q0 -36 22 -54.5t60 -18.5zM346 571l50 8v-54
l-233 -41v54l72 13q-38 30 -38 77q0 42 25.5 65.5t67.5 23.5q38 0 64 -20l-24 -48q-17 12 -34 12q-19 0 -30 -11.5t-11 -31.5q0 -28 23.5 -41.5t67.5 -5.5z" />
    <glyph glyph-name="hehgoalar.fina" unicode="&#x6c1;" horiz-adv-x="585" arabic-form="final" 
d="M581 125h24v-125h-57q-93 0 -146 56.5t-53 161.5v22h-74q-106 0 -106 -108v-132h-125v154q0 95 55.5 153t157.5 58h217v-141q0 -53 26 -76t81 -23z" />
    <glyph glyph-name="hehgoalar.init" unicode="&#x6c1;" horiz-adv-x="326" arabic-form="initial" 
d="M143 365h125v-181q0 -127 -95 -167q-28 -42 -28 -83q0 -54 53 -104l-85 -80q-84 59 -84 150q0 54 30 100h-79v125h77q86 0 86 81v159z" />
    <glyph glyph-name="hehgoalar.medi" unicode="&#x6c1;" horiz-adv-x="519" arabic-form="medial" 
d="M480 125h58v-125h-50q-36 0 -52 -17.5t-16 -55.5v-130h-141q-177 0 -177 181v52q-28 -30 -86 -30h-36v125h38q84 0 84 91v38h119v-260q0 -44 18 -61t58 -17h11v36q0 84 44 128.5t128 44.5z" />
    <glyph glyph-name="hehDoachashmeear.fina" unicode="&#x6be;" horiz-adv-x="716" arabic-form="final" 
d="M29 0v125h111q-34 40 -34 98q0 71 48 116.5t134 45.5q85 0 131 -44t46 -115q0 -67 -34 -101h56q89 0 89 83v89q0 77 -40.5 118.5t-113.5 41.5q-71 0 -130 -42l-56 92q86 69 200 69q121 0 193 -68.5t72 -190.5v-120q0 -36 -10 -71q6 -1 20 -1h25v-125h-41q-62 0 -103 20
q-49 -20 -111 -20h-77q-93 0 -139 32q-46 -32 -133 -32h-103zM359 194q0 34 -19 53t-52 19q-35 0 -54 -19.5t-19 -52.5q0 -32 18.5 -52.5t53.5 -20.5t53.5 19.5t18.5 53.5z" />
    <glyph glyph-name="hehDoachashmeear.init" unicode="&#x6be;" horiz-adv-x="696" arabic-form="initial" 
d="M387 576q121 0 193 -68.5t72 -190.5v-120q0 -97 -60 -147t-160 -50h-77q-93 0 -139 32q-46 -32 -133 -32h-103v125h111q-34 40 -34 98q0 71 48 116.5t134 45.5q85 0 131 -44t46 -115q0 -67 -34 -101h56q89 0 89 83v89q0 77 -40.5 118.5t-113.5 41.5q-71 0 -130 -42
l-56 92q86 69 200 69zM238 121q35 0 53.5 19.5t18.5 53.5t-19 53t-52 19q-35 0 -54 -19.5t-19 -52.5q0 -32 18.5 -52.5t53.5 -20.5z" />
    <glyph glyph-name="hehDoachashmeear.medi" unicode="&#x6be;" horiz-adv-x="667" arabic-form="medial" 
d="M-20 0v125h111q-34 40 -34 98q0 71 48 116.5t134 45.5q85 0 131 -44t46 -115q0 -67 -34 -101h56q89 0 89 83v89q0 77 -40.5 118.5t-113.5 41.5q-71 0 -130 -42l-56 92q86 69 200 69q121 0 193 -68.5t72 -190.5v-120q0 -36 -10 -71q6 -1 20 -1h25v-125h-41q-62 0 -103 20
q-49 -20 -111 -20h-77q-93 0 -139 32q-46 -32 -133 -32h-103zM310 194q0 34 -19 53t-52 19q-35 0 -54 -19.5t-19 -52.5q0 -32 18.5 -52.5t53.5 -20.5t53.5 19.5t18.5 53.5z" />
    <glyph glyph-name="yehbarreear.fina" unicode="&#x6d2;" horiz-adv-x="468" arabic-form="final" 
d="M488 0h-267q-27 0 -42.5 -14t-15.5 -39q0 -51 59 -51h365v-125h-351q-96 0 -147 47t-51 127q0 82 52.5 131t143.5 49h254v-125z" />
    <glyph glyph-name="yehbarreeHamzaabovear.fina" unicode="&#x6d3;" horiz-adv-x="468" arabic-form="final" 
d="M488 0h-267q-27 0 -42.5 -14t-15.5 -39q0 -51 59 -51h365v-125h-351q-96 0 -147 47t-51 127q0 82 52.5 131t143.5 49h254v-125zM270 252l50 8v-54l-233 -41v54l72 13q-38 30 -38 77q0 42 25.5 65.5t67.5 23.5q38 0 64 -20l-24 -48q-17 12 -34 12q-19 0 -30 -11.5
t-11 -31.5q0 -28 23.5 -41.5t67.5 -5.5z" />
    <glyph glyph-name="ngar.fina" unicode="&#x6ad;" horiz-adv-x="890" arabic-form="final" 
d="M884 125h26v-125h-64q-101 0 -140 72q-42 -72 -158 -72h-225q-275 0 -275 256v109h122v-101q0 -65 34 -102t116 -37h239q56 0 78.5 25t22.5 76v486h125v-485q0 -51 21 -76.5t78 -25.5zM536 381v-79h-222v63h155v18q0 32 -35 32h-96v49l60 107h71l-53 -94h29
q42 0 66.5 -25.5t24.5 -70.5zM277 760h127v-126h-127v126zM445 760h127v-126h-127v126zM361 922h127v-126h-127v126z" />
    <glyph glyph-name="ngar.init" unicode="&#x6ad;" horiz-adv-x="460" arabic-form="initial" 
d="M180 513l71 -172q37 -88 37 -156q0 -83 -47.5 -134t-146.5 -51h-114v125h104q78 0 78 74q0 32 -24 90l-86 205v105l398 148v-136zM77 887h127v-126h-127v126zM245 887h127v-126h-127v126zM161 1049h127v-126h-127v126z" />
    <glyph glyph-name="ngar.medi" unicode="&#x6ad;" horiz-adv-x="490" arabic-form="medial" 
d="M416 125h94v-125h-132q-54 0 -86 19.5t-57 66.5q-32 -86 -132 -86h-123v125h104q78 0 78 74q0 29 -27 95l-83 200v105l398 148v-136l-270 -98l132 -319q17 -42 39 -55.5t65 -13.5zM77 887h127v-126h-127v126zM245 887h127v-126h-127v126zM161 1049h127v-126h-127v126z
" />
    <glyph glyph-name="uar.fina" unicode="&#x6c7;" horiz-adv-x="536" arabic-form="final" 
d="M556 125v-125h-103q-52 -213 -372 -236l-19 121q113 12 173 38t85 77h-41q-141 0 -198 76q-40 52 -40 138q0 103 57 165t158 62q88 0 140 -44q68 -58 68 -212v-60h92zM186 158q28 -33 95 -33h58v54q0 90 -30 117q-21 20 -56 20q-40 0 -63.5 -25t-23.5 -70q0 -40 20 -63z
M282 697q40 0 63.5 -23.5t23.5 -62.5q0 -80 -99 -99l-122 -24v54l78 15q-32 19 -32 60q0 38 24.5 59t63.5 21zM280 568q18 0 28 10.5t10 28.5t-10.5 29t-27.5 11t-27 -10.5t-10 -29.5q0 -17 10 -28t27 -11z" />
    <glyph glyph-name="oear.fina" unicode="&#x6c6;" horiz-adv-x="536" arabic-form="final" 
d="M556 125v-125h-103q-52 -213 -372 -236l-19 121q113 12 173 38t85 77h-41q-141 0 -198 76q-40 52 -40 138q0 103 57 165t158 62q88 0 140 -44q68 -58 68 -212v-60h92zM186 158q28 -33 95 -33h58v54q0 90 -30 117q-21 20 -56 20q-40 0 -63.5 -25t-23.5 -70q0 -40 20 -63z
M262 561l51 118h64l-81 -176h-73l-82 176h67z" />
    <glyph glyph-name="yuar.fina" unicode="&#x6c8;" horiz-adv-x="536" arabic-form="final" 
d="M556 125v-125h-103q-52 -213 -372 -236l-19 121q113 12 173 38t85 77h-41q-141 0 -198 76q-40 52 -40 138q0 103 57 165t158 62q88 0 140 -44q68 -58 68 -212v-60h92zM186 158q28 -33 95 -33h58v54q0 90 -30 117q-21 20 -56 20q-40 0 -63.5 -25t-23.5 -70q0 -40 20 -63z
M287 507l-58 -10v151l58 10v-151z" />
    <glyph glyph-name="vear.fina" unicode="&#x6cb;" horiz-adv-x="536" arabic-form="final" 
d="M556 125v-125h-103q-52 -213 -372 -236l-19 121q113 12 173 38t85 77h-41q-141 0 -198 76q-40 52 -40 138q0 103 57 165t158 62q88 0 140 -44q68 -58 68 -212v-60h92zM186 158q28 -33 95 -33h58v54q0 90 -30 117q-21 20 -56 20q-40 0 -63.5 -25t-23.5 -70q0 -40 20 -63z
M112 635h127v-126h-127v126zM280 635h127v-126h-127v126zM196 797h127v-126h-127v126z" />
    <glyph glyph-name="kirghizoear.fina" unicode="&#x6c5;" horiz-adv-x="539" arabic-form="final" 
d="M556 0h-103q-52 -213 -372 -236l-19 121q114 12 174 39h-121v54h192q7 9 13 22h-41q-141 0 -198 76q-40 52 -40 138q0 103 57 165t158 62q88 0 140 -44q68 -58 68 -212v-60h92v-125zM186 158q28 -33 95 -33h58v54q0 90 -30 117q-21 20 -56 20q-40 0 -63.5 -25t-23.5 -70
q0 -40 20 -63z" />
    <glyph glyph-name="kirghizyuar.fina" unicode="&#x6c9;" horiz-adv-x="536" arabic-form="final" 
d="M556 125v-125h-103q-52 -213 -372 -236l-19 121q113 12 173 38t85 77h-41q-141 0 -198 76q-40 52 -40 138q0 103 57 165t158 62q88 0 140 -44q68 -58 68 -212v-60h92zM186 158q28 -33 95 -33h58v54q0 90 -30 117q-21 20 -56 20q-40 0 -63.5 -25t-23.5 -70q0 -40 20 -63z
M256 619l-51 -118h-64l81 176h73l82 -176h-67z" />
    <glyph glyph-name="ear.fina" unicode="&#x6d0;" horiz-adv-x="723" arabic-form="final" 
d="M727 125h16v-125h-40q-17 0 -34 7q-3 -63 -50.5 -104t-135.5 -41h-210q-66 0 -114 19.5t-73.5 54.5t-36.5 74t-11 86v81h122v-60q0 -63 32 -96.5t106 -33.5h174q77 0 77 69q0 39 -29 84l-56 86h140l38 -54q34 -47 85 -47zM297 -347h127v-126h-127v126zM297 -193h127v-126
h-127v126z" />
    <glyph glyph-name="ear.init" unicode="&#x6d0;" horiz-adv-x="288" arabic-form="initial" 
d="M-20 0v125h31q50 0 72 22.5t22 73.5v144h125v-153q0 -103 -54 -157.5t-153 -54.5h-43zM72 -215h127v-126h-127v126zM72 -61h127v-126h-127v126z" />
    <glyph glyph-name="ear.medi" unicode="&#x6d0;" horiz-adv-x="332" arabic-form="medial" 
d="M326 125h26v-125h-67q-96 0 -135 71q-39 -71 -124 -71h-46v125h25q53 0 75.5 23t22.5 77v140h125v-139q0 -50 20 -75.5t78 -25.5zM84 -215h127v-126h-127v126zM84 -61h127v-126h-127v126z" />
    <glyph glyph-name="alefMaksuraar.init" unicode="&#x649;" horiz-adv-x="288" arabic-form="initial" 
d="M-20 0v125h31q50 0 72 22.5t22 73.5v144h125v-153q0 -103 -54 -157.5t-153 -54.5h-43z" />
    <glyph glyph-name="alefMaksuraar.medi" unicode="&#x649;" horiz-adv-x="332" arabic-form="medial" 
d="M326 125h26v-125h-67q-96 0 -135 71q-39 -71 -124 -71h-46v125h25q53 0 75.5 23t22.5 77v140h125v-139q0 -50 20 -75.5t78 -25.5z" />
    <glyph glyph-name="yehfarsi.fina" unicode="&#x6cc;" horiz-adv-x="723" arabic-form="final" 
d="M727 125h16v-125h-40q-17 0 -34 7q-3 -63 -50.5 -104t-135.5 -41h-210q-66 0 -114 19.5t-73.5 54.5t-36.5 74t-11 86v81h122v-60q0 -63 32 -96.5t106 -33.5h174q77 0 77 69q0 39 -29 84l-56 86h140l38 -54q34 -47 85 -47z" />
    <glyph glyph-name="yehfarsi.init" unicode="&#x6cc;" horiz-adv-x="288" arabic-form="initial" 
d="M-20 0v125h31q50 0 72 22.5t22 73.5v144h125v-153q0 -103 -54 -157.5t-153 -54.5h-43zM-15 -61h127v-126h-127v126zM159 -61h127v-126h-127v126z" />
    <glyph glyph-name="yehfarsi.medi" unicode="&#x6cc;" horiz-adv-x="332" arabic-form="medial" 
d="M326 125h26v-125h-67q-96 0 -135 71q-39 -71 -124 -71h-46v125h25q53 0 75.5 23t22.5 77v140h125v-139q0 -50 20 -75.5t78 -25.5zM-3 -61h127v-126h-127v126zM171 -61h127v-126h-127v126z" />
    <glyph glyph-name="rial" unicode="&#xfdfc;" horiz-adv-x="1561" arabic-form="isolated" 
d="M1510 365v-293q0 -132 -56 -203t-174 -105l-41 119q82 21 114 61t32 135v286h125zM879 -60h127v-126h-127v126zM1053 -60h127v-126h-127v126zM308 -71q78 0 108 40.5t30 126.5v539h123v-545q0 -286 -264 -286q-138 0 -200.5 74t-62.5 203v65h124v-57q0 -160 142 -160z
M1105 365h125v-166q0 -95 -53 -147t-148 -52h-132q-118 0 -166 83q-32 56 -32 161v468h125v-461q0 -66 18 -92q23 -34 81 -34h96q86 0 86 85v155z" />
    <glyph glyph-name="alefMaddaar.fina" unicode="&#x622;" horiz-adv-x="288" arabic-form="final" 
d="M308 0h-46q-118 0 -168 85q-30 51 -30 159v304h125v-297q0 -66 18 -92q23 -34 81 -34h20v-125zM214 696l33 -42q-33 -57 -89 -57q-33 0 -61 24q-20 18 -35 18q-22 0 -42 -28l-32 47q36 52 85 52q32 0 57 -23q21 -19 41 -19q25 0 43 28z" />
    <glyph glyph-name="alefHamzaabovear.fina" unicode="&#x623;" horiz-adv-x="288" arabic-form="final" 
d="M308 0h-46q-118 0 -168 85q-30 51 -30 159v304h125v-297q0 -66 18 -92q23 -34 81 -34h20v-125zM186 664l50 8v-54l-233 -41v54l72 13q-38 30 -38 77q0 42 25.5 65.5t67.5 23.5q38 0 64 -20l-24 -48q-17 12 -34 12q-19 0 -30 -11.5t-11 -31.5q0 -28 23.5 -41.5t67.5 -5.5z
" />
    <glyph glyph-name="wawHamzaabovear.fina" unicode="&#x624;" horiz-adv-x="536" arabic-form="final" 
d="M556 125v-125h-103q-52 -213 -372 -236l-19 121q113 12 173 38t85 77h-41q-141 0 -198 76q-40 52 -40 138q0 103 57 165t158 62q88 0 140 -44q68 -58 68 -212v-60h92zM186 158q28 -33 95 -33h58v54q0 90 -30 117q-21 20 -56 20q-40 0 -63.5 -25t-23.5 -70q0 -40 20 -63z
M326 571l50 8v-54l-233 -41v54l72 13q-38 30 -38 77q0 42 25.5 65.5t67.5 23.5q38 0 64 -20l-24 -48q-17 12 -34 12q-19 0 -30 -11.5t-11 -31.5q0 -28 23.5 -41.5t67.5 -5.5z" />
    <glyph glyph-name="alefHamzabelowar.fina" unicode="&#x625;" horiz-adv-x="288" arabic-form="final" 
d="M308 0h-46q-118 0 -166 83q-32 56 -32 161v468h125v-461q0 -66 18 -92q23 -34 81 -34h20v-125zM226 -202l50 8v-54l-233 -41v54l72 13q-38 30 -38 77q0 42 25.5 65.5t67.5 23.5q38 0 64 -20l-24 -48q-17 12 -34 12q-19 0 -30 -11.5t-11 -31.5q0 -28 23.5 -41.5t67.5 -5.5
z" />
    <glyph glyph-name="yehHamzaabovear.fina" unicode="&#x626;" horiz-adv-x="723" arabic-form="final" 
d="M727 125h16v-125h-40q-17 0 -34 7q-3 -63 -50.5 -104t-135.5 -41h-210q-66 0 -114 19.5t-73.5 54.5t-36.5 74t-11 86v81h122v-60q0 -63 32 -96.5t106 -33.5h174q77 0 77 69q0 39 -29 84l-56 86h140l38 -54q34 -47 85 -47zM365 307l50 8v-54l-233 -41v54l72 13
q-38 30 -38 77q0 42 25.5 65.5t67.5 23.5q38 0 64 -20l-24 -48q-17 12 -34 12q-19 0 -30 -11.5t-11 -31.5q0 -28 23.5 -41.5t67.5 -5.5z" />
    <glyph glyph-name="yehHamzaabovear.init" unicode="&#x626;" horiz-adv-x="288" arabic-form="initial" 
d="M-20 0v125h31q50 0 72 22.5t22 73.5v144h125v-153q0 -103 -54 -157.5t-153 -54.5h-43zM235 513l50 8v-54l-233 -41v54l72 13q-38 30 -38 77q0 42 25.5 65.5t67.5 23.5q38 0 64 -20l-24 -48q-17 12 -34 12q-19 0 -30 -11.5t-11 -31.5q0 -28 23.5 -41.5t67.5 -5.5z" />
    <glyph glyph-name="yehHamzaabovear.medi" unicode="&#x626;" horiz-adv-x="332" arabic-form="medial" 
d="M326 125h26v-125h-67q-96 0 -135 71q-39 -71 -124 -71h-46v125h25q53 0 75.5 23t22.5 77v140h125v-139q0 -50 20 -75.5t78 -25.5zM233 513l50 8v-54l-233 -41v54l72 13q-38 30 -38 77q0 42 25.5 65.5t67.5 23.5q38 0 64 -20l-24 -48q-17 12 -34 12q-19 0 -30 -11.5
t-11 -31.5q0 -28 23.5 -41.5t67.5 -5.5z" />
    <glyph glyph-name="alefar.fina" unicode="&#x627;" horiz-adv-x="288" arabic-form="final" 
d="M308 0h-46q-118 0 -166 83q-32 56 -32 161v468h125v-461q0 -66 18 -92q23 -34 81 -34h20v-125z" />
    <glyph glyph-name="behar.fina" unicode="&#x628;" horiz-adv-x="890" arabic-form="final" 
d="M884 125h26v-125h-64q-101 0 -140 72q-42 -72 -158 -72h-225q-275 0 -275 256v109h122v-101q0 -65 34 -102t116 -37h239q56 0 78.5 25t22.5 76v139h125v-138q0 -51 21 -76.5t78 -25.5zM358 -61h127v-126h-127v126z" />
    <glyph glyph-name="behar.init" unicode="&#x628;" horiz-adv-x="288" arabic-form="initial" 
d="M-20 0v125h31q50 0 72 22.5t22 73.5v144h125v-153q0 -103 -54 -157.5t-153 -54.5h-43zM72 -61h127v-126h-127v126z" />
    <glyph glyph-name="behar.medi" unicode="&#x628;" horiz-adv-x="332" arabic-form="medial" 
d="M326 125h26v-125h-67q-96 0 -135 71q-39 -71 -124 -71h-46v125h25q53 0 75.5 23t22.5 77v140h125v-139q0 -50 20 -75.5t78 -25.5zM84 -61h127v-126h-127v126z" />
    <glyph glyph-name="tehMarbutaar.fina" unicode="&#x629;" horiz-adv-x="552" arabic-form="final" 
d="M552 125h20v-125h-45q-128 0 -170 90q-43 -54 -136 -54q-84 0 -134 51t-50 137q0 128 99 179q54 28 160 28h41v32h125v-231q0 -58 23 -82.5t67 -24.5zM245 154q47 0 72 26q20 22 20 80v48h-44q-67 0 -94 -15q-36 -20 -36 -66q0 -36 22 -54.5t60 -18.5zM129 635h127v-126
h-127v126zM303 635h127v-126h-127v126z" />
    <glyph glyph-name="tehar.fina" unicode="&#x62a;" horiz-adv-x="890" arabic-form="final" 
d="M884 125h26v-125h-64q-101 0 -140 72q-42 -72 -158 -72h-225q-275 0 -275 256v109h122v-101q0 -65 34 -102t116 -37h239q56 0 78.5 25t22.5 76v139h125v-138q0 -51 21 -76.5t78 -25.5zM271 577h127v-126h-127v126zM445 577h127v-126h-127v126z" />
    <glyph glyph-name="tehar.init" unicode="&#x62a;" horiz-adv-x="288" arabic-form="initial" 
d="M-20 0v125h31q50 0 72 22.5t22 73.5v144h125v-153q0 -103 -54 -157.5t-153 -54.5h-43zM18 577h127v-126h-127v126zM192 577h127v-126h-127v126z" />
    <glyph glyph-name="tehar.medi" unicode="&#x62a;" horiz-adv-x="332" arabic-form="medial" 
d="M326 125h26v-125h-67q-96 0 -135 71q-39 -71 -124 -71h-46v125h25q53 0 75.5 23t22.5 77v140h125v-139q0 -50 20 -75.5t78 -25.5zM16 577h127v-126h-127v126zM190 577h127v-126h-127v126z" />
    <glyph glyph-name="thehar.fina" unicode="&#x62b;" horiz-adv-x="890" arabic-form="final" 
d="M884 125h26v-125h-64q-101 0 -140 72q-42 -72 -158 -72h-225q-275 0 -275 256v109h122v-101q0 -65 34 -102t116 -37h239q56 0 78.5 25t22.5 76v139h125v-138q0 -51 21 -76.5t78 -25.5zM274 577h127v-126h-127v126zM442 577h127v-126h-127v126zM358 739h127v-126h-127v126
z" />
    <glyph glyph-name="thehar.init" unicode="&#x62b;" horiz-adv-x="288" arabic-form="initial" 
d="M-20 0v125h31q50 0 72 22.5t22 73.5v144h125v-153q0 -103 -54 -157.5t-153 -54.5h-43zM21 577h127v-126h-127v126zM189 577h127v-126h-127v126zM105 739h127v-126h-127v126z" />
    <glyph glyph-name="thehar.medi" unicode="&#x62b;" horiz-adv-x="332" arabic-form="medial" 
d="M326 125h26v-125h-67q-96 0 -135 71q-39 -71 -124 -71h-46v125h25q53 0 75.5 23t22.5 77v140h125v-139q0 -50 20 -75.5t78 -25.5zM19 577h127v-126h-127v126zM187 577h127v-126h-127v126zM103 739h127v-126h-127v126z" />
    <glyph glyph-name="jeemar.fina" unicode="&#x62c;" horiz-adv-x="613" arabic-form="final" 
d="M544 125h89v-125h-66q-76 0 -112.5 36.5t-38.5 113.5h-53q-203 0 -203 -160q0 -76 44.5 -117.5t121.5 -41.5q91 0 164 60l61 -95q-98 -88 -238 -88q-126 0 -202.5 69.5t-76.5 202.5q0 126 74.5 202t206.5 87l-23 19q-40 33 -82 33q-52 0 -91 -39l-59 85q66 74 158 74
q77 0 141 -58l65 -59q47 -44 95 -44h26v-112h-30v-12q0 -31 29 -31zM252 44h127v-126h-127v126z" />
    <glyph glyph-name="jeemar.init" unicode="&#x62c;" horiz-adv-x="556" arabic-form="initial" 
d="M503 279h23v-130h-24q-59 0 -98 -30l-72 -56q-41 -32 -86.5 -47.5t-115.5 -15.5h-150v125h163q73 0 119 39l34 28q24 19 41 26q-23 10 -41 28l-35 34q-38 36 -83 36q-44 0 -88 -40l-59 89q62 76 160 76q84 0 146 -59l70 -66q41 -37 96 -37zM143 -61h127v-126h-127v126z
" />
    <glyph glyph-name="jeemar.medi" unicode="&#x62c;" horiz-adv-x="595" arabic-form="medial" 
d="M509 125h106v-125h-114q-108 0 -124 91l-25 -22q-75 -69 -189 -69h-183v125h184q70 0 115 34l27 20q32 24 64 30q-34 9 -65 38l-36 34q-37 34 -82 34q-46 0 -89 -40l-58 90q62 76 161 76q83 0 145 -56l68 -62q41 -37 98 -37h17v-114h-23q-19 0 -31 -3v-11q0 -33 34 -33z
M161 -61h127v-126h-127v126z" />
    <glyph glyph-name="hahar.fina" unicode="&#x62d;" horiz-adv-x="613" arabic-form="final" 
d="M544 125h89v-125h-66q-76 0 -112.5 36.5t-38.5 113.5h-53q-203 0 -203 -160q0 -76 44.5 -117.5t121.5 -41.5q91 0 164 60l61 -95q-98 -88 -238 -88q-126 0 -202.5 69.5t-76.5 202.5q0 126 74.5 202t206.5 87l-23 19q-40 33 -82 33q-52 0 -91 -39l-59 85q66 74 158 74
q77 0 141 -58l65 -59q47 -44 95 -44h26v-112h-30v-12q0 -31 29 -31z" />
    <glyph glyph-name="hahar.init" unicode="&#x62d;" horiz-adv-x="556" arabic-form="initial" 
d="M503 279h23v-130h-24q-59 0 -98 -30l-72 -56q-41 -32 -86.5 -47.5t-115.5 -15.5h-150v125h163q73 0 119 39l34 28q24 19 41 26q-23 10 -41 28l-35 34q-38 36 -83 36q-44 0 -88 -40l-59 89q62 76 160 76q84 0 146 -59l70 -66q41 -37 96 -37z" />
    <glyph glyph-name="hahar.medi" unicode="&#x62d;" horiz-adv-x="595" arabic-form="medial" 
d="M509 125h106v-125h-114q-108 0 -124 91l-25 -22q-75 -69 -189 -69h-183v125h184q70 0 115 34l27 20q32 24 64 30q-34 9 -65 38l-36 34q-37 34 -82 34q-46 0 -89 -40l-58 90q62 76 161 76q83 0 145 -56l68 -62q41 -37 98 -37h17v-114h-23q-19 0 -31 -3v-11q0 -33 34 -33z
" />
    <glyph glyph-name="khahar.fina" unicode="&#x62e;" horiz-adv-x="613" arabic-form="final" 
d="M544 125h89v-125h-66q-76 0 -112.5 36.5t-38.5 113.5h-53q-203 0 -203 -160q0 -76 44.5 -117.5t121.5 -41.5q91 0 164 60l61 -95q-98 -88 -238 -88q-126 0 -202.5 69.5t-76.5 202.5q0 126 74.5 202t206.5 87l-23 19q-40 33 -82 33q-52 0 -91 -39l-59 85q66 74 158 74
q77 0 141 -58l65 -59q47 -44 95 -44h26v-112h-30v-12q0 -31 29 -31zM154 636h127v-126h-127v126z" />
    <glyph glyph-name="khahar.init" unicode="&#x62e;" horiz-adv-x="556" arabic-form="initial" 
d="M503 279h23v-130h-24q-59 0 -98 -30l-72 -56q-41 -32 -86.5 -47.5t-115.5 -15.5h-150v125h163q73 0 119 39l34 28q24 19 41 26q-23 10 -41 28l-35 34q-38 36 -83 36q-44 0 -88 -40l-59 89q62 76 160 76q84 0 146 -59l70 -66q41 -37 96 -37zM125 642h127v-126h-127v126z
" />
    <glyph glyph-name="khahar.medi" unicode="&#x62e;" horiz-adv-x="595" arabic-form="medial" 
d="M509 125h106v-125h-114q-108 0 -124 91l-25 -22q-75 -69 -189 -69h-183v125h184q70 0 115 34l27 20q32 24 64 30q-34 9 -65 38l-36 34q-37 34 -82 34q-46 0 -89 -40l-58 90q62 76 161 76q83 0 145 -56l68 -62q41 -37 98 -37h17v-114h-23q-19 0 -31 -3v-11q0 -33 34 -33z
M132 642h127v-126h-127v126z" />
    <glyph glyph-name="dalar.fina" unicode="&#x62f;" horiz-adv-x="616" arabic-form="final" 
d="M622 125h13v-125h-40q-87 0 -129 59q-34 -59 -123 -59h-148q-59 0 -99 16.5t-76 55.5l83 96q33 -43 99 -43h121q61 0 61 47q0 26 -19 67l-82 175l117 52l125 -277q16 -37 37 -50.5t60 -13.5z" />
    <glyph glyph-name="thalar.fina" unicode="&#x630;" horiz-adv-x="616" arabic-form="final" 
d="M622 125h13v-125h-40q-87 0 -129 59q-34 -59 -123 -59h-148q-59 0 -99 16.5t-76 55.5l83 96q33 -43 99 -43h121q61 0 61 47q0 26 -19 67l-82 175l117 52l125 -277q16 -37 37 -50.5t60 -13.5zM266 648h127v-126h-127v126z" />
    <glyph glyph-name="rehar.fina" unicode="&#x631;" horiz-adv-x="397" arabic-form="final" 
d="M395 125h22v-125h-40q-47 0 -79 27q-9 -109 -64.5 -170.5t-163.5 -92.5l-41 119q82 21 114 61t32 135v286h125v-145q0 -95 95 -95z" />
    <glyph glyph-name="zainar.fina" unicode="&#x632;" horiz-adv-x="397" arabic-form="final" 
d="M395 125h22v-125h-40q-47 0 -79 27q-9 -109 -64.5 -170.5t-163.5 -92.5l-41 119q82 21 114 61t32 135v286h125v-145q0 -95 95 -95zM175 578h127v-126h-127v126z" />
    <glyph glyph-name="seenar.fina" unicode="&#x633;" horiz-adv-x="1195" arabic-form="final" 
d="M1195 125h20v-125h-44q-105 0 -142 69q-37 -75 -129 -75q-82 0 -118 61q-29 -62 -105 -62q-51 0 -78 27q-20 -98 -88.5 -156.5t-185.5 -58.5q-142 0 -211.5 81t-69.5 211v129h125v-117q0 -82 40.5 -130.5t117.5 -48.5t115.5 48t38.5 131v179h125v-109q0 -26 15.5 -43.5
t45.5 -17.5q59 0 59 71v139h125v-138q0 -72 61 -72q59 0 59 72v175h125v-132q0 -58 21.5 -83t77.5 -25z" />
    <glyph glyph-name="seenar.init" unicode="&#x633;" horiz-adv-x="758" arabic-form="initial" 
d="M587 365h123v-177q0 -102 -51.5 -148t-128.5 -46q-102 0 -141 69q-35 -69 -126 -69q-93 0 -126 70q-34 -64 -117 -64h-40v125h25q49 0 70.5 23.5t21.5 74.5v65h125v-99q0 -71 61 -71q59 0 59 71v139h125v-138q0 -72 61 -72q59 0 59 72v175z" />
    <glyph glyph-name="seenar.medi" unicode="&#x633;" horiz-adv-x="811" arabic-form="medial" 
d="M811 125h20v-125h-38q-110 0 -148 69q-36 -75 -129 -75q-90 0 -125 69q-35 -69 -126 -69q-89 0 -124 69q-39 -63 -120 -63h-41v125h26q47 0 69 23t22 72v68h125v-98q0 -72 61 -72q59 0 59 72v138h125v-138q0 -72 61 -72q59 0 59 72v175h125v-135q0 -56 22 -80.5t77 -24.5
z" />
    <glyph glyph-name="sheenar.fina" unicode="&#x634;" horiz-adv-x="1195" arabic-form="final" 
d="M1195 125h20v-125h-44q-105 0 -142 69q-37 -75 -129 -75q-82 0 -118 61q-29 -62 -105 -62q-51 0 -78 27q-20 -98 -88.5 -156.5t-185.5 -58.5q-142 0 -211.5 81t-69.5 211v129h125v-117q0 -82 40.5 -130.5t117.5 -48.5t115.5 48t38.5 131v179h125v-109q0 -26 15.5 -43.5
t45.5 -17.5q59 0 59 71v139h125v-138q0 -72 61 -72q59 0 59 72v175h125v-132q0 -58 21.5 -83t77.5 -25zM642 532h127v-126h-127v126zM810 532h127v-126h-127v126zM726 694h127v-126h-127v126z" />
    <glyph glyph-name="sheenar.init" unicode="&#x634;" horiz-adv-x="758" arabic-form="initial" 
d="M587 365h123v-177q0 -102 -51.5 -148t-128.5 -46q-102 0 -141 69q-35 -69 -126 -69q-93 0 -126 70q-34 -64 -117 -64h-40v125h25q49 0 70.5 23.5t21.5 74.5v65h125v-99q0 -71 61 -71q59 0 59 71v139h125v-138q0 -72 61 -72q59 0 59 72v175zM259 532h127v-126h-127v126z
M427 532h127v-126h-127v126zM343 694h127v-126h-127v126z" />
    <glyph glyph-name="sheenar.medi" unicode="&#x634;" horiz-adv-x="811" arabic-form="medial" 
d="M811 125h20v-125h-38q-110 0 -148 69q-36 -75 -129 -75q-90 0 -125 69q-35 -69 -126 -69q-89 0 -124 69q-39 -63 -120 -63h-41v125h26q47 0 69 23t22 72v68h125v-98q0 -72 61 -72q59 0 59 72v138h125v-138q0 -72 61 -72q59 0 59 72v175h125v-135q0 -56 22 -80.5t77 -24.5
zM259 532h127v-126h-127v126zM427 532h127v-126h-127v126zM343 694h127v-126h-127v126z" />
    <glyph glyph-name="sadar.fina" unicode="&#x635;" horiz-adv-x="1255" arabic-form="final" 
d="M1240 125h36v-125h-53q-76 0 -124 41q-59 -41 -151 -41h-154v-64h-116v65q-47 5 -76 38q-15 -106 -84 -170t-193 -64q-142 0 -211.5 81t-69.5 211v129h125v-117q0 -82 40.5 -130.5t117.5 -48.5t115.5 48t38.5 131v179h125v-77q0 -46 15 -65.5t54 -20.5q4 79 30 141
t67 99.5t91 56.5t105 19q100 0 159.5 -57t59.5 -158q0 -47 -13 -85q29 -16 66 -16zM799 125h149q56 0 85 25t29 71q0 44 -27 70t-76 26q-69 0 -113 -49t-47 -143z" />
    <glyph glyph-name="sadar.init" unicode="&#x635;" horiz-adv-x="826" arabic-form="initial" 
d="M572 441q102 0 160.5 -57.5t58.5 -156.5q0 -106 -65.5 -166.5t-179.5 -60.5h-148v-64h-116v64h-4q-112 0 -146 67q-34 -67 -113 -67h-39v125h25q41 0 60.5 15.5t19.5 58.5v78h125v-76q0 -41 15 -58t54 -18q9 156 91.5 236t201.5 80zM403 125h139q124 0 124 96
q0 44 -27 70t-77 26q-68 0 -112 -49t-47 -143z" />
    <glyph glyph-name="sadar.medi" unicode="&#x635;" horiz-adv-x="851" arabic-form="medial" 
d="M835 125h36v-125h-53q-73 0 -121 39q-62 -39 -151 -39h-148v-64h-116v64h-4q-112 0 -146 67q-34 -67 -113 -67h-39v125h25q41 0 60.5 15.5t19.5 58.5v78h125v-76q0 -41 15 -58t54 -18q9 156 91.5 236t201.5 80q102 0 160.5 -57.5t58.5 -156.5q0 -50 -15 -89
q25 -13 59 -13zM403 125h139q124 0 124 96q0 44 -27 70t-77 26q-68 0 -112 -49t-47 -143z" />
    <glyph glyph-name="dadar.fina" unicode="&#x636;" horiz-adv-x="1255" arabic-form="final" 
d="M1240 125h36v-125h-53q-76 0 -124 41q-59 -41 -151 -41h-154v-64h-116v65q-47 5 -76 38q-15 -106 -84 -170t-193 -64q-142 0 -211.5 81t-69.5 211v129h125v-117q0 -82 40.5 -130.5t117.5 -48.5t115.5 48t38.5 131v179h125v-77q0 -46 15 -65.5t54 -20.5q4 79 30 141
t67 99.5t91 56.5t105 19q100 0 159.5 -57t59.5 -158q0 -47 -13 -85q29 -16 66 -16zM799 125h149q56 0 85 25t29 71q0 44 -27 70t-76 26q-69 0 -113 -49t-47 -143zM903 636h127v-126h-127v126z" />
    <glyph glyph-name="dadar.init" unicode="&#x636;" horiz-adv-x="826" arabic-form="initial" 
d="M572 441q102 0 160.5 -57.5t58.5 -156.5q0 -106 -65.5 -166.5t-179.5 -60.5h-148v-64h-116v64h-4q-112 0 -146 67q-34 -67 -113 -67h-39v125h25q41 0 60.5 15.5t19.5 58.5v78h125v-76q0 -41 15 -58t54 -18q9 156 91.5 236t201.5 80zM403 125h139q124 0 124 96
q0 44 -27 70t-77 26q-68 0 -112 -49t-47 -143zM506 636h127v-126h-127v126z" />
    <glyph glyph-name="dadar.medi" unicode="&#x636;" horiz-adv-x="851" arabic-form="medial" 
d="M835 125h36v-125h-53q-73 0 -121 39q-62 -39 -151 -39h-148v-64h-116v64h-4q-112 0 -146 67q-34 -67 -113 -67h-39v125h25q41 0 60.5 15.5t19.5 58.5v78h125v-76q0 -41 15 -58t54 -18q9 156 91.5 236t201.5 80q102 0 160.5 -57.5t58.5 -156.5q0 -50 -15 -89
q25 -13 59 -13zM403 125h139q124 0 124 96q0 44 -27 70t-77 26q-68 0 -112 -49t-47 -143zM506 636h127v-126h-127v126z" />
    <glyph glyph-name="tahar.fina" unicode="&#x637;" horiz-adv-x="714" arabic-form="final" 
d="M699 125h36v-125h-53q-73 0 -121 39q-64 -39 -152 -39h-375v125h97v587h125v-378q30 52 81 79.5t115 27.5q94 0 149.5 -56.5t55.5 -155.5q0 -53 -16 -92q25 -12 58 -12zM245 125h170q56 0 86.5 25t30.5 71q0 45 -28.5 69.5t-75.5 24.5q-67 0 -119 -46.5t-64 -143.5z" />
    <glyph glyph-name="tahar.init" unicode="&#x637;" horiz-adv-x="644" arabic-form="initial" 
d="M398 441q94 0 149.5 -56.5t55.5 -155.5q0 -106 -67 -167.5t-181 -61.5h-375v125h97v587h125v-378q30 52 81 79.5t115 27.5zM191 125h170q56 0 86.5 25t30.5 71q0 45 -28.5 69.5t-75.5 24.5q-67 0 -119 -46.5t-64 -143.5z" />
    <glyph glyph-name="tahar.medi" unicode="&#x637;" horiz-adv-x="670" arabic-form="medial" 
d="M655 125h36v-125h-53q-76 0 -126 42q-64 -42 -157 -42h-375v125h97v587h125v-378q30 52 81 79.5t115 27.5q94 0 149.5 -56.5t55.5 -155.5q0 -47 -14 -87q28 -17 66 -17zM191 125h170q56 0 86.5 25t30.5 71q0 45 -28.5 69.5t-75.5 24.5q-67 0 -119 -46.5t-64 -143.5z" />
    <glyph glyph-name="zahar.fina" unicode="&#x638;" horiz-adv-x="714" arabic-form="final" 
d="M699 125h36v-125h-53q-73 0 -121 39q-64 -39 -152 -39h-375v125h97v587h125v-378q30 52 81 79.5t115 27.5q94 0 149.5 -56.5t55.5 -155.5q0 -53 -16 -92q25 -12 58 -12zM245 125h170q56 0 86.5 25t30.5 71q0 45 -28.5 69.5t-75.5 24.5q-67 0 -119 -46.5t-64 -143.5z
M398 636h127v-126h-127v126z" />
    <glyph glyph-name="zahar.init" unicode="&#x638;" horiz-adv-x="644" arabic-form="initial" 
d="M344 636h127v-126h-127v126zM398 441q94 0 149.5 -56.5t55.5 -155.5q0 -106 -67 -167.5t-181 -61.5h-375v125h97v587h125v-378q30 52 81 79.5t115 27.5zM191 125h170q56 0 86.5 25t30.5 71q0 45 -28.5 69.5t-75.5 24.5q-67 0 -119 -46.5t-64 -143.5z" />
    <glyph glyph-name="zahar.medi" unicode="&#x638;" horiz-adv-x="670" arabic-form="medial" 
d="M655 125h36v-125h-53q-76 0 -126 42q-64 -42 -157 -42h-375v125h97v587h125v-378q30 52 81 79.5t115 27.5q94 0 149.5 -56.5t55.5 -155.5q0 -47 -14 -87q28 -17 66 -17zM191 125h170q56 0 86.5 25t30.5 71q0 45 -28.5 69.5t-75.5 24.5q-67 0 -119 -46.5t-64 -143.5z
M344 636h127v-126h-127v126z" />
    <glyph glyph-name="ainar.fina" unicode="&#x639;" horiz-adv-x="629" arabic-form="final" 
d="M649 0h-385q-118 0 -118 -84q0 -85 134 -85q100 0 177 42l53 -103q-94 -64 -239 -64q-117 0 -185 54t-68 157q0 93 55 145t142 60l-67 145q-15 32 -30.5 43.5t-47.5 11.5v109h343q76 0 119 -38t43 -103q0 -43 -25 -98q-10 -20 -20 -35q-14 -22 -34 -32h153v-125zM447 255
q0 57 -70 57h-121q2 -3 11 -24l69 -163h17q29 0 47 26q16 21 32 53q15 32 15 51z" />
    <glyph glyph-name="ainar.init" unicode="&#x639;" horiz-adv-x="463" arabic-form="initial" 
d="M313 125h115v-125h-448v125h118q-42 52 -42 126q0 85 54.5 137.5t142.5 52.5q83 0 148 -52l-50 -97q-37 27 -80 27q-42 0 -67.5 -25t-25.5 -67q0 -40 24 -67q32 -35 111 -35z" />
    <glyph glyph-name="ainar.medi" unicode="&#x639;" horiz-adv-x="586" arabic-form="medial" 
d="M452 125h154v-125h-626v125h189l-65 142q-15 32 -31 43.5t-47 11.5v109h343q76 0 119 -38t43 -103q0 -40 -25 -98q-10 -20 -20 -35q-16 -23 -34 -32zM357 151q17 22 31 52q15 33 15 52q0 57 -69 57h-121l79 -187h17q28 0 48 26z" />
    <glyph glyph-name="ghainar.fina" unicode="&#x63a;" horiz-adv-x="629" arabic-form="final" 
d="M649 0h-385q-118 0 -118 -84q0 -85 134 -85q100 0 177 42l53 -103q-94 -64 -239 -64q-117 0 -185 54t-68 157q0 93 55 145t142 60l-67 145q-15 32 -30.5 43.5t-47.5 11.5v109h343q76 0 119 -38t43 -103q0 -43 -25 -98q-10 -20 -20 -35q-14 -22 -34 -32h153v-125zM447 255
q0 57 -70 57h-121q2 -3 11 -24l69 -163h17q29 0 47 26q16 21 32 53q15 32 15 51zM259 636h127v-126h-127v126z" />
    <glyph glyph-name="ghainar.init" unicode="&#x63a;" horiz-adv-x="463" arabic-form="initial" 
d="M313 125h115v-125h-448v125h118q-42 52 -42 126q0 85 54.5 137.5t142.5 52.5q83 0 148 -52l-50 -97q-37 27 -80 27q-42 0 -67.5 -25t-25.5 -67q0 -40 24 -67q32 -35 111 -35zM190 636h127v-126h-127v126z" />
    <glyph glyph-name="ghainar.medi" unicode="&#x63a;" horiz-adv-x="586" arabic-form="medial" 
d="M452 125h154v-125h-626v125h189l-65 142q-15 32 -31 43.5t-47 11.5v109h343q76 0 119 -38t43 -103q0 -40 -25 -98q-10 -20 -20 -35q-16 -23 -34 -32zM357 151q17 22 31 52q15 33 15 52q0 57 -69 57h-121l79 -187h17q28 0 48 26zM215 636h127v-126h-127v126z" />
    <glyph glyph-name="fehar.fina" unicode="&#x641;" horiz-adv-x="993" arabic-form="final" 
d="M882 125h131v-125h-167q-97 0 -147 46q-46 -46 -142 -46h-237q-270 0 -270 252v113h119v-106q0 -134 159 -134h237q-47 46 -47 125q0 86 54 138.5t153 52.5q101 0 154 -50.5t53 -132.5q0 -86 -50 -133zM727 122q40 0 64 28t24 72q0 45 -24 70t-64 25q-41 0 -64.5 -26
t-23.5 -70t23.5 -71.5t64.5 -27.5zM659 636h127v-126h-127v126z" />
    <glyph glyph-name="fehar.init" unicode="&#x641;" horiz-adv-x="513" arabic-form="initial" 
d="M250 587q103 0 158.5 -62t55.5 -180v-75q0 -127 -66.5 -198.5t-181.5 -71.5h-236v125h233q60 0 88.5 23t33.5 67q-41 -44 -116 -44q-85 0 -134.5 52t-49.5 146q0 100 57.5 159t157.5 59zM250 275q42 0 66 24.5t24 71.5t-24.5 72.5t-65.5 25.5q-42 0 -66.5 -26t-24.5 -72
q0 -44 23.5 -70t67.5 -26zM187 780h127v-126h-127v126z" />
    <glyph glyph-name="fehar.medi" unicode="&#x641;" horiz-adv-x="535" arabic-form="medial" 
d="M425 125h130v-125h-179q-84 0 -135 48q-51 -48 -129 -48h-132v125h127q-46 45 -46 127q0 84 54 136.5t153 52.5q100 0 153 -50.5t53 -131.5q0 -87 -49 -134zM269 122q40 0 64 27.5t24 72.5q0 44 -24 69.5t-64 25.5q-41 0 -64.5 -26.5t-23.5 -69.5q0 -44 23.5 -71.5
t64.5 -27.5zM204 636h127v-126h-127v126z" />
    <glyph glyph-name="qafar.fina" unicode="&#x642;" horiz-adv-x="873" arabic-form="final" 
d="M893 125v-125h-101q-34 -195 -241 -195h-243q-141 0 -205.5 69.5t-64.5 182.5v97h119v-88q0 -136 159 -136h243q88 0 109 71h-54q-143 0 -198 75q-40 54 -40 138q0 103 57 165t157 62q88 0 141 -44q68 -56 68 -212v-60h94zM521 156q26 -32 96 -32h57v56q0 92 -30 120
q-21 20 -56 20q-40 0 -63.5 -26.5t-23.5 -72.5q0 -40 20 -65zM441 635h127v-126h-127v126zM615 635h127v-126h-127v126z" />
    <glyph glyph-name="qafar.init" unicode="&#x642;" horiz-adv-x="513" arabic-form="initial" 
d="M250 587q103 0 158.5 -62t55.5 -180v-75q0 -127 -66.5 -198.5t-181.5 -71.5h-236v125h233q60 0 88.5 23t33.5 67q-41 -44 -116 -44q-85 0 -134.5 52t-49.5 146q0 100 57.5 159t157.5 59zM250 275q42 0 66 24.5t24 71.5t-24.5 72.5t-65.5 25.5q-42 0 -66.5 -26t-24.5 -72
q0 -44 23.5 -70t67.5 -26zM100 779h127v-126h-127v126zM274 779h127v-126h-127v126z" />
    <glyph glyph-name="qafar.medi" unicode="&#x642;" horiz-adv-x="535" arabic-form="medial" 
d="M425 125h130v-125h-179q-84 0 -135 48q-51 -48 -129 -48h-132v125h127q-46 45 -46 127q0 84 54 136.5t153 52.5q100 0 153 -50.5t53 -131.5q0 -87 -49 -134zM269 122q40 0 64 27.5t24 72.5q0 44 -24 69.5t-64 25.5q-41 0 -64.5 -26.5t-23.5 -69.5q0 -44 23.5 -71.5
t64.5 -27.5zM117 635h127v-126h-127v126zM291 635h127v-126h-127v126z" />
    <glyph glyph-name="kafar.fina" unicode="&#x643;" horiz-adv-x="890" arabic-form="final" 
d="M884 125h26v-125h-64q-101 0 -140 72q-42 -72 -158 -72h-225q-275 0 -275 256v109h122v-101q0 -65 34 -102t116 -37h239q56 0 78.5 25t22.5 76v486h125v-485q0 -51 21 -76.5t78 -25.5zM536 381v-79h-222v63h155v18q0 32 -35 32h-96v49l60 107h71l-53 -94h29
q42 0 66.5 -25.5t24.5 -70.5z" />
    <glyph glyph-name="kafar.init" unicode="&#x643;" horiz-adv-x="460" arabic-form="initial" 
d="M180 513l71 -172q37 -88 37 -156q0 -83 -47.5 -134t-146.5 -51h-114v125h104q78 0 78 74q0 32 -24 90l-86 205v105l398 148v-136z" />
    <glyph glyph-name="kafar.medi" unicode="&#x643;" horiz-adv-x="490" arabic-form="medial" 
d="M416 125h94v-125h-132q-54 0 -86 19.5t-57 66.5q-32 -86 -132 -86h-123v125h104q78 0 78 74q0 29 -27 95l-83 200v105l398 148v-136l-270 -98l132 -319q17 -42 39 -55.5t65 -13.5z" />
    <glyph glyph-name="lamar.fina" unicode="&#x644;" horiz-adv-x="667" arabic-form="final" 
d="M665 125h22v-125h-40q-49 0 -81 29q-27 -225 -261 -225q-138 0 -200.5 74t-62.5 203v65h124v-57q0 -160 142 -160q78 0 108 40.5t30 126.5v539h123v-405q0 -54 22.5 -79.5t73.5 -25.5z" />
    <glyph glyph-name="lamar.init" unicode="&#x644;" horiz-adv-x="282" arabic-form="initial" 
d="M-20 0v125h26q54 0 73 26q17 23 17 100v461h125v-468q0 -112 -33 -166q-49 -78 -156 -78h-52z" />
    <glyph glyph-name="lamar.medi" unicode="&#x644;" horiz-adv-x="320" arabic-form="medial" 
d="M320 125h20v-125h-46q-112 0 -150 73q-40 -73 -124 -73h-40v125h23q50 0 72 24t22 78v485h125v-485q0 -51 20 -76.5t78 -25.5z" />
    <glyph glyph-name="meemar.fina" unicode="&#x645;" horiz-adv-x="694" arabic-form="final" 
d="M689 125h25v-125h-41q-47 0 -81 11q-55 -77 -171 -77q-80 0 -131 41t-65 115q-60 0 -60 -72v-254h-125v255q0 95 45.5 146t135.5 51h7q17 72 69 109t133 37q91 0 147 -56t56 -157q0 -12 -1 -18q24 -6 57 -6zM425 52q86 0 86 94t-85 94q-43 0 -64 -26t-21 -68
q0 -94 84 -94z" />
    <glyph glyph-name="meemar.init" unicode="&#x645;" horiz-adv-x="525" arabic-form="initial" 
d="M281 363q93 0 148 -56t55 -158q0 -93 -53 -154t-159 -61q-132 0 -177 105q-22 -39 -72 -39h-43v125h12q46 0 65 22q9 11 15 26.5t12 37.5t12 37q45 115 185 115zM275 52q86 0 86 94t-84 94q-43 0 -64.5 -26t-21.5 -68q0 -94 84 -94z" />
    <glyph glyph-name="meemar.medi" unicode="&#x645;" horiz-adv-x="546" arabic-form="medial" 
d="M541 125h25v-125h-41q-47 0 -81 11q-55 -77 -172 -77q-132 0 -177 105q-22 -39 -72 -39h-43v125h12q46 0 65 22q9 11 15 26.5t12 37.5t12 37q45 115 185 115q93 0 148 -56t55 -158q0 -12 -1 -18q24 -6 58 -6zM275 52q86 0 86 94t-84 94q-43 0 -64.5 -26t-21.5 -68
q0 -94 84 -94z" />
    <glyph glyph-name="noonar.fina" unicode="&#x646;" horiz-adv-x="704" arabic-form="final" 
d="M702 125h22v-125h-40q-50 0 -83 31q-17 -103 -86 -164.5t-190 -61.5q-142 0 -211.5 81t-69.5 211v268h125v-256q0 -82 40.5 -130.5t117.5 -48.5t115.5 48t38.5 131v256h125v-135q0 -54 22.5 -79.5t73.5 -25.5zM262 570h127v-126h-127v126z" />
    <glyph glyph-name="noonar.init" unicode="&#x646;" horiz-adv-x="288" arabic-form="initial" 
d="M-20 0v125h31q50 0 72 22.5t22 73.5v144h125v-153q0 -103 -54 -157.5t-153 -54.5h-43zM105 578h127v-126h-127v126z" />
    <glyph glyph-name="noonar.medi" unicode="&#x646;" horiz-adv-x="332" arabic-form="medial" 
d="M326 125h26v-125h-67q-96 0 -135 71q-39 -71 -124 -71h-46v125h25q53 0 75.5 23t22.5 77v140h125v-139q0 -50 20 -75.5t78 -25.5zM103 578h127v-126h-127v126z" />
    <glyph glyph-name="hehar.fina" unicode="&#x647;" horiz-adv-x="552" arabic-form="final" 
d="M552 125h20v-125h-45q-128 0 -170 90q-43 -54 -136 -54q-84 0 -134 51t-50 137q0 128 99 179q54 28 160 28h41v32h125v-231q0 -58 23 -82.5t67 -24.5zM245 154q47 0 72 26q20 22 20 80v48h-44q-67 0 -94 -15q-36 -20 -36 -66q0 -36 22 -54.5t60 -18.5z" />
    <glyph glyph-name="hehar.init" unicode="&#x647;" horiz-adv-x="696" arabic-form="initial" 
d="M387 576q121 0 193 -68.5t72 -190.5v-120q0 -97 -60 -147t-160 -50h-77q-93 0 -139 32q-46 -32 -133 -32h-103v125h111q-34 40 -34 98q0 71 48 116.5t134 45.5q85 0 131 -44t46 -115q0 -67 -34 -101h56q89 0 89 83v89q0 77 -40.5 118.5t-113.5 41.5q-71 0 -130 -42
l-56 92q86 69 200 69zM238 121q35 0 53.5 19.5t18.5 53.5t-19 53t-52 19q-35 0 -54 -19.5t-19 -52.5q0 -32 18.5 -52.5t53.5 -20.5z" />
    <glyph glyph-name="hehar.medi" unicode="&#x647;" horiz-adv-x="522" arabic-form="medial" 
d="M425 125h117v-125h-97v-10q0 -88 -52 -142t-141 -54q-96 0 -144 56.5t-48 149.5h-80v125h80v75q0 90 29 143q51 98 176 98q91 0 142.5 -52.5t51.5 -137.5q0 -70 -34 -126zM178 199v-74h33q67 0 98.5 31.5t31.5 79.5q0 38 -21.5 61.5t-59.5 23.5q-52 0 -71 -42
q-11 -24 -11 -80zM255 -88q37 0 58 23t21 64v40q-64 -36 -156 -39v-3q0 -39 19.5 -62t57.5 -23z" />
    <glyph glyph-name="wawar.fina" unicode="&#x648;" horiz-adv-x="536" arabic-form="final" 
d="M556 125v-125h-103q-52 -213 -372 -236l-19 121q113 12 173 38t85 77h-41q-141 0 -198 76q-40 52 -40 138q0 103 57 165t158 62q88 0 140 -44q68 -58 68 -212v-60h92zM186 158q28 -33 95 -33h58v54q0 90 -30 117q-21 20 -56 20q-40 0 -63.5 -25t-23.5 -70q0 -40 20 -63z
" />
    <glyph glyph-name="alefMaksuraar.fina" unicode="&#x649;" horiz-adv-x="723" arabic-form="final" 
d="M727 125h16v-125h-40q-17 0 -34 7q-3 -63 -50.5 -104t-135.5 -41h-210q-66 0 -114 19.5t-73.5 54.5t-36.5 74t-11 86v81h122v-60q0 -63 32 -96.5t106 -33.5h174q77 0 77 69q0 39 -29 84l-56 86h140l38 -54q34 -47 85 -47z" />
    <glyph glyph-name="yehar.fina" unicode="&#x64a;" horiz-adv-x="723" arabic-form="final" 
d="M727 125h16v-125h-40q-17 0 -34 7q-3 -63 -50.5 -104t-135.5 -41h-210q-66 0 -114 19.5t-73.5 54.5t-36.5 74t-11 86v81h122v-60q0 -63 32 -96.5t106 -33.5h174q77 0 77 69q0 39 -29 84l-56 86h140l38 -54q34 -47 85 -47zM210 -193h127v-126h-127v126zM384 -193h127v-126
h-127v126z" />
    <glyph glyph-name="yehar.init" unicode="&#x64a;" horiz-adv-x="288" arabic-form="initial" 
d="M-20 0v125h31q50 0 72 22.5t22 73.5v144h125v-153q0 -103 -54 -157.5t-153 -54.5h-43zM-15 -61h127v-126h-127v126zM159 -61h127v-126h-127v126z" />
    <glyph glyph-name="yehar.medi" unicode="&#x64a;" horiz-adv-x="332" arabic-form="medial" 
d="M326 125h26v-125h-67q-96 0 -135 71q-39 -71 -124 -71h-46v125h25q53 0 75.5 23t22.5 77v140h125v-139q0 -50 20 -75.5t78 -25.5zM-3 -61h127v-126h-127v126zM171 -61h127v-126h-127v126z" />
    <glyph glyph-name=".notdef" horiz-adv-x="573" 
d="M500 712v-712h-427v712h427zM414 625h-255v-538h255v538z" />
    <glyph glyph-name=".null" horiz-adv-x="0" 
 />
    <glyph glyph-name="nonmarkingreturn" horiz-adv-x="333" 
 />
    <glyph glyph-name="CR" unicode="&#xd;" horiz-adv-x="232" 
 />
    <glyph glyph-name="space" unicode=" " horiz-adv-x="232" 
 />
    <glyph glyph-name="exclam" unicode="!" horiz-adv-x="347" 
d="M272 712l-31 -489h-98l-31 489h160zM261 133v-133h-138v133h138z" />
    <glyph glyph-name="quotedbl" unicode="&#x22;" horiz-adv-x="463" 
d="M395 712v-211h-122v211h122zM190 712v-211h-122v211h122z" />
    <glyph glyph-name="numbersign" unicode="#" horiz-adv-x="701" 
d="M601 718l-28 -177h69v-121h-88l-17 -108h70v-122h-89l-31 -190h-137l31 190h-116l-30 -190h-137l30 190h-69v122h89l16 108h-70v121h90l27 177h138l-28 -177h115l28 177h137zM417 420h-116l-16 -108h115z" />
    <glyph glyph-name="dollar" unicode="$" horiz-adv-x="619" 
d="M356 806v-89q119 -7 197 -82l-88 -87q-44 42 -123 48v-174q78 -12 113 -24.5t61 -36.5q56 -53 56 -151q0 -89 -59.5 -144.5t-156.5 -67.5v-112h-102v108q-148 5 -235 94l90 90q55 -57 160 -60v181q-115 8 -171 64q-51 49 -51 139q0 88 55 145.5t152 68.5v90h102zM342 291
v-171q93 12 93 87q0 38 -22 59q-19 18 -71 25zM269 428v167q-43 -6 -65.5 -30t-22.5 -58q0 -31 21 -51q25 -22 67 -28z" />
    <glyph glyph-name="percent" unicode="%" horiz-adv-x="848" 
d="M205 0l337 712h102l-337 -712h-102zM197 345q-62 0 -103.5 36t-41.5 101v99q0 65 41.5 101t103.5 36t103.5 -36t41.5 -101v-99q0 -65 -41.5 -101t-103.5 -36zM197 429q51 0 51 58v89q0 57 -51 57q-50 0 -50 -57v-89q0 -58 50 -58zM651 -6q-62 0 -103.5 36t-41.5 101v99
q0 65 41.5 101t103.5 36t103.5 -36t41.5 -101v-99q0 -65 -41.5 -101t-103.5 -36zM651 79q51 0 51 57v89q0 58 -51 58q-23 0 -37 -15t-14 -43v-89q0 -57 51 -57z" />
    <glyph glyph-name="ampersand" unicode="&#x26;" horiz-adv-x="709" 
d="M308 718q83 0 132.5 -47t49.5 -121q0 -43 -21 -73t-67 -62l-36 -26l120 -142q33 42 36 125h124q-8 -142 -77 -221l128 -151h-165l-52 62q-23 -19 -42 -31.5t-58 -24.5t-84 -12q-116 0 -175.5 57t-59.5 159q0 107 128 191q-20 23 -32.5 39.5t-25.5 48t-13 63.5
q0 74 51 120t139 46zM401 154l-142 167q-37 -25 -54.5 -49.5t-17.5 -59.5q0 -44 31 -72t77 -28q58 0 106 42zM308 607q-29 0 -44 -15.5t-15 -42.5t47 -80q40 25 55.5 42.5t15.5 37.5q0 25 -16 41.5t-43 16.5z" />
    <glyph glyph-name="quotesingle" unicode="'" horiz-adv-x="258" 
d="M190 712v-211h-122v211h122z" />
    <glyph glyph-name="parenleft" unicode="(" horiz-adv-x="337" 
d="M187 806l88 -88q-42 -42 -56 -66q-15 -28 -15 -84v-424q0 -55 15 -84q14 -24 56 -66l-88 -88q-66 64 -88 103q-26 45 -26 129v436q0 85 26 129q22 39 88 103z" />
    <glyph glyph-name="parenright" unicode=")" horiz-adv-x="337" 
d="M62 718l88 88q66 -64 88 -103q26 -43 26 -129v-436q0 -85 -26 -129q-22 -39 -88 -103l-88 88q42 42 56 66q16 30 16 84v424q0 54 -16 84q-14 24 -56 66z" />
    <glyph glyph-name="asterisk" unicode="*" horiz-adv-x="503" 
d="M297 712l-4 -125l105 67l46 -79l-110 -59l110 -58l-46 -79l-105 67l4 -125h-91l4 125l-105 -67l-46 79l110 58l-110 59l46 79l105 -67l-4 125h91z" />
    <glyph glyph-name="plus" unicode="+" 
d="M333 507v-160h160v-122h-160v-161h-122v161h-161v122h161v160h122z" />
    <glyph glyph-name="comma" unicode="," horiz-adv-x="279" 
d="M210 142v-197l-142 -110v307h142z" />
    <glyph glyph-name="hyphen" unicode="-" horiz-adv-x="426" 
d="M367 347v-122h-308v122h308z" />
    <glyph glyph-name="period" unicode="." horiz-adv-x="284" 
d="M216 148v-148h-148v148h148z" />
    <glyph glyph-name="slash" unicode="/" horiz-adv-x="403" 
d="M403 773l-281 -847h-122l281 847h122z" />
    <glyph glyph-name="zero" unicode="0" 
d="M271 -6q-91 0 -153.5 57t-62.5 155v300q0 98 62.5 155t153.5 57t154 -57t63 -155v-300q0 -98 -63 -155t-154 -57zM271 111q39 0 63 25.5t24 70.5v297q0 45 -24 71t-63 26t-62.5 -26t-23.5 -71v-297q0 -44 23.5 -70t62.5 -26z" />
    <glyph glyph-name="one" unicode="1" 
d="M248 0v572l-145 -126v140l145 126h130v-712h-130z" />
    <glyph glyph-name="two" unicode="2" 
d="M59 0v117l266 309q38 45 38 86q0 40 -22.5 64.5t-63.5 24.5q-38 0 -63 -21.5t-25 -69.5h-130q0 95 62 151.5t156 56.5q96 0 156 -56t60 -151q0 -47 -17.5 -80.5t-59.5 -82.5l-199 -231h276v-117h-434z" />
    <glyph glyph-name="three" unicode="3" 
d="M269 -6q-95 0 -160.5 52.5t-66.5 157.5h130q1 -46 28.5 -69.5t68.5 -23.5q43 0 69.5 26t26.5 73q0 45 -26.5 71.5t-73.5 26.5h-19v113h19q46 0 68 24.5t22 64.5q0 43 -25 67t-62 24t-61.5 -23t-26.5 -63h-130q3 94 64.5 148.5t153.5 54.5q95 0 156 -57t61 -147
q0 -102 -82 -146q92 -48 92 -162q0 -102 -64.5 -157t-161.5 -55z" />
    <glyph glyph-name="four" unicode="4" 
d="M322 0v101h-291v123l244 488h142l-244 -488h149v133h124v-133h66v-123h-66v-101h-124z" />
    <glyph glyph-name="five" unicode="5" 
d="M274 -6q-102 0 -159 57q-50 52 -58 148h130q11 -88 87 -88q39 0 62 23q27 27 27 106q0 128 -86 128q-67 0 -86 -58h-119v402h406v-117h-288v-153q38 36 107 36q85 0 133 -48q38 -38 50.5 -83.5t12.5 -106.5q0 -66 -12.5 -108.5t-49.5 -79.5q-58 -58 -157 -58z" />
    <glyph glyph-name="six" unicode="6" 
d="M272 -6q-97 0 -160 59t-63 161q0 69 56 181l155 317h141l-149 -296q23 11 54 11q76 0 132 -58t56 -153q0 -102 -62.5 -162t-159.5 -60zM272 111q41 0 66.5 28t25.5 76q0 47 -25.5 75.5t-66.5 28.5t-67 -27.5t-26 -76.5t26 -76.5t67 -27.5z" />
    <glyph glyph-name="seven" unicode="7" 
d="M131 0l231 595h-188v-112h-124v229h453v-117l-231 -595h-141z" />
    <glyph glyph-name="eight" unicode="8" 
d="M272 -6q-99 0 -163.5 56.5t-64.5 156.5q0 101 89 160q-80 56 -80 148q0 91 63.5 147t155.5 56q91 0 154.5 -56t63.5 -147q0 -94 -80 -148q90 -59 90 -160q0 -100 -64.5 -156.5t-163.5 -56.5zM272 111q41 0 69.5 28.5t28.5 69.5t-28.5 70t-69.5 29t-69.5 -29t-28.5 -70
t28.5 -69.5t69.5 -28.5zM272 421q38 0 63 25.5t25 64.5t-25 64.5t-63 25.5t-63.5 -25.5t-25.5 -64.5t25.5 -64.5t63.5 -25.5z" />
    <glyph glyph-name="nine" unicode="9" 
d="M145 0l149 296q-23 -11 -54 -11q-76 0 -132 58t-56 153q0 102 62.5 162t159.5 60t159.5 -59t62.5 -161q0 -71 -55 -181l-155 -317h-141zM274 393q41 0 66.5 28t25.5 76t-25.5 76t-66.5 28t-66.5 -28t-25.5 -76q0 -47 25.5 -75.5t66.5 -28.5z" />
    <glyph glyph-name="colon" unicode=":" horiz-adv-x="309" 
d="M241 419v-148h-148v148h148zM241 148v-148h-148v148h148z" />
    <glyph glyph-name="semicolon" unicode=";" horiz-adv-x="309" 
d="M238 142v-197l-142 -110v307h142zM241 419v-148h-148v148h148z" />
    <glyph glyph-name="less" unicode="&#x3c;" 
d="M475 529v-137l-241 -106l241 -107v-137l-406 187v114z" />
    <glyph glyph-name="equal" unicode="=" 
d="M493 455v-122h-443v122h443zM493 238v-122h-443v122h443z" />
    <glyph glyph-name="greater" unicode="&#x3e;" 
d="M68 529l406 -186v-114l-406 -187v137l241 107l-241 106v137z" />
    <glyph glyph-name="question" unicode="?" horiz-adv-x="523" 
d="M276 718q89 0 150 -54t61 -146q0 -60 -49 -125l-74 -98q-18 -25 -18 -51v-21h-130v30q0 54 38 104l74 95q29 38 29 67q0 36 -22 59t-59 23q-38 0 -59 -23.5t-21 -59.5h-130q0 90 60.5 145t149.5 55zM350 133v-133h-138v133h138z" />
    <glyph glyph-name="at" unicode="@" horiz-adv-x="780" 
d="M308 716h144q134 0 194 -61q62 -62 62 -189v-466h-127v47q-49 -53 -122 -53q-75 0 -120 43q-32 32 -42 76.5t-10 117.5q0 74 10 117.5t42 75.5q45 43 119 43q75 0 119 -49v45q0 68 -34 102t-101 34h-124q-66 0 -100 -34q-35 -35 -35 -102v-289q0 -37 9.5 -57t34.5 -42
l-89 -90q-44 40 -61.5 78.5t-17.5 103.5v299q0 128 61 189q60 61 188 61zM495 358q-46 0 -64.5 -32t-18.5 -95q0 -64 18.5 -96t64.5 -32q45 0 63.5 32t18.5 96q0 63 -18.5 95t-63.5 32z" />
    <glyph glyph-name="A" unicode="A" horiz-adv-x="637" 
d="M373 712l260 -712h-146l-42 126h-252l-43 -126h-146l260 712h109zM319 501l-88 -258h175z" />
    <glyph glyph-name="B" unicode="B" horiz-adv-x="658" 
d="M83 712h285q104 0 162.5 -54t58.5 -146q0 -53 -27.5 -91.5t-60.5 -55.5q99 -45 99 -160q0 -97 -60.5 -151t-158.5 -54h-298v712zM368 299h-146v-175h146q45 0 69 24.5t24 63.5q0 38 -24 62.5t-69 24.5zM359 588h-137v-165h137q44 0 67.5 22.5t23.5 60.5t-24 60t-67 22z
" />
    <glyph glyph-name="C" unicode="C" horiz-adv-x="620" 
d="M322 718q103 0 173 -58t88 -167h-141q-24 101 -120 101q-57 0 -89 -37q-20 -23 -27.5 -62.5t-7.5 -138.5t7.5 -138.5t27.5 -62.5q32 -37 89 -37q96 0 120 101h141q-18 -109 -88 -167t-173 -58q-114 0 -191 75q-49 49 -60.5 107.5t-11.5 179.5t11.5 179.5t60.5 107.5
q77 75 191 75z" />
    <glyph glyph-name="D" unicode="D" horiz-adv-x="659" 
d="M83 712h257q140 0 215 -104q30 -42 37.5 -94.5t7.5 -157.5t-7.5 -157.5t-37.5 -94.5q-75 -104 -215 -104h-257v712zM328 588h-106v-464h106q69 0 104 44q19 22 24 60t5 128t-5 128t-24 60q-35 44 -104 44z" />
    <glyph glyph-name="E" unicode="E" horiz-adv-x="605" 
d="M552 712v-124h-330v-167h282v-124h-282v-173h330v-124h-469v712h469z" />
    <glyph glyph-name="F" unicode="F" horiz-adv-x="590" 
d="M552 712v-124h-330v-175h282v-124h-282v-289h-139v712h469z" />
    <glyph glyph-name="G" unicode="G" horiz-adv-x="649" 
d="M321 718q117 0 185 -65t83 -163h-140q-24 104 -128 104q-55 0 -88 -38q-21 -23 -28 -61.5t-7 -138.5t7 -139t28 -62q32 -37 88 -37q64 0 99 40q32 36 32 95v26h-131v117h269v-104q0 -78 -15.5 -128t-52.5 -89q-78 -81 -201 -81q-113 0 -190 75q-49 49 -60.5 107.5
t-11.5 179.5t11.5 179.5t60.5 107.5q77 75 190 75z" />
    <glyph glyph-name="H" unicode="H" horiz-adv-x="686" 
d="M603 712v-712h-139v298h-242v-298h-139v712h139v-290h242v290h139z" />
    <glyph glyph-name="I" unicode="I" horiz-adv-x="306" 
d="M222 712v-712h-139v712h139z" />
    <glyph glyph-name="J" unicode="J" horiz-adv-x="509" 
d="M437 712v-478q0 -113 -72.5 -176.5t-178.5 -63.5q-58 0 -101 17t-82 56l92 91q21 -21 40 -30.5t51 -9.5q53 0 82.5 31t29.5 91v472h139z" />
    <glyph glyph-name="K" unicode="K" horiz-adv-x="666" 
d="M644 712l-236 -283l253 -429h-163l-183 324l-93 -110v-214h-139v712h139v-310l252 310h170z" />
    <glyph glyph-name="L" unicode="L" horiz-adv-x="575" 
d="M222 712v-588h323v-124h-462v712h139z" />
    <glyph glyph-name="M" unicode="M" horiz-adv-x="811" 
d="M728 712v-712h-139v414l-136 -253h-94l-137 253v-414h-139v712h137l186 -369l185 369h137z" />
    <glyph glyph-name="N" unicode="N" horiz-adv-x="712" 
d="M628 712v-712h-123l-283 435v-435h-139v712h124l282 -435v435h139z" />
    <glyph glyph-name="O" unicode="O" horiz-adv-x="644" 
d="M322 718q114 0 191 -75q49 -48 60.5 -107t11.5 -180t-11.5 -180t-60.5 -107q-77 -75 -191 -75t-191 75q-49 49 -60.5 107.5t-11.5 179.5t11.5 179.5t60.5 107.5q77 75 191 75zM322 594q-56 0 -89 -38q-21 -23 -28 -61.5t-7 -138.5q0 -99 7 -137.5t28 -61.5q34 -39 89 -39
t89 39q21 23 28 61.5t7 137.5q0 100 -7 138.5t-28 61.5q-33 38 -89 38z" />
    <glyph glyph-name="P" unicode="P" horiz-adv-x="628" 
d="M83 712h276q108 0 171.5 -64t63.5 -158t-63.5 -158t-171.5 -64h-137v-268h-139v712zM352 588h-130v-196h130q47 0 75 27t28 71t-28 71t-75 27z" />
    <glyph glyph-name="Q" unicode="Q" horiz-adv-x="644" 
d="M322 718q115 0 190 -75q49 -49 61 -108t12 -179q0 -101 -7.5 -155t-36.5 -97l61 -61l-73 -73l-63 62q-61 -38 -144 -38q-114 0 -191 75q-49 49 -60.5 107.5t-11.5 179.5t11.5 179.5t60.5 107.5q77 75 191 75zM322 594q-55 0 -90 -38q-20 -23 -27 -62t-7 -138t7 -137.5
t27 -61.5q36 -39 90 -39q25 0 48 10l-64 64l73 74l57 -58q10 41 10 148q0 100 -7 138.5t-28 61.5q-33 38 -89 38z" />
    <glyph glyph-name="R" unicode="R" horiz-adv-x="654" 
d="M83 712h279q106 0 168.5 -62.5t62.5 -155.5q0 -71 -37 -119t-93 -68l159 -307h-161l-139 284h-100v-284h-139v712zM354 588h-132v-187h132q45 0 72.5 26t27.5 68t-27.5 67.5t-72.5 25.5z" />
    <glyph glyph-name="S" unicode="S" horiz-adv-x="591" 
d="M295 718q144 0 230 -83l-88 -87q-49 49 -146 49q-53 0 -81.5 -25.5t-28.5 -64.5q0 -31 21 -51q23 -21 65 -27l85 -13q91 -13 136 -56q55 -52 55 -150q0 -101 -74 -158.5t-190 -57.5q-85 0 -147 21.5t-113 72.5l90 90q60 -60 171 -60q62 0 94.5 23t32.5 66q0 37 -22 59
q-19 17 -64 24l-85 13q-91 14 -138 59q-51 50 -51 140q0 97 67 156.5t181 59.5z" />
    <glyph glyph-name="T" unicode="T" horiz-adv-x="571" 
d="M541 712v-124h-186v-588h-139v588h-186v124h511z" />
    <glyph glyph-name="U" unicode="U" horiz-adv-x="668" 
d="M596 712v-468q0 -111 -75.5 -180.5t-187.5 -69.5t-186.5 69.5t-74.5 180.5v468h139v-463q0 -61 33 -96t89 -35q57 0 90.5 35.5t33.5 95.5v463h139z" />
    <glyph glyph-name="V" unicode="V" horiz-adv-x="581" 
d="M578 712l-235 -712h-105l-235 712h144l144 -463l142 463h145z" />
    <glyph glyph-name="W" unicode="W" horiz-adv-x="887" 
d="M881 712l-190 -712h-117l-131 431l-130 -431h-116l-191 712h145l110 -448l131 448h103l131 -448l110 448h145z" />
    <glyph glyph-name="X" unicode="X" horiz-adv-x="603" 
d="M584 712l-207 -347l221 -365h-159l-137 248l-138 -248h-159l221 365l-207 347h159l124 -230l123 230h159z" />
    <glyph glyph-name="Y" unicode="Y" horiz-adv-x="572" 
d="M569 712l-214 -421v-291h-139v291l-213 421h151l133 -287l131 287h151z" />
    <glyph glyph-name="Z" unicode="Z" horiz-adv-x="548" 
d="M508 712v-110l-304 -478h304v-124h-468v110l303 478h-290v124h455z" />
    <glyph glyph-name="bracketleft" unicode="[" horiz-adv-x="389" 
d="M330 786v-117h-127v-626h127v-117h-257v860h257z" />
    <glyph glyph-name="backslash" unicode="\" horiz-adv-x="403" 
d="M122 773l281 -847h-122l-281 847h122z" />
    <glyph glyph-name="bracketright" unicode="]" horiz-adv-x="389" 
d="M316 786v-860h-257v117h127v626h-127v117h257z" />
    <glyph glyph-name="asciicircum" unicode="^" 
d="M331 718l178 -330h-136l-102 188l-102 -188h-136l178 330h120z" />
    <glyph glyph-name="underscore" unicode="_" horiz-adv-x="602" 
d="M602 -92v-86h-602v86h602z" />
    <glyph glyph-name="grave" unicode="`" 
d="M261 774l64 -170h-87l-114 170h137z" />
    <glyph glyph-name="a" unicode="a" horiz-adv-x="534" 
d="M245 527q222 0 222 -184v-343h-127v45q-27 -27 -55.5 -38.5t-72.5 -11.5q-87 0 -133 46q-43 45 -43 117q0 66 46 108.5t134 42.5h121v26q0 43 -23 62.5t-74 19.5q-61 0 -100 -45l-82 81q38 42 79.5 58t107.5 16zM337 220h-99q-77 0 -77 -60q0 -59 79 -59q51 0 77 25
q20 17 20 66v28z" />
    <glyph glyph-name="b" unicode="b" horiz-adv-x="561" 
d="M203 712v-237q47 52 127 52q79 0 126 -47q33 -35 43.5 -87.5t10.5 -131.5q0 -80 -10.5 -132.5t-43.5 -87.5q-47 -47 -127 -47q-79 0 -130 55v-49h-126v712h130zM291 410q-28 0 -46.5 -11t-27 -33t-11.5 -45.5t-3 -59.5t3 -60t11.5 -46t27 -33t46.5 -11q54 0 71.5 37.5
t17.5 112.5q0 74 -17.5 111.5t-71.5 37.5z" />
    <glyph glyph-name="c" unicode="c" horiz-adv-x="484" 
d="M284 527q103 0 172 -70l-89 -88q-38 41 -83 41t-74 -34q-29 -36 -29 -115q0 -80 29 -116q29 -34 74 -34q43 0 83 41l89 -87q-70 -71 -172 -71q-43 0 -81.5 12.5t-74 41t-56.5 83.5t-21 130t21 129.5t56.5 83t74 41t81.5 12.5z" />
    <glyph glyph-name="d" unicode="d" horiz-adv-x="561" 
d="M488 712v-712h-127v49q-49 -55 -129 -55q-82 0 -127 47q-34 35 -44 87t-10 133q0 80 10 132t44 87q45 47 126 47q80 0 127 -52v237h130zM269 410q-28 0 -46.5 -11t-27 -33t-11.5 -45.5t-3 -59.5t3 -60t11.5 -46t27 -33t46.5 -11q54 0 71.5 38t17.5 112q0 73 -17.5 111
t-71.5 38z" />
    <glyph glyph-name="e" unicode="e" horiz-adv-x="548" 
d="M274 527q107 0 167 -69.5t60 -182.5v-55h-326q0 -52 30 -84t84 -32q40 0 65.5 11.5t51.5 37.5l80 -77q-42 -43 -86.5 -62.5t-111.5 -19.5q-50 0 -90.5 12.5t-76 41.5t-55 83t-19.5 130q0 125 62 195.5t165 70.5zM274 419q-64 0 -88 -54q-9 -20 -11 -56h197q-2 36 -11 56
q-24 54 -87 54z" />
    <glyph glyph-name="f" unicode="f" horiz-adv-x="342" 
d="M315 718v-110h-51q-45 0 -45 -47v-55h96v-99h-96v-407h-130v407h-54v99h54v63q0 61 39 105t113 44h74z" />
    <glyph glyph-name="g" unicode="g" horiz-adv-x="555" 
d="M229 527q77 0 127 -55v49h126v-502q0 -95 -62.5 -155.5t-166.5 -60.5q-62 0 -106 15t-83 53l82 82q41 -40 102 -40q54 0 79 31t25 77v53q-47 -52 -124 -52t-123 46q-34 34 -44 80.5t-10 126.5q0 79 10 125.5t44 80.5q46 46 124 46zM267 410q-28 0 -46 -11t-26.5 -32
t-11 -41.5t-2.5 -50.5t2.5 -51t11 -42t26.5 -32t46 -11t46 11t26 32t10.5 42t2.5 51q0 63 -16.5 99t-68.5 36z" />
    <glyph glyph-name="h" unicode="h" horiz-adv-x="573" 
d="M506 0h-130v315q0 49 -25.5 72t-60.5 23q-36 0 -61.5 -23t-25.5 -72v-315h-130v712h130v-239q49 54 127 54q77 0 123 -46q53 -53 53 -148v-333z" />
    <glyph glyph-name="i" unicode="i" horiz-adv-x="275" 
d="M203 506v-506h-130v506h130zM204 716v-106h-133v106h133z" />
    <glyph glyph-name="j" unicode="j" horiz-adv-x="275" 
d="M203 506v-548q0 -62 -38.5 -105.5t-113.5 -43.5h-74v110h50q46 0 46 47v540h130zM204 716v-106h-133v106h133z" />
    <glyph glyph-name="k" unicode="k" horiz-adv-x="560" 
d="M203 712v-404l173 213h158l-187 -210l201 -311h-161l-129 217l-55 -62v-155h-130v712h130z" />
    <glyph glyph-name="l" unicode="l" horiz-adv-x="325" 
d="M198 712v-555q0 -47 46 -47h50v-110h-74q-75 0 -113.5 43.5t-38.5 105.5v563h130z" />
    <glyph glyph-name="m" unicode="m" horiz-adv-x="876" 
d="M624 527q81 0 129 -46q56 -56 56 -148v-333h-130v315q0 49 -25 72t-61 23q-35 0 -61 -22.5t-26 -69.5v-318h-130v315q0 49 -25 72t-61 23t-61.5 -23t-25.5 -72v-315h-130v521h127v-48q51 54 131 54q90 0 138 -66q63 66 155 66z" />
    <glyph glyph-name="n" unicode="n" horiz-adv-x="573" 
d="M330 527q79 0 123 -46q53 -54 53 -148v-333h-130v315q0 49 -25 72t-61 23t-61.5 -23t-25.5 -72v-315h-130v521h127v-48q51 54 130 54z" />
    <glyph glyph-name="o" unicode="o" 
d="M492 261q0 -75 -12.5 -121.5t-46.5 -81.5q-62 -64 -162 -64q-99 0 -161 64q-34 36 -46.5 82.5t-12.5 120.5t12.5 120t46.5 82q62 64 161 64q102 0 162 -64q34 -36 46.5 -82t12.5 -120zM362 261q0 97 -30 126q-23 23 -61 23q-37 0 -60 -23q-30 -29 -30 -126q0 -98 30 -127
q23 -23 60 -23q38 0 61 23q30 29 30 127z" />
    <glyph glyph-name="p" unicode="p" horiz-adv-x="561" 
d="M329 527q80 0 127 -47q33 -35 43.5 -87.5t10.5 -131.5q0 -80 -10.5 -132.5t-43.5 -87.5q-47 -47 -126 -47q-80 0 -127 52v-237h-130v712h126v-49q51 55 130 55zM291 410q-28 0 -46.5 -11t-27 -33t-11.5 -45.5t-3 -59.5t3 -60t11.5 -46t27 -33t46.5 -11q54 0 71.5 37.5
t17.5 112.5q0 74 -17.5 111.5t-71.5 37.5z" />
    <glyph glyph-name="q" unicode="q" horiz-adv-x="561" 
d="M232 527q80 0 129 -55v49h127v-712h-130v237q-47 -52 -127 -52q-79 0 -126 47q-33 35 -43.5 87.5t-10.5 132.5q0 79 10.5 131.5t43.5 87.5q47 47 127 47zM269 410q-28 0 -46.5 -11t-27 -33t-11.5 -45.5t-3 -59.5t3 -60t11.5 -46t27 -33t46.5 -11q54 0 71.5 37.5
t17.5 112.5q0 74 -17.5 111.5t-71.5 37.5z" />
    <glyph glyph-name="r" unicode="r" horiz-adv-x="455" 
d="M331 527q75 0 123 -49l-97 -99q-31 31 -69 31q-34 0 -59.5 -25t-25.5 -71v-314h-130v521h127v-50q20 24 55.5 40t75.5 16z" />
    <glyph glyph-name="s" unicode="s" horiz-adv-x="501" 
d="M250 527q133 0 199 -61l-80 -81q-39 35 -121 35q-37 0 -55.5 -14.5t-18.5 -35.5t12.5 -31.5t41.5 -13.5l82 -8q155 -15 155 -153q0 -83 -62 -126.5t-159 -43.5q-72 0 -124 15t-98 60l85 85q48 -49 139 -49q38 0 65 13.5t27 40.5q0 43 -55 48l-82 8q-152 15 -152 146
q0 78 58.5 122t142.5 44z" />
    <glyph glyph-name="t" unicode="t" horiz-adv-x="352" 
d="M215 660v-154h92v-99h-92v-250q0 -47 45 -47h47v-110h-71q-74 0 -112.5 44t-38.5 105v258h-55v99h55v154h130z" />
    <glyph glyph-name="u" unicode="u" horiz-adv-x="573" 
d="M500 521v-521h-127v48q-51 -54 -130 -54q-77 0 -123 46q-53 53 -53 148v333h130v-315q0 -49 25.5 -72t60.5 -23q36 0 61.5 23t25.5 72v315h130z" />
    <glyph glyph-name="v" unicode="v" horiz-adv-x="493" 
d="M489 521l-191 -521h-102l-192 521h137l106 -322l105 322h137z" />
    <glyph glyph-name="w" unicode="w" horiz-adv-x="759" 
d="M755 521l-159 -521h-107l-109 327l-109 -327h-107l-160 521h138l84 -322l106 322h95l107 -322l84 322h137z" />
    <glyph glyph-name="x" unicode="x" horiz-adv-x="527" 
d="M508 521l-173 -255l180 -266h-156l-96 156l-95 -156h-156l180 266l-173 255h156l88 -149l89 149h156z" />
    <glyph glyph-name="y" unicode="y" horiz-adv-x="494" 
d="M490 521l-223 -605q-15 -42 -39 -67q-40 -40 -112 -40h-51v117h30q28 0 41.5 9.5t23.5 37.5l22 64l-178 484h137l108 -322l104 322h137z" />
    <glyph glyph-name="z" unicode="z" horiz-adv-x="478" 
d="M434 521v-99l-234 -305h234v-117h-397v99l231 305h-218v117h384z" />
    <glyph glyph-name="braceleft" unicode="{" horiz-adv-x="453" 
d="M412 786v-117h-53q-44 0 -58 -14q-15 -15 -15 -64v-135q0 -33 -13 -55.5t-25 -30t-31 -14.5q19 -7 31 -14.5t25 -30t13 -55.5v-135q0 -49 15 -64q14 -14 58 -14h53v-117h-102q-74 0 -113 37q-41 40 -41 111v145q0 43 -17 60q-19 19 -52 19h-46v116h46q33 0 52 19
q17 17 17 60v145q0 71 41 111q39 37 113 37h102z" />
    <glyph glyph-name="bar" unicode="|" horiz-adv-x="350" 
d="M240 786v-860h-130v860h130z" />
    <glyph glyph-name="braceright" unicode="}" horiz-adv-x="453" 
d="M41 786h102q75 0 112 -37q42 -42 42 -111v-145q0 -43 17 -60q19 -19 52 -19h46v-116h-46q-33 0 -52 -19q-17 -17 -17 -60v-145q0 -69 -42 -111q-37 -37 -112 -37h-102v117h53q43 0 57 14q16 15 16 64v135q0 33 13 55.5t25 30t31 14.5q-19 7 -31 14.5t-25 30t-13 55.5v135
q0 49 -16 64q-14 14 -57 14h-53v117z" />
    <glyph glyph-name="asciitilde" unicode="~" horiz-adv-x="606" 
d="M201 377q58 0 117 -33q46 -24 81 -24q45 0 87 42l83 -82q-46 -47 -83 -66.5t-82 -19.5q-55 0 -117 33q-45 25 -82 25q-44 0 -86 -43l-82 82q48 48 83.5 67t80.5 19z" />
    <glyph glyph-name="uni00A0" unicode="&#xa0;" horiz-adv-x="232" 
 />
    <glyph glyph-name="exclamdown" unicode="&#xa1;" horiz-adv-x="347" 
d="M204 298l31 -489h-160l31 489h98zM224 521v-133h-138v133h138z" />
    <glyph glyph-name="cent" unicode="&#xa2;" horiz-adv-x="513" 
d="M344 712v-82q83 -10 141 -68l-96 -87q-31 31 -59 36v-290q30 7 59 36l96 -87q-58 -58 -141 -68v-102h-101v105q-84 14 -138 77.5t-54 183.5t54 183.5t138 77.5v85h101zM257 229v274q-20 -2 -34 -21q-30 -39 -30 -116t30 -116q14 -19 34 -21z" />
    <glyph glyph-name="sterling" unicode="&#xa3;" horiz-adv-x="579" 
d="M352 718q58 0 101 -17t82 -56l-92 -91q-21 21 -40 30.5t-51 9.5q-53 0 -82.5 -31t-29.5 -91v-75h112v-100h-112v-173h295v-124h-434v297h-62v100h62v81q0 113 72.5 176.5t178.5 63.5z" />
    <glyph glyph-name="currency" unicode="&#xa4;" horiz-adv-x="668" 
d="M524 562l86 -86l-70 -71q36 -55 36 -119q0 -65 -37 -120l71 -70l-86 -86l-70 70q-53 -29 -120 -29q-68 0 -119 29l-71 -70l-86 86l71 70q-37 57 -37 120q0 62 37 119l-71 71l86 86l71 -71q50 30 119 30q70 0 120 -30zM334 404q-48 0 -82 -34.5t-34 -83.5t34 -83.5
t82 -34.5t82.5 34.5t34.5 83.5t-34.5 83.5t-82.5 34.5z" />
    <glyph glyph-name="yen" unicode="&#xa5;" horiz-adv-x="572" 
d="M216 0v170h-151v83h151v38l-18 37h-133v83h91l-153 301h151l133 -287l131 287h151l-153 -301h91v-83h-133l-19 -37v-38h152v-83h-152v-170h-139z" />
    <glyph glyph-name="brokenbar" unicode="&#xa6;" horiz-adv-x="350" 
d="M240 786v-351h-130v351h130zM240 276v-351h-130v351h130z" />
    <glyph glyph-name="section" unicode="&#xa7;" horiz-adv-x="534" 
d="M268 718q93 0 142 -48t50 -124h-122q-3 61 -70 61q-34 0 -52 -16t-18 -43q0 -44 67 -66l62 -20q75 -24 110.5 -68t35.5 -120q0 -51 -27.5 -90.5t-62.5 -58.5q81 -40 81 -139q0 -87 -58.5 -135t-139.5 -48q-82 0 -140 44.5t-59 133.5h125q2 -29 21.5 -46t52.5 -17
q34 0 53.5 17.5t19.5 46.5q0 51 -70 74l-62 21q-75 26 -110.5 68.5t-35.5 119.5q0 51 28 90.5t63 58.5q-76 40 -76 131q0 72 49.5 122.5t142.5 50.5zM267 358q-34 0 -57 -21q-24 -22 -24 -68q0 -43 24 -67q24 -22 57 -22q34 0 56 22q25 23 25 67q0 45 -25 68q-23 21 -56 21z
" />
    <glyph glyph-name="dieresis" unicode="&#xa8;" 
d="M437 731v-125h-111v125h111zM216 731v-125h-111v125h111z" />
    <glyph glyph-name="copyright" unicode="&#xa9;" horiz-adv-x="842" 
d="M421 -6q-150 0 -256 106t-106 256t106 256t256 106t256 -106t106 -256t-106 -256t-256 -106zM428 160q-78 0 -128.5 51.5t-50.5 144.5t51 145t128 52q73 0 132 -53l-56 -56q-38 32 -76 32q-45 0 -70 -33q-24 -32 -24 -87t24 -87q25 -33 70 -33q38 0 76 32l56 -56
q-60 -52 -132 -52zM421 75q117 0 196 80.5t79 200.5t-79 200.5t-196 80.5t-196.5 -80.5t-79.5 -200.5t79.5 -200.5t196.5 -80.5z" />
    <glyph glyph-name="ordfeminine" unicode="&#xaa;" horiz-adv-x="454" 
d="M215 717q177 0 177 -147v-274h-103v36q-39 -40 -101 -40q-69 0 -105 38q-35 35 -35 92q0 53 36 87t106 34h97v20q0 35 -18 50t-59 15q-29 0 -45.5 -7.5t-33.5 -26.5l-67 65q31 33 64.5 45.5t86.5 12.5zM287 472h-81q-56 0 -56 -47q0 -46 57 -46q46 0 65 19q15 15 15 51
v23z" />
    <glyph glyph-name="guillemotleft" unicode="&#xab;" horiz-adv-x="628" 
d="M283 534v-155l-94 -93l94 -93v-155l-249 248zM562 534v-155l-96 -93l96 -93v-155l-250 248z" />
    <glyph glyph-name="logicalnot" unicode="&#xac;" 
d="M497 346v-266h-121v145h-330v121h451z" />
    <glyph glyph-name="uni00AD" unicode="&#xad;" horiz-adv-x="426" 
d="M367 347v-122h-308v122h308z" />
    <glyph glyph-name="registered" unicode="&#xae;" horiz-adv-x="842" 
d="M421 -6q-150 0 -256 106t-106 256t106 256t256 106t256 -106t106 -256t-106 -256t-256 -106zM421 75q117 0 196.5 80.5t79.5 200.5t-79.5 200.5t-196.5 80.5t-196.5 -80.5t-79.5 -200.5t79.5 -200.5t196.5 -80.5zM289 164v385h157q57 0 92.5 -35.5t35.5 -85.5
q0 -37 -20 -63.5t-51 -38.5l81 -162h-98l-70 149h-41v-149h-86zM375 378h60q23 0 38 14.5t15 35.5t-15 35.5t-38 14.5h-60v-100z" />
    <glyph glyph-name="macron" unicode="&#xaf;" 
d="M430 711v-88h-317v88h317z" />
    <glyph glyph-name="degree" unicode="&#xb0;" horiz-adv-x="479" 
d="M239 727q77 0 131 -54.5t54 -130.5t-54.5 -130t-130.5 -54t-130 54t-54 130t54 130.5t130 54.5zM239 622q-33 0 -56 -23t-23 -57t23 -57t56 -23q34 0 56.5 23t22.5 57t-23 57t-56 23z" />
    <glyph glyph-name="plusminus" unicode="&#xb1;" 
d="M333 623v-161h160v-121h-160v-161h-122v161h-161v121h161v161h122zM493 122v-122h-443v122h443z" />
    <glyph glyph-name="twosuperior" unicode="&#xb2;" horiz-adv-x="242" 
d="M26 434v58l113 107q16 16 16 37q0 11 -9 18.5t-22 7.5q-28 0 -31 -31h-69q1 42 29 65t71 23q44 0 71 -23t27 -60q0 -34 -34 -67l-81 -77h114v-58h-195z" />
    <glyph glyph-name="threesuperior" unicode="&#xb3;" horiz-adv-x="242" 
d="M120 431q-47 0 -74.5 23t-28.5 72h70q2 -33 33 -33q14 0 23.5 9.5t9.5 24.5q0 30 -34 30h-9v44h9q30 0 30 27q0 28 -29 28q-12 0 -20 -8t-9 -22h-70q1 45 27.5 69t71.5 24q46 0 72.5 -24t26.5 -57q0 -43 -35 -58q39 -18 39 -64q0 -38 -28 -61.5t-75 -23.5z" />
    <glyph glyph-name="acute" unicode="&#xb4;" 
d="M420 774l-114 -170h-87l64 170h137z" />
    <glyph glyph-name="mu" unicode="&#xb5;" horiz-adv-x="579" 
d="M73 -191v712h130v-315q0 -49 25 -72t61 -23t61.5 23t25.5 72v315h130v-521h-127v48q-51 -53 -116 -53q-33 0 -60 22v-208h-130z" />
    <glyph glyph-name="paragraph" unicode="&#xb6;" horiz-adv-x="668" 
d="M585 712v-903h-130v780h-100v-780h-130v499q-76 0 -133 59t-57 142q0 96 63 149.5t168 53.5h319z" />
    <glyph glyph-name="periodcentered" unicode="&#xb7;" horiz-adv-x="285" 
d="M217 360v-148h-149v148h149z" />
    <glyph glyph-name="cedilla" unicode="&#xb8;" 
d="M159 -205l69 146h96l-44 -146h-121z" />
    <glyph glyph-name="onesuperior" unicode="&#xb9;" horiz-adv-x="242" 
d="M106 434v202l-65 -54v79l65 55h70v-282h-70z" />
    <glyph glyph-name="ordmasculine" unicode="&#xba;" horiz-adv-x="463" 
d="M232 717q79 0 128 -51q27 -29 37.5 -65.5t10.5 -96.5t-10.5 -96.5t-37.5 -64.5q-47 -51 -128 -51q-82 0 -129 51q-27 28 -37.5 65t-10.5 96t10.5 96t37.5 66q49 51 129 51zM232 623q-30 0 -48 -18q-23 -23 -23 -101q0 -77 23 -100q16 -18 48 -18q30 0 48 18q23 23 23 100
q0 78 -23 101q-18 18 -48 18z" />
    <glyph glyph-name="guillemotright" unicode="&#xbb;" horiz-adv-x="629" 
d="M345 534l250 -248l-250 -248v155l94 93l-94 93v155zM67 534l249 -248l-249 -248v155l95 93l-95 93v155z" />
    <glyph glyph-name="onequarter" unicode="&#xbc;" horiz-adv-x="913" 
d="M231 0l337 712h101l-337 -712h-101zM753 0v59h-172v77l140 291h99l-142 -291h75v78h88v-78h38v-77h-38v-59h-88zM152 285v321l-90 -78v106l90 78h95v-427h-95z" />
    <glyph glyph-name="onehalf" unicode="&#xbd;" horiz-adv-x="896" 
d="M231 0l337 712h101l-337 -712h-101zM589 0v85l160 171q24 25 24 50q0 18 -12 29t-33 11q-44 0 -44 -44h-95q0 60 40 94.5t99 34.5q61 0 98.5 -33.5t37.5 -91.5q0 -31 -10.5 -51.5t-40.5 -52.5l-113 -122h166v-80h-277zM152 285v321l-90 -78v106l90 78h95v-427h-95z" />
    <glyph glyph-name="threequarters" unicode="&#xbe;" horiz-adv-x="909" 
d="M227 0l337 712h101l-337 -712h-101zM749 0v59h-172v77l140 291h99l-142 -291h75v78h88v-78h38v-77h-38v-59h-88zM169 280q-60 0 -101.5 32.5t-42.5 99.5h95q0 -24 14 -37t35 -13t35.5 14t14.5 36q0 50 -51 50h-12v82h12q21 0 33.5 12.5t12.5 32.5q0 22 -12 33.5t-32 11.5
q-43 0 -45 -45h-94q1 58 40.5 92.5t98.5 34.5q60 0 99.5 -35.5t39.5 -90.5q0 -60 -48 -84q52 -29 52 -95q0 -63 -41.5 -97t-102.5 -34z" />
    <glyph glyph-name="questiondown" unicode="&#xbf;" horiz-adv-x="523" 
d="M307 298v-30q0 -54 -38 -104l-74 -95q-29 -38 -29 -67q0 -36 22 -59t59 -23q38 0 59 23.5t21 60.5h130q0 -91 -60.5 -146t-149.5 -55t-150 54t-61 146q0 60 49 125l74 99q18 23 18 51v20h130zM311 521v-133h-138v133h138z" />
    <glyph glyph-name="Agrave" unicode="&#xc0;" horiz-adv-x="637" 
d="M373 712l260 -712h-146l-42 126h-252l-43 -126h-146l260 712h109zM319 501l-88 -258h175zM310 951l64 -170h-87l-114 170h137z" />
    <glyph glyph-name="Aacute" unicode="&#xc1;" horiz-adv-x="637" 
d="M373 712l260 -712h-146l-42 126h-252l-43 -126h-146l260 712h109zM319 501l-88 -258h175zM465 951l-114 -170h-87l64 170h137z" />
    <glyph glyph-name="Acircumflex" unicode="&#xc2;" horiz-adv-x="637" 
d="M373 712l260 -712h-146l-42 126h-252l-43 -126h-146l260 712h109zM319 501l-88 -258h175zM371 950l132 -169h-101l-83 91l-83 -91h-101l132 169h104z" />
    <glyph glyph-name="Atilde" unicode="&#xc3;" horiz-adv-x="637" 
d="M373 712l260 -712h-146l-42 126h-252l-43 -126h-146l260 712h109zM319 501l-88 -258h175zM251 918q39 0 77 -23q30 -18 55 -18q30 0 59 29l58 -57q-59 -59 -113 -59q-40 0 -78 23q-31 18 -56 18q-29 0 -58 -29l-56 57q58 59 112 59z" />
    <glyph glyph-name="Adieresis" unicode="&#xc4;" horiz-adv-x="637" 
d="M373 712l260 -712h-146l-42 126h-252l-43 -126h-146l260 712h109zM319 501l-88 -258h175zM485 908v-125h-111v125h111zM264 908v-125h-111v125h111z" />
    <glyph glyph-name="Aring" unicode="&#xc5;" horiz-adv-x="637" 
d="M373 712l260 -712h-146l-42 126h-252l-43 -126h-146l260 712h109zM319 501l-88 -258h175zM319 1021q54 0 92.5 -38t38.5 -93q0 -54 -38.5 -92.5t-92.5 -38.5t-92.5 38.5t-38.5 92.5t38.5 92.5t92.5 38.5zM319 948q-24 0 -41 -17t-17 -41t17 -41.5t41 -17.5t41 17.5
t17 41.5t-17 41t-41 17z" />
    <glyph glyph-name="AE" unicode="&#xc6;" horiz-adv-x="980" 
d="M927 712v-124h-328v-167h281v-124h-281v-173h328v-124h-468v156h-225l-80 -156h-150l372 712h551zM459 588l-164 -315h164v315z" />
    <glyph glyph-name="Ccedilla" unicode="&#xc7;" horiz-adv-x="620" 
d="M322 718q103 0 173 -58t88 -167h-141q-24 101 -120 101q-57 0 -89 -37q-20 -23 -27.5 -62.5t-7.5 -138.5t7.5 -138.5t27.5 -62.5q32 -37 89 -37q96 0 120 101h141q-18 -109 -88 -167t-173 -58q-114 0 -191 75q-49 49 -60.5 107.5t-11.5 179.5t11.5 179.5t60.5 107.5
q77 75 191 75zM377 -59l-44 -146h-121l69 146h96z" />
    <glyph glyph-name="Egrave" unicode="&#xc8;" horiz-adv-x="605" 
d="M552 712v-124h-330v-167h282v-124h-282v-173h330v-124h-469v712h469zM298 951l64 -170h-87l-114 170h137z" />
    <glyph glyph-name="Eacute" unicode="&#xc9;" horiz-adv-x="605" 
d="M552 712v-124h-330v-167h282v-124h-282v-173h330v-124h-469v712h469zM453 951l-114 -170h-87l64 170h137z" />
    <glyph glyph-name="Ecircumflex" unicode="&#xca;" horiz-adv-x="605" 
d="M552 712v-124h-330v-167h282v-124h-282v-173h330v-124h-469v712h469zM359 950l132 -169h-101l-83 91l-83 -91h-101l132 169h104z" />
    <glyph glyph-name="Edieresis" unicode="&#xcb;" horiz-adv-x="605" 
d="M552 712v-124h-330v-167h282v-124h-282v-173h330v-124h-469v712h469zM473 908v-125h-111v125h111zM252 908v-125h-111v125h111z" />
    <glyph glyph-name="Igrave" unicode="&#xcc;" horiz-adv-x="306" 
d="M222 712v-712h-139v712h139zM143 951l64 -170h-87l-114 170h137z" />
    <glyph glyph-name="Iacute" unicode="&#xcd;" horiz-adv-x="306" 
d="M222 712v-712h-139v712h139zM298 951l-114 -170h-87l64 170h137z" />
    <glyph glyph-name="Icircumflex" unicode="&#xce;" horiz-adv-x="306" 
d="M222 712v-712h-139v712h139zM204 950l132 -169h-101l-83 91l-83 -91h-101l132 169h104z" />
    <glyph glyph-name="Idieresis" unicode="&#xcf;" horiz-adv-x="306" 
d="M222 712v-712h-139v712h139zM318 908v-125h-111v125h111zM97 908v-125h-111v125h111z" />
    <glyph glyph-name="Eth" unicode="&#xd0;" horiz-adv-x="682" 
d="M106 712h257q140 0 215 -104q30 -42 37.5 -94.5t7.5 -157.5t-7.5 -157.5t-37.5 -94.5q-75 -104 -215 -104h-257v306h-70v106h70v300zM351 588h-106v-176h116v-106h-116v-182h106q69 0 104 44q19 22 24 60t5 128t-5 128t-24 60q-35 44 -104 44z" />
    <glyph glyph-name="Ntilde" unicode="&#xd1;" horiz-adv-x="712" 
d="M628 712v-712h-123l-283 435v-435h-139v712h124l282 -435v435h139zM287 918q39 0 77 -23q30 -18 55 -18q30 0 59 29l58 -57q-59 -59 -113 -59q-40 0 -78 23q-31 18 -56 18q-29 0 -58 -29l-56 57q58 59 112 59z" />
    <glyph glyph-name="Ograve" unicode="&#xd2;" horiz-adv-x="644" 
d="M322 718q114 0 191 -75q49 -48 60.5 -107t11.5 -180t-11.5 -180t-60.5 -107q-77 -75 -191 -75t-191 75q-49 49 -60.5 107.5t-11.5 179.5t11.5 179.5t60.5 107.5q77 75 191 75zM322 594q-56 0 -89 -38q-21 -23 -28 -61.5t-7 -138.5q0 -99 7 -137.5t28 -61.5q34 -39 89 -39
t89 39q21 23 28 61.5t7 137.5q0 100 -7 138.5t-28 61.5q-33 38 -89 38zM313 951l64 -170h-87l-114 170h137z" />
    <glyph glyph-name="Oacute" unicode="&#xd3;" horiz-adv-x="644" 
d="M322 718q114 0 191 -75q49 -48 60.5 -107t11.5 -180t-11.5 -180t-60.5 -107q-77 -75 -191 -75t-191 75q-49 49 -60.5 107.5t-11.5 179.5t11.5 179.5t60.5 107.5q77 75 191 75zM322 594q-56 0 -89 -38q-21 -23 -28 -61.5t-7 -138.5q0 -99 7 -137.5t28 -61.5q34 -39 89 -39
t89 39q21 23 28 61.5t7 137.5q0 100 -7 138.5t-28 61.5q-33 38 -89 38zM468 951l-114 -170h-87l64 170h137z" />
    <glyph glyph-name="Ocircumflex" unicode="&#xd4;" horiz-adv-x="644" 
d="M322 718q114 0 191 -75q49 -48 60.5 -107t11.5 -180t-11.5 -180t-60.5 -107q-77 -75 -191 -75t-191 75q-49 49 -60.5 107.5t-11.5 179.5t11.5 179.5t60.5 107.5q77 75 191 75zM322 594q-56 0 -89 -38q-21 -23 -28 -61.5t-7 -138.5q0 -99 7 -137.5t28 -61.5q34 -39 89 -39
t89 39q21 23 28 61.5t7 137.5q0 100 -7 138.5t-28 61.5q-33 38 -89 38zM374 950l132 -169h-101l-83 91l-83 -91h-101l132 169h104z" />
    <glyph glyph-name="Otilde" unicode="&#xd5;" horiz-adv-x="644" 
d="M322 718q114 0 191 -75q49 -48 60.5 -107t11.5 -180t-11.5 -180t-60.5 -107q-77 -75 -191 -75t-191 75q-49 49 -60.5 107.5t-11.5 179.5t11.5 179.5t60.5 107.5q77 75 191 75zM322 594q-56 0 -89 -38q-21 -23 -28 -61.5t-7 -138.5q0 -99 7 -137.5t28 -61.5q34 -39 89 -39
t89 39q21 23 28 61.5t7 137.5q0 100 -7 138.5t-28 61.5q-33 38 -89 38zM254 918q39 0 77 -23q30 -18 55 -18q30 0 59 29l58 -57q-59 -59 -113 -59q-40 0 -78 23q-31 18 -56 18q-29 0 -58 -29l-56 57q58 59 112 59z" />
    <glyph glyph-name="Odieresis" unicode="&#xd6;" horiz-adv-x="644" 
d="M322 718q114 0 191 -75q49 -48 60.5 -107t11.5 -180t-11.5 -180t-60.5 -107q-77 -75 -191 -75t-191 75q-49 49 -60.5 107.5t-11.5 179.5t11.5 179.5t60.5 107.5q77 75 191 75zM322 594q-56 0 -89 -38q-21 -23 -28 -61.5t-7 -138.5q0 -99 7 -137.5t28 -61.5q34 -39 89 -39
t89 39q21 23 28 61.5t7 137.5q0 100 -7 138.5t-28 61.5q-33 38 -89 38zM488 908v-125h-111v125h111zM267 908v-125h-111v125h111z" />
    <glyph glyph-name="multiply" unicode="&#xd7;" 
d="M412 509l83 -82l-142 -141l142 -141l-82 -82l-141 141l-141 -141l-82 82l141 141l-141 141l82 82l140 -141z" />
    <glyph glyph-name="Oslash" unicode="&#xd8;" horiz-adv-x="644" 
d="M585 356q0 -120 -12 -179t-61 -108q-75 -75 -190 -75q-65 0 -113 21l-29 -59h-99l53 110l-3 3q-49 49 -60.5 107.5t-11.5 179.5t11.5 179.5t60.5 107.5q75 75 191 75q61 0 113 -22l29 60h98l-53 -110l3 -3q49 -49 61 -108t12 -179zM446 356q0 109 -10 150l-178 -371
q28 -17 64 -17q55 0 89 39q20 24 27.5 62.5t7.5 136.5zM198 356q0 -113 9 -150l178 371q-28 17 -63 17q-55 0 -90 -38q-20 -23 -27 -62t-7 -138z" />
    <glyph glyph-name="Ugrave" unicode="&#xd9;" horiz-adv-x="668" 
d="M596 712v-468q0 -111 -75.5 -180.5t-187.5 -69.5t-186.5 69.5t-74.5 180.5v468h139v-463q0 -61 33 -96t89 -35q57 0 90.5 35.5t33.5 95.5v463h139zM325 951l64 -170h-87l-114 170h137z" />
    <glyph glyph-name="Uacute" unicode="&#xda;" horiz-adv-x="668" 
d="M596 712v-468q0 -111 -75.5 -180.5t-187.5 -69.5t-186.5 69.5t-74.5 180.5v468h139v-463q0 -61 33 -96t89 -35q57 0 90.5 35.5t33.5 95.5v463h139zM480 951l-114 -170h-87l64 170h137z" />
    <glyph glyph-name="Ucircumflex" unicode="&#xdb;" horiz-adv-x="668" 
d="M596 712v-468q0 -111 -75.5 -180.5t-187.5 -69.5t-186.5 69.5t-74.5 180.5v468h139v-463q0 -61 33 -96t89 -35q57 0 90.5 35.5t33.5 95.5v463h139zM386 950l132 -169h-101l-83 91l-83 -91h-101l132 169h104z" />
    <glyph glyph-name="Udieresis" unicode="&#xdc;" horiz-adv-x="668" 
d="M596 712v-468q0 -111 -75.5 -180.5t-187.5 -69.5t-186.5 69.5t-74.5 180.5v468h139v-463q0 -61 33 -96t89 -35q57 0 90.5 35.5t33.5 95.5v463h139zM500 908v-125h-111v125h111zM279 908v-125h-111v125h111z" />
    <glyph glyph-name="Yacute" unicode="&#xdd;" horiz-adv-x="572" 
d="M569 712l-214 -421v-291h-139v291l-213 421h151l133 -287l131 287h151zM432 951l-114 -170h-87l64 170h137z" />
    <glyph glyph-name="Thorn" unicode="&#xde;" horiz-adv-x="633" 
d="M222 712v-130h137q108 0 171.5 -64t63.5 -158t-63.5 -158t-171.5 -64h-137v-138h-139v712h139zM352 457h-130v-195h130q47 0 75 27t28 71t-28 70.5t-75 26.5z" />
    <glyph glyph-name="germandbls" unicode="&#xdf;" horiz-adv-x="574" 
d="M299 718q99 0 158 -44t59 -131q0 -75 -62 -113q62 -31 62 -110v-159q0 -78 -41 -119q-42 -42 -125 -42h-53v110h27q29 0 44 15q17 16 17 47v144q0 30 -15 45q-15 16 -45 16h-28v101h28q27 0 43.5 15t16.5 46q0 27 -19 45q-23 20 -69 20q-50 0 -71.5 -23.5t-21.5 -69.5
v-511h-131v521q0 100 61.5 148.5t164.5 48.5z" />
    <glyph glyph-name="agrave" unicode="&#xe0;" horiz-adv-x="534" 
d="M245 527q222 0 222 -184v-343h-127v45q-27 -27 -55.5 -38.5t-72.5 -11.5q-87 0 -133 46q-43 45 -43 117q0 66 46 108.5t134 42.5h121v26q0 43 -23 62.5t-74 19.5q-61 0 -100 -45l-82 81q38 42 79.5 58t107.5 16zM337 220h-99q-77 0 -77 -60q0 -59 79 -59q51 0 77 25
q20 17 20 66v28zM250 774l64 -170h-87l-114 170h137z" />
    <glyph glyph-name="aacute" unicode="&#xe1;" horiz-adv-x="534" 
d="M245 527q222 0 222 -184v-343h-127v45q-27 -27 -55.5 -38.5t-72.5 -11.5q-87 0 -133 46q-43 45 -43 117q0 66 46 108.5t134 42.5h121v26q0 43 -23 62.5t-74 19.5q-61 0 -100 -45l-82 81q38 42 79.5 58t107.5 16zM337 220h-99q-77 0 -77 -60q0 -59 79 -59q51 0 77 25
q20 17 20 66v28zM409 774l-114 -170h-87l64 170h137z" />
    <glyph glyph-name="acircumflex" unicode="&#xe2;" horiz-adv-x="534" 
d="M245 527q222 0 222 -184v-343h-127v45q-27 -27 -55.5 -38.5t-72.5 -11.5q-87 0 -133 46q-43 45 -43 117q0 66 46 108.5t134 42.5h121v26q0 43 -23 62.5t-74 19.5q-61 0 -100 -45l-82 81q38 42 79.5 58t107.5 16zM337 220h-99q-77 0 -77 -60q0 -59 79 -59q51 0 77 25
q20 17 20 66v28zM312 773l132 -169h-101l-83 91l-83 -91h-101l132 169h104z" />
    <glyph glyph-name="atilde" unicode="&#xe3;" horiz-adv-x="534" 
d="M245 527q222 0 222 -184v-343h-127v45q-27 -27 -55.5 -38.5t-72.5 -11.5q-87 0 -133 46q-43 45 -43 117q0 66 46 108.5t134 42.5h121v26q0 43 -23 62.5t-74 19.5q-61 0 -100 -45l-82 81q38 42 79.5 58t107.5 16zM337 220h-99q-77 0 -77 -60q0 -59 79 -59q51 0 77 25
q20 17 20 66v28zM192 740q40 0 78 -22q30 -19 55 -19q29 0 58 29l58 -57q-58 -58 -113 -58q-38 0 -77 22q-31 18 -56 18q-30 0 -58 -28l-57 57q58 58 112 58z" />
    <glyph glyph-name="adieresis" unicode="&#xe4;" horiz-adv-x="534" 
d="M245 527q222 0 222 -184v-343h-127v45q-27 -27 -55.5 -38.5t-72.5 -11.5q-87 0 -133 46q-43 45 -43 117q0 66 46 108.5t134 42.5h121v26q0 43 -23 62.5t-74 19.5q-61 0 -100 -45l-82 81q38 42 79.5 58t107.5 16zM337 220h-99q-77 0 -77 -60q0 -59 79 -59q51 0 77 25
q20 17 20 66v28zM426 731v-125h-111v125h111zM205 731v-125h-111v125h111z" />
    <glyph glyph-name="aring" unicode="&#xe5;" horiz-adv-x="534" 
d="M245 527q222 0 222 -184v-343h-127v45q-27 -27 -55.5 -38.5t-72.5 -11.5q-87 0 -133 46q-43 45 -43 117q0 66 46 108.5t134 42.5h121v26q0 43 -23 62.5t-74 19.5q-61 0 -100 -45l-82 81q38 42 79.5 58t107.5 16zM337 220h-99q-77 0 -77 -60q0 -59 79 -59q51 0 77 25
q20 17 20 66v28zM260 846q54 0 92.5 -38t38.5 -93q0 -54 -38.5 -92.5t-92.5 -38.5t-92.5 38.5t-38.5 92.5t38.5 92.5t92.5 38.5zM260 773q-24 0 -41 -17t-17 -41t17 -41.5t41 -17.5t41 17.5t17 41.5t-17 41t-41 17z" />
    <glyph glyph-name="ae" unicode="&#xe6;" horiz-adv-x="838" 
d="M564 527q107 0 167 -69.5t60 -182.5v-55h-326q0 -52 30 -84t84 -32q40 0 65.5 11.5t52.5 37.5l79 -77q-42 -43 -86.5 -62.5t-111.5 -19.5q-122 0 -183 73q-41 -44 -82 -58.5t-101 -14.5q-86 0 -133 47q-43 45 -43 117q0 66 46 108.5t134 42.5h121v26q0 43 -23 62.5
t-74 19.5q-61 0 -100 -45l-82 81q38 42 79.5 58t107.5 16q120 0 171 -57q56 57 148 57zM337 220h-99q-77 0 -77 -60q0 -59 79 -59q51 0 77 25q20 17 20 66v28zM564 419q-65 0 -87 -54q-11 -22 -12 -56h198q-1 34 -12 56q-23 54 -87 54z" />
    <glyph glyph-name="ccedilla" unicode="&#xe7;" horiz-adv-x="484" 
d="M284 527q103 0 172 -70l-89 -88q-38 41 -83 41t-74 -34q-29 -36 -29 -115q0 -80 29 -116q29 -34 74 -34q43 0 83 41l89 -87q-70 -71 -172 -71q-43 0 -81.5 12.5t-74 41t-56.5 83.5t-21 130t21 129.5t56.5 83t74 41t81.5 12.5zM159 -205l69 146h96l-44 -146h-121z" />
    <glyph glyph-name="egrave" unicode="&#xe8;" horiz-adv-x="548" 
d="M274 527q107 0 167 -69.5t60 -182.5v-55h-326q0 -52 30 -84t84 -32q40 0 65.5 11.5t51.5 37.5l80 -77q-42 -43 -86.5 -62.5t-111.5 -19.5q-50 0 -90.5 12.5t-76 41.5t-55 83t-19.5 130q0 125 62 195.5t165 70.5zM274 419q-64 0 -88 -54q-9 -20 -11 -56h197q-2 36 -11 56
q-24 54 -87 54zM261 774l64 -170h-87l-114 170h137z" />
    <glyph glyph-name="eacute" unicode="&#xe9;" horiz-adv-x="548" 
d="M274 527q107 0 167 -69.5t60 -182.5v-55h-326q0 -52 30 -84t84 -32q40 0 65.5 11.5t51.5 37.5l80 -77q-42 -43 -86.5 -62.5t-111.5 -19.5q-50 0 -90.5 12.5t-76 41.5t-55 83t-19.5 130q0 125 62 195.5t165 70.5zM274 419q-64 0 -88 -54q-9 -20 -11 -56h197q-2 36 -11 56
q-24 54 -87 54zM420 774l-114 -170h-87l64 170h137z" />
    <glyph glyph-name="ecircumflex" unicode="&#xea;" horiz-adv-x="548" 
d="M274 527q107 0 167 -69.5t60 -182.5v-55h-326q0 -52 30 -84t84 -32q40 0 65.5 11.5t51.5 37.5l80 -77q-42 -43 -86.5 -62.5t-111.5 -19.5q-50 0 -90.5 12.5t-76 41.5t-55 83t-19.5 130q0 125 62 195.5t165 70.5zM274 419q-64 0 -88 -54q-9 -20 -11 -56h197q-2 36 -11 56
q-24 54 -87 54zM323 773l132 -169h-101l-83 91l-83 -91h-101l132 169h104z" />
    <glyph glyph-name="edieresis" unicode="&#xeb;" horiz-adv-x="548" 
d="M274 527q107 0 167 -69.5t60 -182.5v-55h-326q0 -52 30 -84t84 -32q40 0 65.5 11.5t51.5 37.5l80 -77q-42 -43 -86.5 -62.5t-111.5 -19.5q-50 0 -90.5 12.5t-76 41.5t-55 83t-19.5 130q0 125 62 195.5t165 70.5zM274 419q-64 0 -88 -54q-9 -20 -11 -56h197q-2 36 -11 56
q-24 54 -87 54zM437 731v-125h-111v125h111zM216 731v-125h-111v125h111z" />
    <glyph glyph-name="igrave" unicode="&#xec;" horiz-adv-x="275" 
d="M127 774l64 -170h-87l-114 170h137zM203 506v-506h-130v506h130z" />
    <glyph glyph-name="iacute" unicode="&#xed;" horiz-adv-x="275" 
d="M286 774l-114 -170h-87l64 170h137zM203 506v-506h-130v506h130z" />
    <glyph glyph-name="icircumflex" unicode="&#xee;" horiz-adv-x="275" 
d="M189 773l132 -169h-101l-83 91l-83 -91h-101l132 169h104zM203 506v-506h-130v506h130z" />
    <glyph glyph-name="idieresis" unicode="&#xef;" horiz-adv-x="275" 
d="M303 731v-125h-111v125h111zM82 731v-125h-111v125h111zM203 506v-506h-130v506h130z" />
    <glyph glyph-name="eth" unicode="&#xf0;" horiz-adv-x="552" 
d="M491 254q0 -73 -12.5 -118t-45.5 -80q-60 -62 -157 -62t-157 62q-33 35 -45.5 80t-12.5 118q0 72 12.5 117t45.5 80q32 34 89 49q29 8 58 8q12 0 18 -1l-34 62h-114v91h68l-30 58h139l30 -58h92v-91h-46l40 -77q37 -72 49.5 -119t12.5 -119zM361 254q0 92 -27 120
q-22 22 -58 22q-35 0 -57 -22q-28 -29 -28 -120q0 -92 28 -121q22 -22 57 -22q36 0 58 22q27 28 27 121z" />
    <glyph glyph-name="ntilde" unicode="&#xf1;" horiz-adv-x="573" 
d="M330 527q79 0 123 -46q53 -54 53 -148v-333h-130v315q0 49 -25 72t-61 23t-61.5 -23t-25.5 -72v-315h-130v521h127v-48q51 54 130 54zM221 740q40 0 78 -22q30 -19 55 -19q29 0 58 29l58 -57q-58 -58 -113 -58q-39 0 -77 22q-31 18 -56 18q-30 0 -58 -28l-57 57
q58 58 112 58z" />
    <glyph glyph-name="ograve" unicode="&#xf2;" 
d="M492 261q0 -75 -12.5 -121.5t-46.5 -81.5q-62 -64 -162 -64q-99 0 -161 64q-34 36 -46.5 82.5t-12.5 120.5t12.5 120t46.5 82q62 64 161 64q102 0 162 -64q34 -36 46.5 -82t12.5 -120zM362 261q0 97 -30 126q-23 23 -61 23q-37 0 -60 -23q-30 -29 -30 -126q0 -98 30 -127
q23 -23 60 -23q38 0 61 23q30 29 30 127zM261 774l64 -170h-87l-114 170h137z" />
    <glyph glyph-name="oacute" unicode="&#xf3;" 
d="M492 261q0 -75 -12.5 -121.5t-46.5 -81.5q-62 -64 -162 -64q-99 0 -161 64q-34 36 -46.5 82.5t-12.5 120.5t12.5 120t46.5 82q62 64 161 64q102 0 162 -64q34 -36 46.5 -82t12.5 -120zM362 261q0 97 -30 126q-23 23 -61 23q-37 0 -60 -23q-30 -29 -30 -126q0 -98 30 -127
q23 -23 60 -23q38 0 61 23q30 29 30 127zM420 774l-114 -170h-87l64 170h137z" />
    <glyph glyph-name="ocircumflex" unicode="&#xf4;" 
d="M492 261q0 -75 -12.5 -121.5t-46.5 -81.5q-62 -64 -162 -64q-99 0 -161 64q-34 36 -46.5 82.5t-12.5 120.5t12.5 120t46.5 82q62 64 161 64q102 0 162 -64q34 -36 46.5 -82t12.5 -120zM362 261q0 97 -30 126q-23 23 -61 23q-37 0 -60 -23q-30 -29 -30 -126q0 -98 30 -127
q23 -23 60 -23q38 0 61 23q30 29 30 127zM323 773l132 -169h-101l-83 91l-83 -91h-101l132 169h104z" />
    <glyph glyph-name="otilde" unicode="&#xf5;" 
d="M492 261q0 -75 -12.5 -121.5t-46.5 -81.5q-62 -64 -162 -64q-99 0 -161 64q-34 36 -46.5 82.5t-12.5 120.5t12.5 120t46.5 82q62 64 161 64q102 0 162 -64q34 -36 46.5 -82t12.5 -120zM362 261q0 97 -30 126q-23 23 -61 23q-37 0 -60 -23q-30 -29 -30 -126q0 -98 30 -127
q23 -23 60 -23q38 0 61 23q30 29 30 127zM203 740q40 0 78 -22q30 -19 55 -19q29 0 58 29l58 -57q-58 -58 -113 -58q-39 0 -77 22q-31 18 -56 18q-30 0 -58 -28l-57 57q58 58 112 58z" />
    <glyph glyph-name="odieresis" unicode="&#xf6;" 
d="M492 261q0 -75 -12.5 -121.5t-46.5 -81.5q-62 -64 -162 -64q-99 0 -161 64q-34 36 -46.5 82.5t-12.5 120.5t12.5 120t46.5 82q62 64 161 64q102 0 162 -64q34 -36 46.5 -82t12.5 -120zM362 261q0 97 -30 126q-23 23 -61 23q-37 0 -60 -23q-30 -29 -30 -126q0 -98 30 -127
q23 -23 60 -23q38 0 61 23q30 29 30 127zM437 731v-125h-111v125h111zM216 731v-125h-111v125h111z" />
    <glyph glyph-name="divide" unicode="&#xf7;" 
d="M497 346v-121h-451v121h451zM337 148v-130h-130v130h130zM337 553v-130h-130v130h130z" />
    <glyph glyph-name="oslash" unicode="&#xf8;" 
d="M492 261q0 -75 -12.5 -121.5t-46.5 -81.5q-60 -64 -162 -64q-58 0 -104 23l-36 -61h-79l59 101q-35 37 -47.5 82.5t-12.5 121.5q0 74 12.5 120.5t46.5 81.5q60 64 161 64q61 0 105 -22l35 60h80l-59 -100q36 -39 48 -84t12 -120zM362 261q0 53 -8 85l-131 -222
q21 -13 48 -13q38 0 61 23q30 30 30 127zM320 397q-21 13 -49 13q-37 0 -60 -23q-30 -30 -30 -126q0 -58 7 -86z" />
    <glyph glyph-name="ugrave" unicode="&#xf9;" horiz-adv-x="573" 
d="M500 521v-521h-127v48q-51 -54 -130 -54q-77 0 -123 46q-53 53 -53 148v333h130v-315q0 -49 25.5 -72t60.5 -23q36 0 61.5 23t25.5 72v315h130zM273 774l64 -170h-87l-114 170h137z" />
    <glyph glyph-name="uacute" unicode="&#xfa;" horiz-adv-x="573" 
d="M500 521v-521h-127v48q-51 -54 -130 -54q-77 0 -123 46q-53 53 -53 148v333h130v-315q0 -49 25.5 -72t60.5 -23q36 0 61.5 23t25.5 72v315h130zM432 774l-114 -170h-87l64 170h137z" />
    <glyph glyph-name="ucircumflex" unicode="&#xfb;" horiz-adv-x="573" 
d="M500 521v-521h-127v48q-51 -54 -130 -54q-77 0 -123 46q-53 53 -53 148v333h130v-315q0 -49 25.5 -72t60.5 -23q36 0 61.5 23t25.5 72v315h130zM335 773l132 -169h-101l-83 91l-83 -91h-101l132 169h104z" />
    <glyph glyph-name="udieresis" unicode="&#xfc;" horiz-adv-x="573" 
d="M500 521v-521h-127v48q-51 -54 -130 -54q-77 0 -123 46q-53 53 -53 148v333h130v-315q0 -49 25.5 -72t60.5 -23q36 0 61.5 23t25.5 72v315h130zM449 731v-125h-111v125h111zM228 731v-125h-111v125h111z" />
    <glyph glyph-name="yacute" unicode="&#xfd;" horiz-adv-x="494" 
d="M490 521l-223 -605q-15 -42 -39 -67q-40 -40 -112 -40h-51v117h30q28 0 41.5 9.5t23.5 37.5l22 64l-178 484h137l108 -322l104 322h137zM396 774l-114 -170h-87l64 170h137z" />
    <glyph glyph-name="thorn" unicode="&#xfe;" horiz-adv-x="561" 
d="M203 712v-237q47 52 127 52q79 0 126 -47q33 -35 43.5 -87.5t10.5 -131.5q0 -80 -10.5 -132.5t-43.5 -87.5q-47 -47 -126 -47q-80 0 -127 52v-237h-130v903h130zM291 410q-28 0 -46.5 -11t-27 -33t-11.5 -45.5t-3 -59.5t3 -60t11.5 -46t27 -33t46.5 -11q54 0 71.5 37.5
t17.5 112.5q0 74 -17.5 111.5t-71.5 37.5z" />
    <glyph glyph-name="ydieresis" unicode="&#xff;" horiz-adv-x="494" 
d="M490 521l-223 -605q-15 -42 -39 -67q-40 -40 -112 -40h-51v117h30q28 0 41.5 9.5t23.5 37.5l22 64l-178 484h137l108 -322l104 322h137zM413 731v-125h-111v125h111zM192 731v-125h-111v125h111z" />
    <glyph glyph-name="dotlessi" unicode="&#x131;" horiz-adv-x="275" 
d="M203 506v-506h-130v506h130z" />
    <glyph glyph-name="IJ" unicode="&#x132;" horiz-adv-x="814" 
d="M222 712v-712h-139v712h139zM743 712v-478q0 -113 -72.5 -176.5t-178.5 -63.5q-58 0 -101 17t-82 56l92 91q21 -21 40 -30.5t51 -9.5q53 0 82.5 31t29.5 91v472h139z" />
    <glyph glyph-name="ij" unicode="&#x133;" horiz-adv-x="550" 
d="M203 506v-506h-130v506h130zM204 716v-106h-133v106h133zM478 506v-548q0 -62 -38.5 -105.5t-113.5 -43.5h-74v110h50q46 0 46 47v540h130zM479 716v-106h-133v106h133z" />
    <glyph glyph-name="Lslash" unicode="&#x141;" horiz-adv-x="593" 
d="M240 712v-264l128 81v-117l-128 -80v-208h323v-124h-462v244l-65 -41v116l65 41v352h139z" />
    <glyph glyph-name="lslash" unicode="&#x142;" horiz-adv-x="340" 
d="M214 712v-222l60 37v-109l-60 -38v-223q0 -47 45 -47h50v-110h-74q-75 0 -113 43.5t-38 105.5v153l-54 -33v109l54 33v301h130z" />
    <glyph glyph-name="OE" unicode="&#x152;" horiz-adv-x="967" 
d="M318 718q82 0 128 -50v44h468v-124h-329v-167h281v-124h-281v-173h329v-124h-468v44q-46 -50 -128 -50q-113 0 -187 74q-26 25 -41 54t-21.5 70.5t-8 72.5t-1.5 91t1.5 91t8 72.5t21.5 70.5t41 54q74 74 187 74zM322 594q-56 0 -89 -38q-21 -23 -28 -61.5t-7 -138.5
q0 -99 7 -137.5t28 -61.5q34 -39 89 -39t89 39q21 23 28 61.5t7 137.5q0 100 -7 138.5t-28 61.5q-33 38 -89 38z" />
    <glyph glyph-name="oe" unicode="&#x153;" horiz-adv-x="863" 
d="M816 220h-326q0 -52 30 -84t84 -32q40 0 65.5 11.5t51.5 37.5l80 -77q-42 -43 -86.5 -62.5t-111.5 -19.5q-114 0 -173 67q-55 -67 -159 -67q-99 0 -161 64q-34 36 -46.5 82t-12.5 121q0 74 12.5 120t46.5 82q62 64 161 64q105 0 161 -68q57 68 157 68q106 0 166.5 -69.5
t60.5 -179.5v-58zM688 309q-1 34 -12 56q-24 54 -87 54t-87 -54q-11 -22 -12 -56h198zM362 261q0 97 -30 126q-23 23 -61 23q-37 0 -60 -23q-30 -29 -30 -126q0 -98 30 -127q23 -23 60 -23q38 0 61 23q30 29 30 127z" />
    <glyph glyph-name="Scaron" unicode="&#x160;" horiz-adv-x="591" 
d="M295 718q144 0 230 -83l-88 -87q-49 49 -146 49q-53 0 -81.5 -25.5t-28.5 -64.5q0 -31 21 -51q23 -21 65 -27l85 -13q91 -13 136 -56q55 -52 55 -150q0 -101 -74 -158.5t-190 -57.5q-85 0 -147 21.5t-113 72.5l90 90q60 -60 171 -60q62 0 94.5 23t32.5 66q0 37 -22 59
q-19 17 -64 24l-85 13q-91 14 -138 59q-51 50 -51 140q0 97 67 156.5t181 59.5zM479 950l-132 -169h-104l-132 169h101l83 -90l83 90h101z" />
    <glyph glyph-name="scaron" unicode="&#x161;" horiz-adv-x="501" 
d="M250 527q133 0 199 -61l-80 -81q-39 35 -121 35q-37 0 -55.5 -14.5t-18.5 -35.5t12.5 -31.5t41.5 -13.5l82 -8q155 -15 155 -153q0 -83 -62 -126.5t-159 -43.5q-72 0 -124 15t-98 60l85 85q48 -49 139 -49q38 0 65 13.5t27 40.5q0 43 -55 48l-82 8q-152 15 -152 146
q0 78 58.5 122t142.5 44zM433 773l-132 -169h-104l-132 169h101l83 -90l83 90h101z" />
    <glyph glyph-name="Ydieresis" unicode="&#x178;" horiz-adv-x="572" 
d="M569 712l-214 -421v-291h-139v291l-213 421h151l133 -287l131 287h151zM452 908v-125h-111v125h111zM231 908v-125h-111v125h111z" />
    <glyph glyph-name="Zcaron" unicode="&#x17d;" horiz-adv-x="548" 
d="M508 712v-110l-304 -478h304v-124h-468v110l303 478h-290v124h455zM459 950l-132 -169h-104l-132 169h101l83 -90l83 90h101z" />
    </font>
</defs>
</svg>
